<?xml version="1.0" encoding="utf-8"?>
<!-- Generator: Adobe Illustrator 19.2.1, SVG Export Plug-In . SVG Version: 6.00 Build 0)  -->
<svg version="1.1" id="Layer_1" xmlns="http://www.w3.org/2000/svg" xmlns:xlink="http://www.w3.org/1999/xlink" x="0px" y="0px"
	 viewBox="0 0 871.1 539.6" style="enable-background:new 0 0 871.1 539.6;" xml:space="preserve">
<style type="text/css">
	.st0{opacity:0.6;fill:none;}
	.st1{opacity:0.6;fill:#EAEAEA;enable-background:new    ;}
	.st2{font-family:'Bitter-Regular';}
	.st3{font-size:10px;}
	.st4{opacity:0.6;enable-background:new    ;}
	.st5{fill:#EAEAEA;}
	.st6{font-size:7px;}
</style>
<rect x="40.3" y="30.9" class="st0" width="258.4" height="498"/>
<text transform="matrix(1 0 0 1 40.2954 38.5723)" class="st1 st2 st3">Swimmer’s Body Illusion</text>
<text transform="matrix(1 0 0 1 40.2954 55.5723)" class="st1 st2 st3">Clustering Illusion</text>
<text transform="matrix(1 0 0 1 40.2954 72.5723)" class="st1 st2 st3">Social Proof</text>
<text transform="matrix(1 0 0 1 40.2954 89.5723)" class="st1 st2 st3">Sunk Cost Fallacy</text>
<text transform="matrix(1 0 0 1 40.2954 106.5723)" class="st1 st2 st3">Reciprocity</text>
<text transform="matrix(1 0 0 1 40.2954 123.5723)" class="st1 st2 st3">Confirmation Bias</text>
<text transform="matrix(1 0 0 1 40.2954 140.5723)" class="st1 st2 st3">Authority Bias</text>
<text transform="matrix(1 0 0 1 40.2954 157.5723)" class="st1 st2 st3">Contrast Effect</text>
<text transform="matrix(1 0 0 1 40.2954 174.5723)" class="st1 st2 st3">Availability Bias</text>
<text transform="matrix(1 0 0 1 40.2954 191.5723)" class="st1 st2 st3">Story Bias</text>
<text transform="matrix(1 0 0 1 40.2954 208.5723)" class="st1 st2 st3">Hindsight Bias</text>
<text transform="matrix(1 0 0 1 40.2954 225.5723)" class="st1 st2 st3">Overconfidence Effect</text>
<text transform="matrix(1 0 0 1 40.2954 242.5723)" class="st1 st2 st3">Chauffeur Knowledge</text>
<text transform="matrix(1 0 0 1 40.2954 259.5723)" class="st1 st2 st3">Illusion of Control</text>
<text transform="matrix(1 0 0 1 40.2954 276.5723)" class="st1 st2 st3">Incentive Super-Response Tendency</text>
<text transform="matrix(1 0 0 1 40.2954 293.5723)" class="st1 st2 st3">Regression to Mean</text>
<text transform="matrix(1 0 0 1 40.2954 310.5723)" class="st1 st2 st3">Outcome Bias</text>
<text transform="matrix(1 0 0 1 40.2954 327.5723)" class="st1 st2 st3">Paradox of Choice</text>
<text transform="matrix(1 0 0 1 40.2954 344.5723)" class="st1 st2 st3">Liking Bias</text>
<text transform="matrix(1 0 0 1 40.2954 361.5723)" class="st1 st2 st3">Endowment Effect</text>
<text transform="matrix(1 0 0 1 40.2954 378.5723)" class="st1 st2 st3">Coincidence</text>
<text transform="matrix(1 0 0 1 40.2954 395.5723)" class="st1 st2 st3">Groupthink</text>
<text transform="matrix(1 0 0 1 40.2954 412.5723)" class="st1 st2 st3">Neglect of Probability</text>
<text transform="matrix(1 0 0 1 40.2954 429.5723)" class="st1 st2 st3">Scarcity Error</text>
<text transform="matrix(1 0 0 1 40.2954 446.5723)" class="st1 st2 st3">It’ll-Get-Worse-Before-It-Gets-Better Fallacy</text>
<text transform="matrix(1 0 0 1 40.2954 463.5723)" class="st1 st2 st3">Base-Rate Neglect</text>
<text transform="matrix(1 0 0 1 40.2954 480.5723)" class="st1 st2 st3">Gambler’s Fallacy</text>
<text transform="matrix(1 0 0 1 40.2954 497.5723)" class="st1 st2 st3">The Anchor</text>
<text transform="matrix(1 0 0 1 40.2954 514.5723)" class="st1 st2 st3">Induction</text>
<rect x="286.4" y="30.9" class="st0" width="269.1" height="477.9"/>
<text transform="matrix(1 0 0 1 286.4363 38.5723)" class="st1 st2 st3">Loss Aversion</text>
<text transform="matrix(1 0 0 1 286.4363 55.5723)" class="st1 st2 st3">Social Loafing</text>
<text transform="matrix(1 0 0 1 286.4363 72.5723)" class="st1 st2 st3">Exponential Growth</text>
<text transform="matrix(1 0 0 1 286.4363 89.5723)" class="st1 st2 st3">Winner’s Curse</text>
<text transform="matrix(1 0 0 1 286.4363 106.5723)" class="st1 st2 st3">Fundamental Attribution Error</text>
<text transform="matrix(1 0 0 1 286.4363 123.5723)" class="st1 st2 st3">False Causality</text>
<text transform="matrix(1 0 0 1 286.4363 140.5723)" class="st1 st2 st3">Halo Effect</text>
<text transform="matrix(1 0 0 1 286.4363 157.5723)" class="st1 st2 st3">Alternative Paths</text>
<text transform="matrix(1 0 0 1 286.4363 174.5723)" class="st1 st2 st3">Forecast Illusion</text>
<g class="st4">
</g>
<text transform="matrix(1 0 0 1 286.4363 327.5723)" class="st1 st2 st3">Framing</text>
<text transform="matrix(1 0 0 1 286.4363 344.5723)" class="st1 st2 st3">Action Bias</text>
<text transform="matrix(1 0 0 1 286.4363 361.5723)" class="st1 st2 st3">Omission Bias</text>
<text transform="matrix(1 0 0 1 286.4363 378.5723)" class="st1 st2 st3">Self-Serving Bias</text>
<text transform="matrix(1 0 0 1 286.4363 395.5723)" class="st1 st2 st3">Hedonic Treadmill</text>
<text transform="matrix(1 0 0 1 286.4363 412.5723)" class="st1 st2 st3">Self-Selection Bias</text>
<text transform="matrix(1 0 0 1 286.4363 429.5723)" class="st1 st2 st3">Association Bias</text>
<text transform="matrix(1 0 0 1 286.4363 446.5723)" class="st1 st2 st3">Beginner’s Luck</text>
<text transform="matrix(1 0 0 1 286.4363 463.5723)" class="st1 st2 st3">Cognitive Dissonance</text>
<text transform="matrix(1 0 0 1 286.4363 480.5723)" class="st1 st2 st3">Hyperbolic Discounting</text>
<text transform="matrix(1 0 0 1 286.4363 497.5723)" class="st4"><tspan x="0" y="0" class="st5 st2 st3">“Because” Justification</tspan><tspan x="0" y="18" class="st5 st2 st3">Conjunction Fallacy</tspan></text>
<rect x="518.4" y="30.9" class="st0" width="227.5" height="477.9"/>
<text transform="matrix(1 0 0 1 518.3687 38.5723)" class="st1 st2 st3">Decision Fatigue</text>
<text transform="matrix(1 0 0 1 518.3687 55.5723)" class="st1 st2 st3">Contagion Bias</text>
<text transform="matrix(1 0 0 1 518.3687 72.5723)" class="st1 st2 st3">The Problem with Averages</text>
<text transform="matrix(1 0 0 1 518.3687 89.5723)" class="st1 st2 st3">Motivation Crowding</text>
<text transform="matrix(1 0 0 1 518.3687 106.5723)" class="st1 st2 st3">Twaddle Tendency</text>
<text transform="matrix(1 0 0 1 518.3687 123.5723)" class="st1 st2 st3">Will Rogers Phenomenon</text>
<text transform="matrix(1 0 0 1 518.3687 140.5723)" class="st1 st2 st3">Information Bias</text>
<text transform="matrix(1 0 0 1 518.3687 157.5723)" class="st1 st2 st3">Effort Justification</text>
<text transform="matrix(1 0 0 1 518.3687 174.5723)" class="st1 st2 st3">The Law of Small Numbers</text>
<g class="st4">
</g>
<text transform="matrix(1 0 0 1 518.3687 327.5723)" class="st1 st2 st3">Simple Logic</text>
<text transform="matrix(1 0 0 1 518.3687 344.5723)" class="st1 st2 st3">Forer Effect</text>
<text transform="matrix(1 0 0 1 518.3687 361.5723)" class="st1 st2 st3">Volunteer’s Folly</text>
<text transform="matrix(1 0 0 1 518.3687 378.5723)" class="st1 st2 st3">Affect Heuristic</text>
<text transform="matrix(1 0 0 1 518.3687 395.5723)" class="st1 st2 st3">Introspection Illusion</text>
<text transform="matrix(1 0 0 1 518.3687 412.5723)" class="st1 st2 st3">Inability to Close Doors</text>
<text transform="matrix(1 0 0 1 518.3687 429.5723)" class="st1 st2 st3">Neomania</text>
<text transform="matrix(1 0 0 1 518.3687 446.5723)" class="st1 st2 st3">Sleeper Effect</text>
<text transform="matrix(1 0 0 1 518.3687 463.5723)" class="st1 st2 st3">Alternative Blindness</text>
<text transform="matrix(1 0 0 1 518.3687 480.5723)" class="st1 st2 st3">Social Comparison Bias</text>
<text transform="matrix(1 0 0 1 518.3687 497.5723)" class="st4"><tspan x="0" y="0" class="st5 st2 st3">Primacy and Recency Effects</tspan><tspan x="0" y="18" class="st5 st2 st3">Expectations</tspan></text>
<rect x="707.3" y="30.9" class="st0" width="220.8" height="484.6"/>
<text transform="matrix(1 0 0 1 707.3419 38.5723)" class="st1 st2 st3">Not-Invented-Here Syndrome</text>
<text transform="matrix(1 0 0 1 707.3419 55.5723)" class="st1 st2 st3">The Black Swan</text>
<text transform="matrix(1 0 0 1 707.3419 72.5723)" class="st1 st2 st3">Domain Dependence</text>
<text transform="matrix(1 0 0 1 707.3419 89.5723)" class="st1 st2 st3">False-Consensus Effect</text>
<text transform="matrix(1 0 0 1 707.3419 106.5723)" class="st1 st2 st3">Falsification of History</text>
<text transform="matrix(1 0 0 1 707.3419 123.5723)" class="st1 st2 st3">In-Group Out-Group Bias</text>
<text transform="matrix(1 0 0 1 707.3419 140.5723)" class="st1 st2 st3">Ambiguity Aversion</text>
<text transform="matrix(1 0 0 1 707.3419 157.5723)" class="st1 st2 st3">Default Effect</text>
<text transform="matrix(1 0 0 1 707.3419 174.5723)" class="st1 st2 st3">Fear of Regret</text>
<text transform="matrix(1 0 0 1 707.3419 191.5723)" class="st1 st2 st3">Salience Effect</text>
<text transform="matrix(1 0 0 1 707.3419 208.5723)" class="st1 st2 st3">House-Money Effect</text>
<text transform="matrix(1 0 0 1 707.3419 225.5723)" class="st1 st2 st3">Procrastination</text>
<text transform="matrix(1 0 0 1 707.3419 242.5723)" class="st1 st2 st3">Envy</text>
<text transform="matrix(1 0 0 1 707.3419 259.5723)" class="st1 st2 st3">Personification</text>
<text transform="matrix(1 0 0 1 707.3419 276.5723)" class="st1 st2 st3">Illusion of Attention</text>
<text transform="matrix(1 0 0 1 707.3419 293.5723)" class="st1 st2 st3">Strategic Misrepresentation</text>
<text transform="matrix(1 0 0 1 707.3419 310.5723)" class="st1 st2 st3">Overthinking</text>
<text transform="matrix(1 0 0 1 707.3419 327.5723)" class="st1 st2 st3">Planning Fallacy</text>
<text transform="matrix(1 0 0 1 707.3419 344.5723)" class="st1 st2 st3">Déformation Professionnelle</text>
<text transform="matrix(1 0 0 1 707.3419 361.5723)" class="st1 st2 st3">Zeigarnik Effect</text>
<text transform="matrix(1 0 0 1 707.3419 378.5723)" class="st1 st2 st3">Illusion of Skill</text>
<text transform="matrix(1 0 0 1 707.3419 395.5723)" class="st1 st2 st3">Feature-Positive Effect</text>
<text transform="matrix(1 0 0 1 707.3419 412.5723)" class="st1 st2 st3">Cherry Picking</text>
<text transform="matrix(1 0 0 1 707.3419 429.5723)" class="st1 st2 st3">Fallacy of the Single Cause</text>
<text transform="matrix(1 0 0 1 707.3419 446.5723)" class="st1 st2 st3">Intention-to-Treat Error</text>
<text transform="matrix(1 0 0 1 707.3419 463.5723)" class="st4"><tspan x="0" y="0" class="st5 st2 st3">News Illusion</tspan><tspan x="0" y="28" class="st5 st2 st6">Source: The Art of Thinking Clearly, </tspan><tspan x="0" y="38" class="st5 st2 st6">by Rolf Dobelli</tspan></text>
</svg>
