<?xml version="1.0" encoding="utf-8"?>
<!-- Generator: Adobe Illustrator 19.2.1, SVG Export Plug-In . SVG Version: 6.00 Build 0)  -->
<svg version="1.1" id="Layer_1" xmlns="http://www.w3.org/2000/svg" xmlns:xlink="http://www.w3.org/1999/xlink" x="0px" y="0px"
	 viewBox="0 0 355.5 238.5" style="enable-background:new 0 0 355.5 238.5;" xml:space="preserve">
<style type="text/css">
	.st0{fill:#4298D3;}
	.st1{fill:#FFFFFF;}
</style>
<polygon class="st0" points="12.6,41.3 18.3,93.8 47,138.9 72.6,164.7 111.9,187.4 120.2,193.1 140.9,193.1 236.8,191.1 
	265.7,177.4 298.6,149.9 330,108.1 336.5,73.2 342.3,48.6 342.3,41.3 "/>
<g>
	<path class="st1" d="M47,36.6H10l-0.4,3.9C9.4,41.6,6.7,67,18.6,98.9c7,18.7,17.7,35.8,31.6,50.9c17.2,18.5,39.5,33.7,66.3,45.5
		v7.1c0,7.8,6.6,14.1,14.6,14.1h92.4c8,0,14.6-6.4,14.6-14.1v-7.1c26.8-11.8,49.1-27,66.3-45.5c14-15,24.7-32.1,31.6-50.9
		c12-32,9.2-57.3,9.1-58.3l-0.4-3.9 M269.2,36.6h-13.9 M229,202.4c0,2.9-2.4,5.3-5.5,5.3h-92.4c-3,0-5.5-2.4-5.5-5.3v-6.3H229
		L229,202.4L229,202.4z M327.4,96.3c-6.6,17.6-16.7,33.7-29.9,47.8c-16.4,17.5-37.6,32-63.3,43.3H120.5
		c-25.6-11.2-46.9-25.8-63.3-43.3C44,130,33.9,113.9,27.3,96.3c-8.7-23.1-9.2-42.8-9-50.8h211.1h18.9h88.2
		C336.6,53.5,336.1,73.2,327.4,96.3z"/>
	<path class="st1" d="M239.6,156.2c-2.3,0.9-3.4,3.5-2.4,5.7c0.7,1.7,2.4,2.7,4.2,2.7c0.6,0,1.2-0.1,1.7-0.3
		c34-13.9,50.2-43.4,50.9-44.7c1.2-2.2,0.3-4.8-2-5.9c-2.2-1.1-4.9-0.3-6.1,1.9C285.8,115.8,270.6,143.6,239.6,156.2z"/>
</g>
</svg>
