<?xml version="1.0" encoding="utf-8"?>
<!-- Generator: Adobe Illustrator 19.2.1, SVG Export Plug-In . SVG Version: 6.00 Build 0)  -->
<svg version="1.1" id="Layer_1" xmlns="http://www.w3.org/2000/svg" xmlns:xlink="http://www.w3.org/1999/xlink" x="0px" y="0px"
	 viewBox="0 0 336 104" style="enable-background:new 0 0 336 104;" xml:space="preserve">
<style type="text/css">
	.st0{fill:#FFFFFF;}
</style>
<g>
	<path class="st0" d="M31.6,83.7c-3.7,0-7.3-1.5-10.3-4.6c-6.2-6.3-6.4-14.4-0.7-20.1l0,0c3.2-3.1,18.8-18.6,19-18.8
		c0.1-0.1,15.3-15.4,19.2-19.4c2.5-2.6,6.4-4.3,10.2-4.3c0.1,0,0.1,0,0.2,0c3.6,0,6.9,1.4,9.5,4c6.2,6.2,6.5,15,0.7,20.9
		c-4.8,4.9-35.5,35.7-38,38.1C38.6,82.3,35.1,83.7,31.6,83.7z M22,60.4c-4.9,4.9-4.6,11.9,0.7,17.3c5.7,5.8,13,4.6,17.3,0.4
		c2.6-2.5,33.2-33.2,38-38.1c4.3-4.4,5.4-12-0.7-18.1c-2.3-2.3-5.1-3.5-8.1-3.5c0,0-0.1,0-0.2,0c-3.3,0-6.7,1.5-8.8,3.7
		c-3.9,4-19.1,19.3-19.2,19.4C40.8,41.8,25.2,57.3,22,60.4z"/>
</g>
<g>
	<path class="st0" d="M68.5,83.7c-3.5,0-6.9-1.4-9.8-4.2c-2.8-2.7-33.2-33.2-38-38.2c-5-5.2-6.3-14.1,0.7-21c2.7-2.7,6.1-4.1,9.8-4
		c3.8,0.1,7.7,1.7,10.1,4.4c3.7,3.9,19,19.2,19.2,19.4l19,19c5.8,5.8,5.5,13.8-0.7,20.1C75.8,82.1,72.1,83.7,68.5,83.7z M31,18.3
		c-3,0-5.8,1.2-8.1,3.5C16.4,28,18,35.6,22.1,39.9c4.8,5,35.2,35.5,38,38.2c4.3,4.2,11.6,5.4,17.3-0.4c5.3-5.4,5.6-12.4,0.7-17.3
		l-19-19C58.9,41.3,43.6,26,39.9,22c-2.1-2.2-5.5-3.7-8.7-3.7C31.1,18.3,31,18.3,31,18.3z"/>
</g>
<g>
	<path class="st0" d="M50,84.5c-6,0-10.1-4.4-12.8-7.4c-0.5-0.5-0.9-0.9-1.3-1.3c-0.8-0.8-2.9-2.9-5.6-5.6c-4.2,2.9-13.2,5.8-19-0.1
		C8.3,67,6.6,63.1,6.6,59c0-3.5,1.3-6.7,3.6-8.9c0.1-0.1,0.1-0.1,0.2-0.2C5.9,44.7,5,36.3,11.6,29.7c2.7-2.7,5.9-4.1,9.4-4
		c3.3,0,6.9,1.4,9.4,3.6c2.4-2.3,7.1-6.8,9.2-9L40,20c2.3-2.2,4.9-4.7,10-4.6c4.7,0,7.5,2.7,10,5.1c0.5,0.5,1,0.9,1.4,1.4
		c1.9,1.8,5.1,4.8,7.7,7.4c0,0,0.1-0.1,0.1-0.1c3.5-3.4,11.6-5.4,18.5,0.6c2.8,2.4,4.4,5.7,4.6,9.6c0.2,4.5-1.4,8.8-3.1,10.6
		c0,0-0.1,0.1-0.1,0.1c4.3,4.8,6.7,12.4,0.1,19c-3.6,3.6-8,5.1-12.6,4.4c-3.3-0.5-6-2.1-7.6-3.2l-6.9,6.9c-0.5,0.5-1,1-1.5,1.5
		C58.2,81.4,55.3,84.5,50,84.5z M32,68.9c2.6,2.6,4.7,4.7,5.4,5.5c0.4,0.4,0.8,0.9,1.3,1.4c2.6,2.8,6.2,6.7,11.3,6.7
		c4.4,0,6.8-2.5,9.3-5.2c0.5-0.5,1-1.1,1.5-1.6l6.7-6.7C64.4,66,53,54.6,50,51.5C45.9,55.5,34.5,66.4,32,68.9z M70.5,68.8
		c3.9,2.8,11,5.1,17.3-1.1c6.8-6.8,2.2-13.6,0-16.2c-3.3,3.5-9.3,9.3-9.6,9.6L70.5,68.8z M11.7,51.4c0,0-0.1,0.1-0.1,0.1
		c-1.9,1.8-3,4.6-3,7.5c0,3.5,1.5,6.9,4.2,9.7c4.9,4.9,12.4,2.5,16.2,0.1C23.2,62.9,15.4,55.1,11.7,51.4z M51.5,50.2
		c3.1,3.1,14.5,14.6,17.5,17.4l7.8-7.8c0.1-0.1,6.2-6.2,9.6-9.6C83,46.6,72.9,35.8,72.5,35.3c0,0-1.4-1.4-3.2-3.2
		C64.4,37,51.7,50,51.5,50.2C51.5,50.1,51.5,50.1,51.5,50.2z M13.2,50c3.7,3.8,11.6,11.7,17.4,17.6c2.6-2.5,13.9-13.4,18-17.4
		c-2.9-2.8-14.1-13.8-18.2-18c0,0,0,0,0,0C30.3,32.2,18.6,44.5,13.2,50z M31.9,30.7C36,34.9,47.2,46,50,48.7c0,0,0.1-0.1,0.1-0.1
		c0.1-0.1,12.8-13,17.7-18c-2.6-2.6-5.8-5.6-7.7-7.4c-0.5-0.4-1-0.9-1.5-1.4c-2.4-2.3-4.7-4.5-8.6-4.5h0c-4.3-0.1-6.4,1.9-8.6,4.1
		l-0.3,0.3C38.9,23.9,34.3,28.4,31.9,30.7z M70.6,30.7c1.9,1.8,3.2,3.2,3.3,3.2C74,34,84.3,45.1,87.8,48.6c0,0,0,0,0,0
		c1.2-1.3,2.8-5,2.6-9.1c-0.1-2.3-0.9-5.7-3.9-8.2C79.9,25.6,73,28.4,70.6,30.7C70.7,30.6,70.7,30.7,70.6,30.7z M21,27.7
		c-2.9,0-5.7,1.2-7.9,3.5c-5.7,5.7-5,12.9-1.2,17.4C17.2,43,28.8,30.8,29,30.7c0,0,0,0,0,0C26.8,28.8,23.9,27.7,21,27.7
		C21,27.7,21,27.7,21,27.7z"/>
</g>
<g>
	<g>
		<polygon class="st0" points="124.5,57.5 127.5,57.5 127.5,51.5 127.5,48.5 127.5,45.5 127.5,45.5 124.5,45.5 124.5,45.5 
			124.5,48.5 124.5,51.5 		"/>
	</g>
	<g>
		<rect x="139.5" y="57.5" class="st0" width="3" height="3"/>
	</g>
	<g>
		<polygon class="st0" points="118.5,39.5 118.5,39.5 118.5,42.5 118.5,45.5 118.5,48.5 118.5,51.5 118.5,54.5 118.5,57.5 
			118.5,63.5 121.5,63.5 121.5,66.5 130.5,66.5 130.5,69.5 133.5,69.5 133.5,72.5 136.5,72.5 136.5,75.5 139.5,75.5 139.5,78.5 
			145.5,78.5 145.5,75.5 148.5,75.5 148.5,78.5 160.5,78.5 160.5,81.5 166.5,81.5 166.5,78.5 163.5,78.5 163.5,72.5 163.5,72.5 
			160.5,72.5 160.5,75.5 151.5,75.5 151.5,72.5 154.5,72.5 154.5,69.5 157.5,69.5 157.5,63.5 157.5,63.5 154.5,63.5 154.5,57.5 
			154.5,54.5 154.5,51.5 154.5,48.5 154.5,45.5 154.5,45.5 151.5,45.5 151.5,45.5 151.5,48.5 151.5,54.5 148.5,54.5 148.5,51.5 
			145.5,51.5 145.5,45.5 145.5,45.5 142.5,45.5 142.5,48.5 139.5,48.5 139.5,51.5 142.5,51.5 142.5,54.5 145.5,54.5 145.5,57.5 
			151.5,57.5 151.5,60.5 142.5,60.5 142.5,60.5 142.5,66.5 145.5,66.5 145.5,63.5 151.5,63.5 151.5,63.5 151.5,69.5 148.5,69.5 
			148.5,72.5 139.5,72.5 139.5,69.5 136.5,69.5 136.5,63.5 136.5,63.5 124.5,63.5 124.5,60.5 121.5,60.5 121.5,54.5 121.5,51.5 
			121.5,48.5 121.5,45.5 121.5,42.5 121.5,42.5 124.5,42.5 124.5,39.5 130.5,39.5 130.5,33.5 130.5,30.5 130.5,30.5 133.5,30.5 
			133.5,27.5 139.5,27.5 139.5,30.5 142.5,30.5 142.5,33.5 145.5,33.5 145.5,33.5 145.5,39.5 148.5,39.5 148.5,42.5 157.5,42.5 
			157.5,39.5 151.5,39.5 151.5,36.5 148.5,36.5 148.5,30.5 148.5,30.5 145.5,30.5 145.5,24.5 145.5,24.5 154.5,24.5 154.5,21.5 
			163.5,21.5 163.5,24.5 169.5,24.5 169.5,21.5 178.5,21.5 178.5,18.5 151.5,18.5 151.5,21.5 142.5,21.5 142.5,24.5 130.5,24.5 
			130.5,27.5 127.5,27.5 127.5,27.5 127.5,33.5 124.5,33.5 124.5,36.5 121.5,36.5 121.5,39.5 		"/>
	</g>
	<g>
		<polygon class="st0" points="157.5,33.5 157.5,39.5 163.5,39.5 163.5,39.5 163.5,42.5 163.5,48.5 166.5,48.5 166.5,42.5 
			166.5,39.5 166.5,36.5 166.5,36.5 160.5,36.5 160.5,30.5 160.5,27.5 160.5,27.5 154.5,27.5 154.5,30.5 157.5,30.5 157.5,30.5 		
			"/>
	</g>
	<g>
		<polygon class="st0" points="139.5,48.5 139.5,45.5 136.5,45.5 136.5,39.5 136.5,39.5 139.5,39.5 139.5,33.5 139.5,33.5 
			136.5,33.5 136.5,36.5 133.5,36.5 133.5,36.5 133.5,39.5 133.5,42.5 133.5,45.5 133.5,51.5 130.5,51.5 130.5,54.5 136.5,54.5 
			136.5,48.5 		"/>
	</g>
	<g>
		<rect x="163.5" y="69.5" class="st0" width="6" height="3"/>
	</g>
	<g>
		<polygon class="st0" points="187.5,42.5 187.5,42.5 184.5,42.5 184.5,42.5 184.5,48.5 187.5,48.5 		"/>
	</g>
	<g>
		<polygon class="st0" points="157.5,60.5 157.5,63.5 166.5,63.5 166.5,60.5 163.5,60.5 163.5,54.5 163.5,51.5 163.5,48.5 
			163.5,48.5 160.5,48.5 160.5,48.5 160.5,51.5 160.5,54.5 160.5,60.5 		"/>
	</g>
	<g>
		<polygon class="st0" points="169.5,66.5 187.5,66.5 187.5,63.5 175.5,63.5 175.5,60.5 172.5,60.5 172.5,57.5 175.5,57.5 
			175.5,54.5 169.5,54.5 169.5,54.5 169.5,57.5 169.5,60.5 		"/>
	</g>
	<g>
		<rect x="136.5" y="54.5" class="st0" width="3" height="3"/>
	</g>
	<g>
		<polygon class="st0" points="175.5,72.5 175.5,75.5 178.5,75.5 178.5,78.5 181.5,78.5 181.5,72.5 		"/>
	</g>
	<g>
		<rect x="196.5" y="81.5" class="st0" width="3" height="3"/>
	</g>
	<g>
		<polygon class="st0" points="175.5,81.5 166.5,81.5 166.5,84.5 172.5,84.5 172.5,87.5 196.5,87.5 196.5,84.5 190.5,84.5 
			190.5,78.5 190.5,75.5 190.5,75.5 193.5,75.5 193.5,69.5 193.5,69.5 190.5,69.5 190.5,72.5 187.5,72.5 187.5,72.5 187.5,75.5 
			187.5,81.5 184.5,81.5 184.5,84.5 175.5,84.5 		"/>
	</g>
	<g>
		<polygon class="st0" points="178.5,39.5 178.5,36.5 172.5,36.5 172.5,36.5 172.5,39.5 172.5,45.5 175.5,45.5 175.5,39.5 		"/>
	</g>
	<g>
		<polygon class="st0" points="175.5,51.5 175.5,54.5 181.5,54.5 181.5,57.5 187.5,57.5 187.5,51.5 187.5,51.5 		"/>
	</g>
	<g>
		<polygon class="st0" points="190.5,36.5 187.5,36.5 187.5,36.5 187.5,42.5 190.5,42.5 190.5,42.5 190.5,48.5 193.5,48.5 
			193.5,48.5 193.5,51.5 193.5,57.5 190.5,57.5 190.5,60.5 193.5,60.5 193.5,60.5 193.5,63.5 193.5,69.5 202.5,69.5 202.5,63.5 
			202.5,63.5 199.5,63.5 199.5,66.5 196.5,66.5 196.5,60.5 196.5,57.5 196.5,54.5 196.5,51.5 196.5,48.5 196.5,48.5 199.5,48.5 
			199.5,42.5 199.5,42.5 196.5,42.5 196.5,45.5 193.5,45.5 193.5,39.5 193.5,39.5 190.5,39.5 		"/>
	</g>
	<g>
		<polygon class="st0" points="199.5,78.5 199.5,81.5 202.5,81.5 202.5,78.5 205.5,78.5 205.5,75.5 208.5,75.5 208.5,72.5 
			211.5,72.5 211.5,66.5 211.5,63.5 211.5,60.5 211.5,57.5 211.5,54.5 211.5,54.5 208.5,54.5 208.5,48.5 208.5,45.5 208.5,42.5 
			208.5,42.5 205.5,42.5 205.5,36.5 205.5,36.5 202.5,36.5 202.5,33.5 199.5,33.5 199.5,30.5 196.5,30.5 196.5,27.5 193.5,27.5 
			193.5,24.5 187.5,24.5 187.5,27.5 190.5,27.5 190.5,30.5 193.5,30.5 193.5,33.5 196.5,33.5 196.5,36.5 199.5,36.5 199.5,39.5 
			202.5,39.5 202.5,39.5 202.5,45.5 205.5,45.5 205.5,45.5 205.5,51.5 199.5,51.5 199.5,51.5 199.5,57.5 202.5,57.5 202.5,54.5 
			205.5,54.5 205.5,57.5 208.5,57.5 208.5,57.5 208.5,60.5 208.5,63.5 208.5,69.5 205.5,69.5 205.5,72.5 202.5,72.5 202.5,75.5 
			196.5,75.5 196.5,78.5 		"/>
	</g>
	<g>
		<polygon class="st0" points="175.5,24.5 169.5,24.5 169.5,24.5 169.5,30.5 172.5,30.5 172.5,27.5 175.5,27.5 		"/>
	</g>
	<g>
		<polygon class="st0" points="181.5,27.5 175.5,27.5 175.5,30.5 178.5,30.5 178.5,33.5 184.5,33.5 184.5,36.5 187.5,36.5 
			187.5,30.5 187.5,27.5 187.5,27.5 184.5,27.5 184.5,30.5 181.5,30.5 		"/>
	</g>
	<g>
		<rect x="178.5" y="21.5" class="st0" width="9" height="3"/>
	</g>
</g>
<g transform="translate(0,-952.36216)">
	<g>
		<path class="st0" d="M291.5,971.6c-0.5,0-1,0.3-1.2,0.7l-16.7,0.6c-0.3-0.3-0.6-0.5-1-0.5c-0.6,0-1.1,0.3-1.3,0.9l-21.8,10
			c-0.2-0.1-0.3-0.1-0.5-0.1c-0.7,0-1.3,0.6-1.4,1.3l-6.2,6.6l-1.2,1.2c-0.1,0-0.2,0-0.3,0c-0.8,0-1.4,0.6-1.4,1.4v0
			c0,0.4,0.2,0.7,0.4,1l-3.3,11.8c-0.4,0.2-0.7,0.7-0.7,1.2c0,0.7,0.5,1.2,1.1,1.3l5,12c-0.2,0.2-0.3,0.5-0.3,0.9
			c0,0.8,0.6,1.4,1.4,1.4c0,0,0,0,0,0c0.4,0,0.8-0.2,1.1-0.5l11.7,2.7c0.1,0.7,0.7,1.2,1.4,1.2c0.4,0,0.8-0.2,1.1-0.6l8.5,2.3
			c0.2,0.5,0.7,0.8,1.2,0.8c0.8,0,1.4-0.6,1.4-1.4c0,0,0-0.1,0-0.1l3.8-3.3c0.2,0.1,0.4,0.2,0.6,0.2c0.4,0,0.9-0.2,1.1-0.6l4.6,1.5
			c0.2,0.6,0.7,1,1.3,1c0.1,0,0.2,0,0.3,0l8.9,9.2c0,0.1,0,0.2,0,0.2c0,0.8,0.6,1.4,1.4,1.4c0.1,0,0.2,0,0.3,0l4.3,3.7
			c0,0.1,0,0.2,0,0.3c0,0.8,0.6,1.4,1.4,1.4c0.7,0,1.3-0.6,1.4-1.3l3.9-0.8c0.3,0.3,0.7,0.5,1.1,0.5c0.8,0,1.4-0.6,1.4-1.4
			c0,0,0,0,0,0c0-0.8-0.6-1.4-1.4-1.4c-0.2,0-0.3,0-0.5,0.1l-2.4-5.1c0.1-0.2,0.2-0.5,0.2-0.8c0-0.1,0-0.2,0-0.3l1.5-2.3
			c0.1,0,0.3,0.1,0.4,0.1c0.5,0,0.9-0.2,1.1-0.6l5,0.4c0.2,0.5,0.7,0.8,1.3,0.8c0.8,0,1.4-0.6,1.4-1.4c0,0,0-0.1,0-0.1l2.8-4.4
			c0.3-0.1,0.6-0.2,0.8-0.4h2.6c0.2,0.5,0.7,0.8,1.3,0.8c0.8,0,1.4-0.6,1.4-1.4c0-0.4-0.2-0.8-0.5-1l4.8-7.2
			c0.7-0.1,1.2-0.7,1.2-1.4c0-0.6-0.4-1.2-1-1.3l-1.4-8.9c0.4-0.2,0.7-0.7,0.7-1.2c0-0.8-0.6-1.4-1.4-1.4c-0.1,0-0.1,0-0.2,0
			l-9.1-15.9c0.1-0.2,0.2-0.5,0.2-0.7c0-0.8-0.6-1.4-1.4-1.4c-0.2,0-0.5,0.1-0.7,0.2l-18-10.9C292.7,972.1,292.2,971.6,291.5,971.6
			L291.5,971.6z M290.2,973.3c0.1,0.5,0.6,0.9,1.2,1l2.1,9.1L274,974c0,0,0-0.1,0-0.1L290.2,973.3L290.2,973.3z M292.7,973.8
			l16.7,10.2l-13.6,0.1c-0.2-0.5-0.7-0.8-1.2-0.8c-0.1,0-0.1,0-0.2,0l-2.1-9.2C292.5,974,292.6,973.9,292.7,973.8L292.7,973.8z
			 M271.4,974.5c0.1,0.2,0.2,0.3,0.3,0.4l-7.1,11c-0.1,0-0.3-0.1-0.4-0.1c-0.5,0-1,0.3-1.2,0.7l-12.5-2.2c0-0.1,0-0.1-0.1-0.2
			L271.4,974.5L271.4,974.5z M273.5,974.9l18.2,8.8l-14.6,1.6C277.1,985.4,273.5,974.9,273.5,974.9z M272.6,975.4l3.5,10.1
			l-10.6,1.2c0,0,0-0.1,0-0.1L272.6,975.4L272.6,975.4z M293,984.7l-13.1,7.9c-0.1-0.1-0.2-0.1-0.4-0.2l-2.1-6
			C277.5,986.4,293,984.7,293,984.7z M310.2,984.9c0,0.3,0.1,0.5,0.3,0.7l-2.8,7.3l-11.8-7.9c0,0,0,0,0,0L310.2,984.9L310.2,984.9z
			 M250.2,985.4l12.6,2.2c0,0.1,0.1,0.3,0.2,0.4l-10.2,10.5c0,0-0.1,0-0.1,0c-0.1,0-0.2,0-0.3,0c-0.1-0.4-0.1-0.8-0.2-1.3
			c-0.3-1.5-0.7-3.5-1.1-5.4c-0.5-2.5-1-4.6-1.2-6.1C250,985.6,250.2,985.5,250.2,985.4L250.2,985.4z M293.3,985.7l-6.1,18.6
			c-0.1,0-0.3,0.1-0.4,0.2l-6.6-9.8c0.2-0.3,0.4-0.6,0.4-1c0-0.1,0-0.2,0-0.3L293.3,985.7L293.3,985.7z M295.3,985.9l12.1,8
			l-3.6,9.5c0,0,0,0,0,0c-0.2,0-0.3,0-0.5,0.1L295.3,985.9C295.2,985.9,295.3,985.9,295.3,985.9L295.3,985.9z M248.6,985.9
			c0.1,0,0.2,0.1,0.3,0.1c0.3,1.5,0.7,3.5,1.2,6c0.4,1.9,0.8,3.9,1.1,5.4c0.1,0.4,0.1,0.7,0.2,1.1l-10.1-5c0-0.1-0.1-0.3-0.2-0.4
			l1.1-1.1L248.6,985.9L248.6,985.9z M311.9,986.1l8.8,15.4l-12.1-8l2.8-7.4c0,0,0.1,0,0.1,0C311.7,986.1,311.8,986.1,311.9,986.1
			L311.9,986.1z M294.2,986.2l8.2,18.1l-13.6,0.9c-0.1-0.3-0.3-0.5-0.6-0.7L294.2,986.2z M276.4,986.5l2.1,6
			c-0.2,0.1-0.3,0.2-0.4,0.3l-12.2-5.2L276.4,986.5z M264.9,988.4l12.8,5.5l-7.2,4c-0.2-0.2-0.6-0.3-0.9-0.3c0,0-0.1,0-0.1,0
			L264.9,988.4C264.9,988.4,264.9,988.4,264.9,988.4L264.9,988.4z M263.9,988.6l4.8,9.3c-0.2,0.3-0.4,0.6-0.4,0.9
			c0,0.3,0.1,0.6,0.3,0.8l-6.7,10.7c0,0-0.1,0-0.1,0c-0.2,0-0.4,0-0.5,0.1l-7.5-9.7c0.2-0.3,0.3-0.6,0.3-0.9c0-0.3-0.1-0.6-0.3-0.9
			L263.9,988.6L263.9,988.6z M308.2,994.5l12.3,8.2l-15.8,1L308.2,994.5z M241.1,994.5l9.9,4.9l-13.7,7.2c-0.1-0.1-0.3-0.2-0.4-0.2
			l3.2-11.3C240.5,995.1,240.9,994.9,241.1,994.5L241.1,994.5z M278.2,994.7c0.3,0.2,0.6,0.4,0.9,0.4c0,0,0,0,0,0l7,10.3
			c0,0.1,0,0.2,0,0.3c0,0.1,0,0.2,0,0.3l-4.7,7.1c-0.1,0-0.2,0-0.3,0l-10.3-13.5c0.1-0.2,0.2-0.5,0.2-0.7c0-0.1,0-0.1,0-0.2
			L278.2,994.7L278.2,994.7z M270,1000.2l10.3,13.5c0,0,0,0,0,0l-17.1-2.4c-0.1-0.2-0.2-0.4-0.3-0.6l6.6-10.6c0.1,0,0.1,0,0.2,0
			C269.8,1000.3,269.9,1000.2,270,1000.2L270,1000.2z M251.4,1000.3l-5,10.9c-0.2,0.1-0.4,0.2-0.6,0.3l-8-4c0,0,0-0.1,0-0.1
			C237.8,1007.5,251.4,1000.3,251.4,1000.3z M252.1,1001.3l2.5,17l-6.7-5c0.1-0.2,0.1-0.4,0.1-0.6c0-0.5-0.2-0.9-0.7-1.2
			C247.5,1011.5,252.1,1001.3,252.1,1001.3z M253.2,1001.7l7.4,9.5c-0.1,0.2-0.1,0.4-0.1,0.5c0,0.7,0.5,1.3,1.2,1.4l4.7,13.6
			c-0.1,0.1-0.2,0.2-0.3,0.3l-10.3-7.8L253.2,1001.7L253.2,1001.7z M320.8,1003.7l-3,7.6l-12.8-6.4c0,0,0-0.1,0-0.1c0,0,0-0.1,0-0.1
			L320.8,1003.7L320.8,1003.7z M321.7,1004.4l1.3,8.7c-0.2,0.1-0.4,0.3-0.5,0.5l-3.7-1.9L321.7,1004.4L321.7,1004.4z M302.3,1005.3
			l-1.8,11.7l-11.7-10.8c0,0,0,0,0,0L302.3,1005.3L302.3,1005.3z M303.2,1006c0.2,0.1,0.3,0.1,0.5,0.1c0.1,0,0.3,0,0.4-0.1l7.5,9.9
			l-9.7,1.6c-0.1-0.1-0.3-0.2-0.4-0.3L303.2,1006L303.2,1006z M305.5,1006.2l12,6l-1.2,3l-3.5,0.6L305.5,1006.2z M288,1006.9
			l11.8,10.8c-0.2,0.2-0.2,0.5-0.2,0.8c0,0,0,0,0,0l-9.4,5.7c-0.2-0.1-0.4-0.3-0.6-0.3l-1.9-16.9
			C287.8,1007,287.9,1006.9,288,1006.9L288,1006.9z M286.7,1007.1l1.8,16.5l-5.8-8.4c0.1-0.2,0.2-0.5,0.2-0.7c0-0.4-0.1-0.7-0.4-1
			L286.7,1007.1z M237.5,1008.6l7.9,3.9c0,0,0,0,0,0.1c0,0.3,0.1,0.6,0.3,0.9l-3.6,7.1c0,0-0.1,0-0.1,0l-4.8-11.7
			C237.3,1008.8,237.4,1008.7,237.5,1008.6L237.5,1008.6z M263.1,1012.4l16.9,2.4l-6.6,7.1c-0.2-0.1-0.3-0.1-0.5-0.1
			c-0.3,0-0.7,0.1-0.9,0.3L263.1,1012.4C263,1012.4,263.1,1012.4,263.1,1012.4L263.1,1012.4z M318.4,1012.7l3.4,1.7l-4.3,0.7
			C317.5,1015,318.4,1012.7,318.4,1012.7z M263,1013.9l8.5,9.3c0,0,0,0,0,0c0,0.1,0,0.3,0.1,0.4l-3.6,3.2c-0.2-0.1-0.4-0.2-0.6-0.3
			L263,1013.9L263,1013.9z M247.2,1013.9l7.7,5.8l0.7,4.4c-0.1,0.1-0.2,0.2-0.3,0.3l-11.6-2.7c0-0.3-0.2-0.6-0.5-0.9l3.5-6.9
			c0,0,0.1,0,0.1,0C246.9,1014,247.1,1014,247.2,1013.9L247.2,1013.9z M322.8,1015.2C322.8,1015.2,322.8,1015.3,322.8,1015.2
			l-4.7,7.2c-0.1,0-0.2,0-0.3,0.1l-2.1-2.8l1.4-3.5L322.8,1015.2L322.8,1015.2z M280.6,1015.7l-1.3,8.2c-0.2,0.1-0.4,0.3-0.5,0.5
			l-4.4-1.5c0-0.1-0.1-0.3-0.1-0.4L280.6,1015.7L280.6,1015.7z M281.8,1015.8l6.1,8.8l-6.7,0.2c-0.1-0.5-0.5-0.9-0.9-1l1.3-8
			C281.7,1015.8,281.7,1015.8,281.8,1015.8L281.8,1015.8z M315.8,1016.3l-0.9,2.3l-1.5-2L315.8,1016.3z M312.3,1016.9l2.2,2.9
			l-0.9,2.3c-0.1,0-0.2,0-0.3,0c-0.4,0-0.8,0.2-1,0.5l-9.1-4.2L312.3,1016.9L312.3,1016.9z M302.5,1019.2l9.4,4.3
			c0,0.4,0.2,0.8,0.5,1l-2.3,3.7c-0.2-0.2-0.5-0.2-0.8-0.2c-0.1,0-0.1,0-0.2,0L302.5,1019.2L302.5,1019.2z M299.9,1019.5
			c0.2,0.2,0.4,0.3,0.6,0.3l0.7,7.7c-0.4,0.3-0.6,0.7-0.6,1.1c0,0.2,0.1,0.4,0.2,0.6l-1.4,2.1c-0.2-0.1-0.4-0.2-0.7-0.2
			c-0.3,0-0.5,0.1-0.8,0.2l-7.4-5.8c0.1-0.1,0.1-0.3,0.1-0.5c0,0,0-0.1,0-0.1L299.9,1019.5L299.9,1019.5z M301.6,1019.7l6.7,8.8
			c-0.1,0.1-0.1,0.2-0.2,0.3l-4.7-0.4c-0.1-0.6-0.6-1-1.1-1.1L301.6,1019.7C301.5,1019.7,301.5,1019.7,301.6,1019.7L301.6,1019.7z
			 M256,1020.6l8.3,6.3l-6.7-1.9c-0.1-0.6-0.6-1.1-1.2-1.2C256.5,1023.9,256,1020.6,256,1020.6z M315.2,1020.8l1.8,2.4
			c0,0.1-0.1,0.1-0.1,0.2h-2.3c0-0.2-0.1-0.4-0.2-0.6L315.2,1020.8L315.2,1020.8z M287.9,1025.6c0.1,0.5,0.6,0.9,1.1,1l0.5,8.1
			l-8.5-8.8c0,0,0,0,0,0L287.9,1025.6L287.9,1025.6z M290.1,1026.7l7.3,5.7c0,0.1,0,0.2,0,0.3c0,0,0,0.1,0,0.1l-5.8,2.3
			c-0.2-0.3-0.5-0.4-0.9-0.5L290.1,1026.7L290.1,1026.7z M297.8,1033.7c0.1,0,0.1,0.1,0.2,0.1l-0.9,2.5c-0.4,0-0.8,0.2-1,0.6
			l-4.1-0.8c0,0,0-0.1,0-0.1L297.8,1033.7L297.8,1033.7z M298.9,1034l2.1,4.5l-2.7-1c0-0.4-0.2-0.7-0.5-0.9L298.9,1034
			C298.9,1034,298.9,1034,298.9,1034L298.9,1034z M292.2,1037.2l3.5,0.6c0.1,0.4,0.2,0.7,0.5,0.9l-0.2,1.2c-0.2,0-0.3,0.1-0.5,0.2
			L292.2,1037.2L292.2,1037.2z M298.1,1038.5l3,1.1l-3.8,0.8c-0.1-0.1-0.2-0.2-0.3-0.2l0.2-1.2
			C297.6,1039,297.9,1038.8,298.1,1038.5L298.1,1038.5z"/>
	</g>
</g>
</svg>
