<?xml version="1.0" encoding="utf-8"?>
<!-- Generator: Adobe Illustrator 19.2.1, SVG Export Plug-In . SVG Version: 6.00 Build 0)  -->
<svg version="1.1" id="Layer_1" xmlns="http://www.w3.org/2000/svg" xmlns:xlink="http://www.w3.org/1999/xlink" x="0px" y="0px"
	 viewBox="0 0 95.5 65" style="enable-background:new 0 0 95.5 65;" xml:space="preserve">
<style type="text/css">
	.st0{display:none;}
	.st1{display:inline;}
	.st2{display:inline;fill:none;}
	.st3{display:inline;fill:none;stroke:#000000;stroke-miterlimit:10;}
	.st4{fill:#FFFFFF;}
</style>
<g class="st0">
	<g class="st1">
		<path d="M35.4,146.1c-1.1,0-2-0.9-2-2c0,0,1-16,2.1-16c1.1,0,1.9,16,1.9,16C37.4,144.9,37,146.1,35.4,146.1z"/>
	</g>
	<path class="st1" d="M41.9,120.8c1.6-1.6,2.6-3.9,2.6-6.3c0-4.9-4-9-9-9c-4.9,0-9,4-9,9c0,2.5,1,4.7,2.6,6.3
		c-3.4,0.9-6.5,2.6-9.1,4.7l-1.9-2l1.4-1.4c0.8-0.8,0.8-2,0-2.8c-0.8-0.8-2-0.8-2.8,0l-5.8,5.6c-0.8,0.8-0.9,2.1,0,2.8
		c1,0.9,2.4,0.4,2.8,0l1.4-1.4l1.9,2c-3.6,4.2-5.9,9.7-5.9,15.7c0,13.3,10.8,24.1,24.1,24.1c13.3,0,24.1-10.8,24.1-24.1
		C59.7,133,52.1,123.6,41.9,120.8z M28.6,114.5c0-3.8,3.1-7,7-7s7,3.1,7,7c0,2.4-1.2,4.5-3.1,5.8c-0.6-0.1-1.2-0.2-1.9-0.2v-2.7h2
		c1.1,0,2-0.9,2-2s-0.9-2-2-2h-8c-1.1,0-2,0.9-2,2s0.9,2,2,2h2v2.7c-0.6,0.1-1.3,0.1-1.9,0.2C29.8,119,28.6,116.9,28.6,114.5z
		 M35.5,164.2c-11.1,0-20.1-9-20.1-20.1s9-20.1,20.1-20.1s20.1,9,20.1,20.1C55.7,155.2,46.6,164.2,35.5,164.2z"/>
</g>
<g class="st0">
	<path class="st1" d="M59.5,120c-0.8-0.9-1.7-1.3-2.6-1.3c-0.4,0-0.9,0.1-1.2,0.3c0.1-0.5,0.1-1-0.1-1.6c-0.4-1-1.3-1.7-2.7-2.1
		c-1-0.3-1.9,0-2.5,0.7c-1.4,1.5-1.2,5-1.2,5.9c-1,1.1-6.5,7.5-6.8,7.8c-0.2,0.3-0.5,0.8-0.3,1.3c0.2,0.4,0.7,0.6,1.3,0.2
		c2.5-1.3,3.3-1.5,3.4-1.5c0.1,0.1,0.3,0.6,0.2,2.4c-0.1,0.7-0.1,0.9,0.1,1.1c0.1,0.1,0.2,0.1,0.3,0.1c0,0,0.1,0,0.1,0
		c0.7,0,2.4-1,3.1-1.5c0.1,0,0.1-0.1,0.1-0.1l4.2-5.8c0.2,0,0.3,0,0.5,0c2,0,3.7-1.5,4.4-3.1C60.2,121.8,60.1,120.7,59.5,120z"/>
	<path class="st1" d="M51,137.7c-0.1-0.2-0.3-0.4-0.5-0.4c0,0-1.6,0.2-2.7,0.2c-0.1,0-0.2,0-0.3,0c0.5-0.7,1.6-2.2,2.7-3.5
		c0.1-0.2,0.2-0.4,0-0.6c-0.1-0.2-0.4-0.3-0.6-0.2c-0.6,0.2-2.4,0.9-3.2,0.9c-0.1-1-0.3-3.1-0.3-3.1c0-0.2-0.1-0.3-0.3-0.4
		c-0.2-0.1-0.4-0.1-0.5,0c-1,0.7-2.7,1.7-3.3,1.7c-0.3-0.2-1.1-2-1.5-3.5c-0.1-0.2-0.3-0.4-0.5-0.4c-0.2,0-0.4,0.2-0.5,0.4
		c-0.2,1-0.7,2.7-1.3,3.1l-0.2,0.2c-7.2,4.5-13.4,7.3-17.4,8.9c-8.8,3.5-8.7,17.3-7.4,21c1.1,3.4,4.1,5.2,8.3,5.2
		c4.2,0,9-1.9,13.1-5c4.7-3.6,8.3-10.9,10.5-21c0.1-0.3,0.1-0.4,0.1-0.4c0,0,0,0,0,0c0.3-0.4,3.1-1.7,5.6-2.6
		C50.9,138.2,51.1,138,51,137.7z"/>
</g>
<g class="st0">
	<path class="st1" d="M59.9,118.3c0.9,2,0.2,8.3-1,12.1c-1,3.5-2.7,6.9-5.1,9.6c-2.2,2.4-4.9,4.2-7.9,5.3c-3.1,1.1-6.3,1.6-9.6,1.5
		c-0.1-1.1-0.2-2.1-0.3-3.2c3.7-0.3,7.4-1.1,10.6-3.1c3-1.9,5.3-4.6,6.8-7.9c1-2.1,1.6-4.5,2.1-6.8c0.4-2.4,0.6-4.5,1.3-7.5h-2.2
		c0.6,3,0.5,4.2,0.2,6.2c-0.3,1.9-0.8,3.9-1.4,5.7c-1.3,3.4-3.5,6.5-6.6,8.5c-3.2,2.1-7.1,2.9-10.9,2.7c0-0.5-0.1-2.5-0.1-2.6
		c0-0.3,0-0.2,0.2-0.3c0.9-0.1,1.9-0.2,2.8-0.4c1.8-0.4,3.5-1,5.1-2c3.2-2.1,5-5.5,5.8-9.1c0.3-1.4,0.5-3,0.7-4.4
		c0.1-1.4,0.3-2.3,0.8-4.3h-2.2c0.7,2,0.5,4.2,0.2,6.1c-0.3,1.8-0.8,3.8-1.6,5.5c-0.7,1.5-1.8,3-3.1,4.1c-1.4,1.1-3,1.8-4.7,2.2
		c-1.3,0.3-2.7,0.4-4,0.3c0-1,0-2.4,0-3.4c0,0,2-0.1,2.5-0.2c1.8-0.5,3.4-1.4,4.5-3c1.1-1.6,1.5-3.5,1.7-5.3c0.1-1,0.2-2.2,0.2-3.1
		c0-1,0.2-2.1,0.7-3.1h-2.2c0.8,2,0.6,3.1,0.5,4.6c-0.1,1.5-0.4,3.1-0.9,4.5c-0.5,1.3-1.4,2.4-2.7,3c-1.3,0.6-2.7,0.8-4.1,0.7
		c0-1.4,0-2.9,0-4.3c0-1.5,0-3.1,0-4.7c0-1.4,0.5-2.8,1.4-3.8h-3.9c0.6,1,1,1.5,1.2,2.4c0.2,0.7,0.2,1.6,0.2,2.3c0,0.5,0,1,0,1.5
		c0,1.9,0,3.8,0,5.7c0,0.3,0,0.6,0,1c-1.4,0.1-2.8-0.1-4.1-0.7c-1.2-0.6-2.1-1.7-2.6-3c-0.5-1.4-0.8-3.1-0.9-4.5
		c-0.1-1.5-0.3-2.6,0.5-4.6h-2.2c0.5,1,0.6,2,0.7,2.9c0,1,0.1,2,0.2,3c0.2,1.9,0.6,3.8,1.6,5.4c1,1.5,2.5,2.5,4.2,3
		c0.4,0.1,2.5,0.5,2.5,0.3s0,2.4,0,3.4c-3.6,0.1-7.3-0.9-9.8-3.6c-2.5-2.7-3.4-6.9-3.7-10.5c-0.1-1.3,0-2,0.5-4h-2.2
		c0.7,2,0.7,4.2,1,6.1c0.3,1.9,0.7,3.9,1.5,5.6c0.7,1.7,1.7,3.3,3.1,4.6c1.3,1.3,3,2.2,4.7,2.9c1.2,0.4,2.4,0.7,3.7,0.9
		c0.3,0,0.6,0.1,0.9,0.1c0.2,0,0.2,0,0.2,0.3c0,0.2-0.1,2-0.1,2.7c-3.8,0.1-7.7-0.7-10.9-2.9c-3-2.1-5.1-5.2-6.4-8.6
		c-0.6-1.7-1.1-3.8-1.3-5.6c-0.3-1.9-0.4-4.1,0.2-6.1h-2.2c0.6,3,0.7,4.2,1,6.2c0.3,1.9,0.7,3.9,1.4,5.8c1.2,3.4,3.1,6.6,5.9,8.9
		c2,1.7,4.4,2.9,6.9,3.6c1.4,0.4,2.8,0.7,4.2,0.8c0.3,0,0.7,0.1,1,0.1c0,0.4-0.2,2.5-0.3,3.2c-3.8,0-7.6-0.6-11.1-2.2
		c-3.4-1.6-6.3-4.1-8.3-7.3c-1.7-2.6-2.8-5.7-3.5-8.7c-0.8-3.3-1.3-6.3-0.5-10.3H8.5c0.5,3,0.7,4.3,1,6.3c0.3,2,0.6,4.1,1.2,6
		c1,3.5,2.6,6.9,4.9,9.8c2.2,2.6,4.9,4.7,8,6.1c3.2,1.4,6.7,2.2,10.2,2.4c-0.1,0.9-0.5,4.5-1,5.1c-0.6,0.7-1.5,0.7-2.3,1
		c-0.8,0.3-1.5,0.3-2.3,0.3h14c-0.8,0-1.5,0-2.3-0.2c-0.8-0.3-1.7-0.5-2.3-1.2c-0.5-0.6-0.9-4.1-1-5.1c3.9-0.3,7.7-1,11.2-2.7
		c3.4-1.7,6.3-4.1,8.4-7.2c1.9-2.7,3.2-6.1,4-9.3c0.9-3.6,1.1-7.3,1.9-11.3L59.9,118.3C60.3,120.3,59.9,118.3,59.9,118.3
		C60.3,120.3,59.9,118.3,59.9,118.3z"/>
</g>
<g class="st0">
	<path class="st1" d="M47.6,147.5l-0.1-0.2h7.7l-9.5-14h4.5l-13.9-20.3l1.3,0.9l-0.4-2.4l1.7-1.7l-2.4-0.3l-1.1-2.2l-1.1,2.3
		l-2.4,0.4l1.7,1.8l-0.4,2.5l0.9-0.9l-13.8,20.1h4.5l-9.5,14H23l-0.1,0.2l-12.3,12.8h20.9v7h6v-7h22.4L47.6,147.5z M50,142.6
		c0.7,0,1.2,0.5,1.2,1.2c0,0.7-0.5,1.2-1.2,1.2s-1.2-0.5-1.2-1.2C48.8,143.1,49.3,142.6,50,142.6z M18,158.3c-0.7,0-1.2-0.5-1.2-1.2
		c0-0.7,0.5-1.2,1.2-1.2s1.2,0.5,1.2,1.2C19.3,157.7,18.7,158.3,18,158.3z M23.2,144.3c-0.6,0-1.2-0.5-1.2-1.2
		c0-0.6,0.5-1.2,1.2-1.2c0.6,0,1.2,0.5,1.2,1.2C24.4,143.8,23.9,144.3,23.2,144.3z M31.2,122.1c0.7,0,1.3,0.6,1.3,1.3
		s-0.6,1.3-1.3,1.3s-1.3-0.6-1.3-1.3S30.4,122.1,31.2,122.1z M30.6,156.6c-0.9,0-1.6-0.7-1.6-1.6s0.7-1.6,1.6-1.6
		c0.9,0,1.6,0.7,1.6,1.6S31.5,156.6,30.6,156.6z M32.2,134.5c-0.6,0-1-0.5-1-1c0-0.6,0.5-1,1-1c0.6,0,1,0.5,1,1
		C33.2,134.1,32.7,134.5,32.2,134.5z M33.7,113.6l0.3-2l-1.4-1.4l1.9-0.3l0.8-1.8l0.8,1.8l1.9,0.3l-1.4,1.4l0.3,2l-1.7-0.9
		L33.7,113.6z M36.9,139.4c-0.6,0-1-0.5-1-1c0-0.6,0.5-1,1-1c0.6,0,1,0.5,1,1C38,138.9,37.5,139.4,36.9,139.4z M37.8,122.1
		c-0.7,0-1.3-0.6-1.3-1.3c0-0.7,0.6-1.3,1.3-1.3c0.7,0,1.3,0.6,1.3,1.3C39.1,121.6,38.5,122.1,37.8,122.1z M41.9,151.1
		c-0.9,0-1.7-0.7-1.7-1.7c0-0.9,0.7-1.7,1.7-1.7s1.7,0.7,1.7,1.7C43.6,150.4,42.8,151.1,41.9,151.1z M43.6,130.8
		c-0.8,0-1.5-0.6-1.5-1.5s0.6-1.5,1.5-1.5s1.5,0.6,1.5,1.5C45,130.1,44.4,130.8,43.6,130.8z M48.8,157.3c-0.7,0-1.2-0.5-1.2-1.2
		c0-0.7,0.5-1.2,1.2-1.2c0.7,0,1.2,0.5,1.2,1.2C50,156.8,49.5,157.3,48.8,157.3z"/>
</g>
<g class="st0">
	<rect x="31.5" y="162.3" class="st1" width="6" height="9"/>
	<g class="st1">
		<path d="M47.8,149.3c-0.2-0.4-0.1-1,0.4-1h4.5c0.5,0,0.7-0.1,0.4-0.5l-8.9-15c-0.2-0.4,0-0.5,0.4-0.5H47c0.5,0,0.7-0.4,0.4-0.8
			l-5.7-9.6c-0.2-0.4-0.6-1.1-0.9-1.5l-3.4-5.8c-0.2-0.4-0.8-0.9-1.2-1.1l-0.7-0.4c-0.4-0.2-1.1-0.2-1.5,0l-0.9,0.5
			c-0.4,0.2-0.9,0.7-1.2,1.1l-3.4,5.7c-0.2,0.4-0.6,1.1-0.9,1.5l-5.7,9.7c-0.2,0.4-0.1,0.8,0.4,0.8h2.3c0.5,0,0.7,0.2,0.4,0.7
			l-8.9,14.9c-0.2,0.4,0,0.5,0.4,0.5h4.5c0.5,0,0.7,0.6,0.4,1l-9.1,15.2c-0.2,0.4-0.1,0.8,0.4,0.8h20.9c0.5,0,1.2,0,1.7,0h20.9
			c0.5,0,0.7-0.4,0.4-0.8L47.8,149.3z"/>
	</g>
	<path class="st1" d="M34.7,103.8c0.1-0.3,0.3-0.3,0.5,0l1.2,2.3c0.1,0.3,0.5,0.5,0.7,0.5l2.6,0.4c0.3,0,0.3,0.2,0.1,0.4l-1.9,1.8
		c-0.2,0.2-0.3,0.6-0.3,0.9l0.4,2.6c0,0.3-0.1,0.4-0.4,0.3l-2.3-1.2c-0.2-0.1-0.7-0.1-0.9,0l-2.3,1.2c-0.2,0.1-0.4,0-0.4-0.3
		l0.4-2.6c0-0.3-0.1-0.7-0.3-0.9l-1.9-1.8c-0.2-0.2-0.1-0.4,0.1-0.4l2.6-0.4c0.3,0,0.6-0.3,0.7-0.5L34.7,103.8z"/>
	<circle class="st1" cx="27.7" cy="141.2" r="2.4"/>
	<circle class="st1" cx="40.6" cy="138.1" r="2.3"/>
	<circle class="st1" cx="33.3" cy="125.9" r="2.3"/>
	<circle class="st1" cx="43.6" cy="150.7" r="1.9"/>
	<circle class="st1" cx="33.9" cy="155.3" r="2.3"/>
	<circle class="st1" cx="22.5" cy="156.2" r="1.9"/>
</g>
<g class="st0">
	<g class="st1">
		<g>
			<path d="M35.5,128.3h-15v-16h15V128.3z M21.5,127.3h13v-14h-13V127.3z"/>
		</g>
	</g>
	<g class="st1">
		<g>
			<g>
				<path d="M28.9,121.5c-1.8,0-3.3-1.5-3.3-3.3c0-1.8,1.5-3.3,3.3-3.3s3.3,1.5,3.3,3.3C32.3,120,30.8,121.5,28.9,121.5z
					 M28.9,115.4c-1.5,0-2.8,1.2-2.8,2.8s1.2,2.8,2.8,2.8s2.8-1.2,2.8-2.8C31.7,116.6,30.5,115.4,28.9,115.4z"/>
			</g>
		</g>
		<g>
			<g>
				<path d="M35.4,128.3H22.5l0-0.5c0-0.1,0.2-6.5,6.5-6.5c1.9,0,3.5,0.6,4.6,1.7c1.9,1.9,1.8,4.6,1.8,4.8L35.4,128.3z M23.5,127.3
					h10.9c-0.1-0.8-0.4-2.4-1.5-3.5c-0.9-0.9-2.2-1.4-3.9-1.4C24.5,122.4,23.7,126,23.5,127.3z"/>
			</g>
		</g>
	</g>
	<g class="st1">
		<g>
			<rect x="38.5" y="114.3" width="14" height="2"/>
		</g>
	</g>
	<g class="st1">
		<g>
			<rect x="38.5" y="119.3" width="10" height="2"/>
		</g>
	</g>
	<g class="st1">
		<g>
			<rect x="20.5" y="134.3" width="5" height="2"/>
		</g>
	</g>
	<g class="st1">
		<g>
			<rect x="20.5" y="140.3" width="5" height="2"/>
		</g>
	</g>
	<g class="st1">
		<g>
			<rect x="20.5" y="146.3" width="5" height="2"/>
		</g>
	</g>
	<g class="st1">
		<g>
			<rect x="28.5" y="134.3" width="15" height="2"/>
		</g>
	</g>
	<g class="st1">
		<g>
			<rect x="28.5" y="140.3" width="20" height="2"/>
		</g>
	</g>
	<g class="st1">
		<g>
			<rect x="28.5" y="146.3" width="11" height="2"/>
		</g>
	</g>
	<line class="st2" x1="12.5" y1="124.3" x2="12.5" y2="124.3"/>
	<line class="st2" x1="12.5" y1="122.3" x2="12.5" y2="122.3"/>
	<line class="st2" x1="11.5" y1="122.3" x2="10.5" y2="122.3"/>
	<line class="st2" x1="10.5" y1="124.3" x2="11.5" y2="124.3"/>
	<path class="st1" d="M11.5,111.3h-2v4h3.9l0,0h3.1v-4H11.5 M13.5,112.3h2v2h-5l0,0l0,0v-2h1.6H13.5"/>
	<path class="st1" d="M13.5,125.3h3.1v-4h-7v4H13.5L13.5,125.3z M10.5,122.3h5v2h-5"/>
	<path class="st1" d="M13.5,135.3h3.1v-4h-7v4H13.5L13.5,135.3z M10.5,134.3v-2h5v2H10.5L10.5,134.3L10.5,134.3z"/>
	<path class="st1" d="M13.5,145.3h3.1v-4h-7v4H13.5L13.5,145.3z M10.5,144.3v-2h5v2H10.5L10.5,144.3L10.5,144.3z"/>
	<path class="st1" d="M13.5,155.3h3.1v-4h-7v4H13.5L13.5,155.3z M10.5,154.3v-2h5v2H10.5L10.5,154.3L10.5,154.3z"/>
	<line class="st3" x1="15" y1="122.3" x2="15" y2="115.3"/>
	<line class="st3" x1="15" y1="131.3" x2="15" y2="125.3"/>
	<line class="st3" x1="15" y1="141.3" x2="15" y2="135.3"/>
	<line class="st3" x1="15" y1="152.3" x2="15" y2="144.3"/>
	<polyline class="st3" points="15,111.3 15,104.8 59,104.8 59,162.8 15,162.8 15,155.3 	"/>
	<polyline class="st3" points="11,155.3 11,162.8 14.5,162.8 	"/>
	<line class="st3" x1="11" y1="145.3" x2="11" y2="151.3"/>
	<line class="st3" x1="11" y1="134.3" x2="11" y2="141.3"/>
	<line class="st3" x1="11" y1="125.3" x2="11" y2="131.3"/>
	<line class="st3" x1="11" y1="115.3" x2="11" y2="121.3"/>
	<polyline class="st3" points="14.5,104.8 11,104.8 11,111.3 	"/>
	<polyline class="st3" points="13,155.3 13,162.8 16.5,162.8 	"/>
	<line class="st3" x1="13" y1="145.3" x2="13" y2="151.3"/>
	<line class="st3" x1="13" y1="134.3" x2="13" y2="141.3"/>
	<line class="st3" x1="13" y1="125.3" x2="13" y2="131.3"/>
	<line class="st3" x1="13" y1="115.3" x2="13" y2="121.3"/>
	<polyline class="st3" points="16.5,104.8 13,104.8 13,111.3 	"/>
</g>
<g class="st0">
	<g class="st1">
		<g>
			<path d="M37,136.4c-0.3,0.2-0.6,0.4-0.9,0.6c-0.3,0.2-0.5,0.5-0.8,0.7c-0.2,0.3-0.5,0.5-0.6,0.8c-0.2,0.3-0.3,0.6-0.5,0.8
				c-0.1,0.2-0.2,0.4-0.2,0.6c1.4-0.2,2.9-0.4,4.4-0.5c3.9-0.2,7.5-0.1,10.6,0.4c-0.4-2.1-3.6-3.8-8.4-4.7c-0.1,0-0.1,0-0.2,0
				c-0.2,0-0.5,0.1-0.7,0.1c-0.3,0.1-0.6,0.1-0.8,0.2c-0.3,0.1-0.6,0.2-0.9,0.3C37.6,136.1,37.3,136.2,37,136.4z"/>
			<path d="M33.3,140.1C33.3,140,33.3,140,33.3,140.1c0.1-0.3,0.2-0.6,0.3-0.9c0.1-0.3,0.3-0.6,0.5-1c0.2-0.3,0.4-0.6,0.7-0.9
				c0.3-0.3,0.5-0.6,0.8-0.8c0.3-0.3,0.6-0.5,0.9-0.7c0.3-0.2,0.7-0.4,1-0.6c0.2-0.1,0.3-0.2,0.5-0.2c-2.4-0.3-5.1-0.4-7.9-0.2
				c-0.1,0-0.3,0.1-0.4,0.1c-0.2,0.1-0.3,0.1-0.5,0.2c-0.3,0.1-0.6,0.3-0.9,0.5c-0.3,0.2-0.6,0.4-0.9,0.7c-0.1,0.1-0.3,0.2-0.4,0.4
				c-0.1,0.1-0.3,0.3-0.4,0.4c-0.1,0.1-0.2,0.3-0.3,0.4c-0.1,0.1-0.2,0.3-0.3,0.4c-0.2,0.3-0.3,0.6-0.5,0.9
				c-0.1,0.3-0.2,0.6-0.3,0.8c-0.1,0.3-0.1,0.5-0.2,0.7c0,0.2-0.1,0.4-0.1,0.6c0,0.3,0,0.5,0,0.5c0,0.1-0.1,0.2-0.2,0.2
				c-0.1,0-0.2-0.1-0.2-0.2c0,0,0-0.2,0-0.5c0-0.2,0-0.4,0-0.6c0-0.3,0.1-0.5,0.1-0.8c0-0.3,0.2-0.6,0.3-0.9c0.1-0.3,0.3-0.7,0.5-1
				c0.1-0.2,0.2-0.3,0.3-0.5c0.1-0.2,0.2-0.3,0.3-0.5c0.1-0.2,0.3-0.3,0.4-0.5c0.1-0.2,0.3-0.3,0.4-0.4c0.3-0.3,0.6-0.5,0.9-0.8
				c-2.4,0.2-4.7,0.5-6.7,1c-0.1,0-0.1,0.1-0.2,0.1c-0.3,0.1-0.6,0.3-0.9,0.5c-0.3,0.2-0.6,0.4-0.9,0.6c-0.3,0.2-0.5,0.5-0.8,0.7
				c-0.2,0.3-0.5,0.5-0.7,0.8c-0.2,0.3-0.3,0.6-0.5,0.8c-0.1,0.3-0.3,0.6-0.3,0.8c-0.1,0.3-0.1,0.5-0.2,0.7c0,0.2-0.1,0.4-0.1,0.6
				c0,0.3,0,0.5,0,0.5c0,0.1-0.1,0.2-0.2,0.2c-0.1,0-0.2-0.1-0.2-0.2c0,0,0-0.2,0-0.5c0-0.2,0-0.4,0-0.6c0-0.2,0.1-0.5,0.1-0.8
				c0-0.3,0.2-0.6,0.3-0.9c0.1-0.3,0.3-0.6,0.5-0.9c0.2-0.3,0.4-0.6,0.7-0.9c0.2-0.2,0.5-0.5,0.7-0.7c-5.3,1.5-8.7,3.8-8.5,6.2
				c0,0.5,0.3,1,0.6,1.4c1.3,1.4,4.5,2.1,8.8,2.2C20.7,143.6,26.2,141.2,33.3,140.1z"/>
		</g>
		<path d="M50.1,140.9c0.3,0.2,0.5,0.4,0.8,0.6c0.3,0.3,0.6,0.5,0.8,0.8c0.2,0.3,0.4,0.6,0.6,0.9c0.1,0.3,0.3,0.6,0.4,0.9
			c0.1,0.3,0.2,0.5,0.2,0.8c0.1,0.2,0.1,0.4,0.1,0.6c0,0.3,0,0.5,0,0.5c0,0.1-0.1,0.2-0.2,0.2c-0.1,0-0.2-0.1-0.2-0.2
			c0,0,0-0.2-0.1-0.5c0-0.2-0.1-0.3-0.1-0.6c0-0.2-0.2-0.4-0.3-0.7c-0.1-0.3-0.3-0.5-0.4-0.8c-0.2-0.2-0.4-0.5-0.6-0.8
			c-0.2-0.3-0.5-0.5-0.8-0.7c-0.3-0.2-0.6-0.4-0.9-0.6c-0.3-0.2-0.6-0.3-1-0.5c-0.3-0.1-0.7-0.3-1-0.3c-0.1,0-0.1,0-0.2-0.1
			c-2.1-0.2-4.4-0.2-6.8-0.1c0.3,0.2,0.7,0.4,1,0.7c0.2,0.1,0.3,0.2,0.5,0.4c0.1,0.1,0.3,0.3,0.4,0.4c0.1,0.1,0.3,0.3,0.4,0.4
			c0.1,0.1,0.2,0.3,0.4,0.5c0.2,0.3,0.4,0.6,0.6,0.9c0.1,0.3,0.3,0.6,0.4,0.9c0.1,0.3,0.2,0.6,0.2,0.8c0.1,0.2,0.1,0.5,0.1,0.6
			c0,0.3,0,0.5,0,0.5c0,0.1-0.1,0.2-0.2,0.2c-0.1,0-0.2-0.1-0.2-0.2c0,0,0-0.2-0.1-0.5c0-0.2-0.1-0.4-0.1-0.6c0-0.2-0.1-0.5-0.2-0.7
			c-0.1-0.3-0.3-0.5-0.4-0.8c-0.2-0.3-0.3-0.6-0.6-0.8c-0.1-0.1-0.2-0.3-0.3-0.4c-0.1-0.1-0.3-0.2-0.4-0.4c-0.1-0.1-0.3-0.2-0.4-0.3
			c-0.1-0.1-0.3-0.2-0.5-0.3c-0.3-0.2-0.6-0.4-1-0.5c-0.3-0.1-0.7-0.3-1-0.4c-0.2-0.1-0.3-0.1-0.5-0.1c-0.1,0-0.3-0.1-0.4-0.1
			c-2.8,0.2-5.4,0.7-7.8,1.2c0.2,0.1,0.3,0.1,0.5,0.2c0.4,0.1,0.7,0.3,1.1,0.4c0.3,0.2,0.7,0.4,1,0.6c0.3,0.2,0.6,0.5,0.9,0.7
			c0.3,0.3,0.6,0.5,0.8,0.8c0.2,0.3,0.4,0.6,0.6,0.9c0.1,0.3,0.3,0.6,0.4,0.9c0.1,0.3,0.2,0.5,0.2,0.8c0.1,0.2,0.1,0.5,0.1,0.6
			c0,0.3,0,0.5,0,0.5c0,0.1-0.1,0.2-0.2,0.2c-0.1,0-0.2-0.1-0.2-0.2c0,0,0-0.2-0.1-0.5c0-0.2-0.1-0.3-0.1-0.6c0-0.2-0.1-0.4-0.3-0.7
			c-0.1-0.3-0.3-0.5-0.4-0.8c-0.2-0.2-0.4-0.5-0.6-0.8c-0.2-0.3-0.5-0.5-0.7-0.7c-0.3-0.2-0.6-0.4-0.9-0.6c-0.3-0.2-0.6-0.3-1-0.5
			c-0.3-0.1-0.7-0.3-1-0.3c-0.3-0.1-0.6-0.2-0.9-0.2c-0.3-0.1-0.6-0.1-0.9-0.1c-0.3,0-0.5,0-0.7,0c-0.1,0-0.1,0-0.2,0
			c-4.8,1.5-7.9,3.7-7.7,6c0.2,3.7,9,4.1,19.8,3.4c10.8-0.7,19.5-2.2,19.2-5.9C59.2,143.7,55.5,141.8,50.1,140.9z"/>
	</g>
</g>
<g class="st0">
	<path class="st1" d="M66.7,161.8c2.2,7.3,1.5,15.1-2.1,21.9c-1.3,2.4-2.9,4.6-4.7,6.5c10.2,7.1,24.4,6.1,33.5-3
		c10.2-10.2,16.4-33.1,6.2-43.3c-10.2-10.2-33.1-4-43.3,6.2c-1.4,1.4-2.6,2.9-3.6,4.5c1.2-0.1,2.5-0.2,3.6-0.2c3.9,0,6.8,0.7,8.1,2
		C65.6,157.5,66.7,161.8,66.7,161.8z M85,147.6c-0.8,0.8-2.2,0.8-3.1,0c-0.8-0.8-0.8-2.2,0-3.1c0.8-0.8,2.2-0.8,3.1,0
		C85.8,145.4,85.8,146.7,85,147.6z M89.5,142c-0.6,0.6-1.5,0.6-2.1,0c-0.6-0.6-0.6-1.5,0-2.1c0.6-0.6,1.5-0.6,2.1,0
		C90,140.5,90,141.5,89.5,142z M95.3,149.5c-0.7,0.7-1.9,0.7-2.6,0c-0.7-0.7-0.7-1.9,0-2.6c0.7-0.7,1.9-0.7,2.6,0
		C96,147.6,96,148.7,95.3,149.5z"/>
	<path class="st1" d="M63.4,157.4c-1.3-1.1-3.7-1.6-7.2-1.6c-5.4,0-12.7,1.3-20.2,3.6c-12.9,3.9-22.7,9.6-23.9,13.7
		c0,0-0.4,0.8,1.1,5.1c4,11.4,14,19.3,26.1,19.3c2.7,0,5.4-0.4,8-1.2c7-2.1,12.7-6.9,16.1-13.3c3.4-6.4,4.1-13.8,2-20.8
		C65.3,162.2,64.2,158.5,63.4,157.4z M36.4,160.8c7.4-2.3,14.6-3.6,19.8-3.6c3,0,5.1,0.4,6.2,1.2l0,0c0.2,0.4,0.4,0.9,0.6,1.4
		c-0.5,3-9.2,8.8-23,13c-7.4,2.3-14.6,3.6-19.9,3.6h0c-3.3,0-5.6-0.5-6.5-1.5c-0.1-0.5-0.2-1-0.2-1.5
		C14.6,170.3,22.9,164.9,36.4,160.8z"/>
	<path class="st1" d="M21.1,173.5c-2.2,0-3.4-0.4-3.7-1.3c-1-3.2,12.2-8.2,19.3-10.3c7.2-2.2,14.2-3.6,18.1-3.6
		c2.2,0,3.4,0.4,3.7,1.3c1,3.2-12.2,8.2-19.3,10.3C31.9,172.1,25,173.5,21.1,173.5z M54.8,159.4c-3.8,0-10.6,1.4-17.8,3.5
		c-12.6,3.9-18.9,7.9-18.6,8.9c0,0.1,0.6,0.5,2.6,0.5c3.8,0,10.6-1.4,17.8-3.5c12.6-3.9,18.9-7.9,18.6-8.9
		C57.4,159.8,56.8,159.4,54.8,159.4z"/>
</g>
<g class="st0">
	
		<rect x="41.8" y="149.6" transform="matrix(0.8491 -0.5282 0.5282 0.8491 -73.9188 49.1345)" class="st1" width="14.4" height="8.8"/>
	
		<rect x="47.2" y="158.1" transform="matrix(0.8492 -0.528 0.528 0.8492 -77.6189 53.2164)" class="st1" width="14.4" height="8.8"/>
	
		<rect x="33.8" y="166.5" transform="matrix(0.8492 -0.528 0.528 0.8492 -84.0364 47.3968)" class="st1" width="14.4" height="8.8"/>
	
		<rect x="20.4" y="174.8" transform="matrix(0.8492 -0.528 0.528 0.8492 -90.4571 41.5771)" class="st1" width="14.4" height="8.8"/>
	
		<rect x="52.5" y="166.7" transform="matrix(0.8492 -0.5281 0.5281 0.8492 -81.3558 57.3349)" class="st1" width="14.4" height="8.8"/>
	<polygon class="st1" points="54.7,179.4 50.1,171.9 37.9,179.5 42.5,186.9 	"/>
	
		<rect x="25.7" y="183.4" transform="matrix(0.8491 -0.5282 0.5282 0.8491 -94.2121 45.7142)" class="st1" width="14.4" height="8.8"/>
	
		<rect x="57.8" y="175.3" transform="matrix(0.8492 -0.5281 0.5281 0.8492 -85.0752 61.4437)" class="st1" width="14.4" height="8.8"/>
	
		<rect x="44.4" y="183.6" transform="matrix(0.8491 -0.5282 0.5282 0.8491 -91.5148 55.6466)" class="st1" width="14.4" height="8.8"/>
	<rect x="31" y="192" transform="matrix(0.8492 -0.5281 0.5281 0.8492 -97.9162 49.8069)" class="st1" width="14.4" height="8.8"/>
	
		<rect x="63.2" y="183.9" transform="matrix(0.8492 -0.5281 0.5281 0.8492 -88.8034 65.5528)" class="st1" width="14.4" height="8.8"/>
	
		<rect x="49.8" y="192.2" transform="matrix(0.8492 -0.5281 0.5281 0.8492 -95.2203 59.7355)" class="st1" width="14.4" height="8.8"/>
	<polygon class="st1" points="47.4,197.4 35.1,205 39.8,212.4 52,204.8 	"/>
	<polygon class="st1" points="71.9,204.4 84.1,196.7 79.5,189.3 67.3,196.9 	"/>
	
		<rect x="55.1" y="200.8" transform="matrix(0.8491 -0.5283 0.5283 0.8491 -98.9768 63.8792)" class="st1" width="14.4" height="8.8"/>
	
		<rect x="41.7" y="209.1" transform="matrix(0.8492 -0.5281 0.5281 0.8492 -105.3665 58.0252)" class="st1" width="14.4" height="8.8"/>
	
		<rect x="73.8" y="201" transform="matrix(0.8491 -0.5283 0.5283 0.8491 -96.2779 73.8123)" class="st1" width="14.4" height="8.8"/>
	
		<rect x="60.4" y="209.3" transform="matrix(0.8491 -0.5283 0.5283 0.8491 -102.6998 67.9902)" class="st1" width="14.4" height="8.8"/>
	<polygon class="st1" points="45.8,222.1 50.4,229.6 62.7,222 58,214.5 	"/>
	<path class="st1" d="M47.5,137.9l-11.3,7c0.5,1.1,0.8,2.3,0.9,3.4l2.9,4.6l12.2-7.6L47.5,137.9z"/>
	<path class="st1" d="M27.9,166.1c-0.8,1.2-1.8,2.2-3.1,3c-1.5,0.9-3.1,1.4-4.7,1.5c-0.8,1.7-2.1,3.1-3.7,4.1l2.1,3.3l12.2-7.6
		L27.9,166.1z"/>
	<path class="st1" d="M39.4,154.8l-9.8,6.1c0,1.3-0.4,2.7-0.9,3.9l3.1,5.1l12.2-7.6L39.4,154.8z"/>
	<path class="st1" d="M37,150.8c-0.4,2.5-1.8,4.7-4,6.1c-1.1,0.7-2.4,1.1-3.7,1.2c0.1,0.4,0.2,0.9,0.2,1.3l9.2-5.7L37,150.8z"/>
</g>
<g>
	<path class="st4" d="M95.5,38.3c-0.3-4.7-6.7-8.4-17.6-10.1c-0.1,0-0.5-0.1-1.1-0.1c0-0.1,0-0.2,0-0.3c-0.3-4.5-6.1-8.1-16.1-9.9
		c-0.1,0-1.9,0-2.6,0.2c-1.2,0.3-2.5,0.9-2.6,1c0.1-0.2,0.1-1.1,0-1.4c-0.1-0.3-1.4-0.4-2.1-0.5c-4.5-0.5-6.8-0.6-11.8-0.4
		c-0.1,0-1.9,0.7-1.9,0.7c-0.4,0.2-1.5,0.8-1.9,1.1c0-0.1-0.1-0.7-0.2-0.8c-0.2-0.4-1.9-0.5-2.4-0.5c-4.3,0.4-9.6,1.7-13.5,3
		c-0.1,0-1.2,0.4-2,1.3c0-0.1-0.1-0.1-0.1-0.2c-0.2-0.4-0.6-0.5-1.1-0.4C8.2,23.9,3.9,27.7,4.2,32.4c0.3,4.8,6.5,7.5,19.3,7.6
		c-0.5,0.9-0.7,1.7-0.6,2.6c0.3,5.2,7.5,7.4,22.7,7.4c0,0,0,0,0,0c4.1,0,8.8,0,14.2-0.3C71,49,79.2,48.1,84.9,46.6
		C92.3,44.6,95.8,42,95.5,38.3z M60.5,19.8C60.5,19.8,60.5,19.8,60.5,19.8c8.3,1.5,13.6,4.4,14.3,7.5c-5.2-0.6-11-0.8-16.9-0.4
		c-2.9,0.2-5.7,0.5-8.5,0.9c0.8-1.5,2.6-5.1,4.8-6.6C57.2,19.4,60.5,19.8,60.5,19.8z M47.7,25.8c-0.1,0.4-0.3,2-0.4,2.4
		c-10.5,2-19.8,5.6-23.3,9.7c-11.7-0.3-17.7-2.2-17.9-5.7C5.9,29,10.2,25.6,17.6,23c-0.1,0.1-1.2,2.6-1.3,4.6s-0.2,4.5,0.5,4.5h0
		c0.7,0,0.8-0.9,1-1.3s0.3-3.4,0.6-4.5s2.2-3.7,2.2-3.7l5.1-1.8c2.9-0.6,5.9-1.1,8.9-1.5c-0.1,0.1-0.2,0.2-0.2,0.3
		c-0.1,0.1-0.9,0.8-1.4,1.8s-1.8,5.3-1.9,6.7s0.2,3.1,1,3.1c0,0,0,0,0,0c0.7,0,1.6-3.8,1.7-4.4c0.1-0.3,0.2-1.9,1.6-3.8
		s2.1-2.5,3.2-3.2s3.2-1.1,3.2-1.1c3.7-0.2,7.3-0.1,10.7,0.1l-0.4,0.3C52.3,19.1,48.7,22.2,47.7,25.8z M84.4,44.7
		c-5.6,1.5-13.7,2.3-24.7,3c-5.4,0.3-10.1,0.3-14.1,0.3c0,0,0,0,0,0c-13.5,0-20.5-1.7-20.7-5.5c-0.2-3.3,4.1-5.5,12.1-9.6
		c-0.6,0.3,2.9-1,3.2-1c1.8,0,4,1,8.3,5.2c1.8,2,2.7,4.5,2.7,4.5c0.5,0.7,1.1,2.1,1.1,2.1c0.3-0.1,2.3-3.2-1.4-8.7
		c-0.8-1.1-4.3-3.7-4.8-3.9L45.7,31c3.4-0.7,6.9-1.2,10.6-1.5l1.3,0c0.4,0.1,2.5,0.5,4.8,3c2.3,2.5,4.5,8.3,5.2,8.2
		c0.8-0.1,0.9-3.6,0.5-5.2c-0.1-0.5-0.4-0.9-0.6-1.4c0,0-1-1.8-1.4-2.3c0,0-2.5-2.6-2.6-2.7c3.1,0,9.1,0.3,9.1,0.3
		c0.1,0,1.3,0.2,2.2,0.5s3.1,2.3,3.1,2.3c2.1,2.2,4.9,7.5,4.9,7.5c0.8,0,1.7-2.7-0.1-6.3c-0.1-0.2-1.7-2.6-1.8-2.7
		c7.6,1.7,12.3,4.5,12.5,7.7C93.7,41,90.6,43.1,84.4,44.7z"/>
</g>
<g class="st0">
	<path class="st1" d="M101.5,161.8c0-0.7,0-1.8-0.5-2.3c-0.3-0.4-6.8-3-7.8-3.3c-2.2-0.7-11-3.1-13.2-3.6c-1.1-0.3-5.5-1.2-6.7-1.4
		c-0.2,0-1.4-2.3-2.1-3.2c-0.9-1.3-2.2-2.2-3.5-3.2c-2.9-2.1-5.5-4.2-5.1-9.2c0-0.5-0.2-1-0.7-1.2c-0.4-0.2-1-0.1-1.3,0.2
		c-0.2,0.2-4.6,4.2-8.3,9.3c-1,1.3-1.8,2.6-2.5,3.8c-1.2-0.1-2.3-0.3-3.5-0.4l-0.1,0c-0.9-0.1-1.7,0.2-2.4,0.9L18.2,177
		c-0.4,0.4-0.6,2.3-0.6,2.3c0,0.1,0,48.8,0,48.8c0,0.1,0,2.2,3.2,2.2c0.2,0,0.5,0,0.7-0.1l77.8-17.5c0.7-0.1,1.2-0.4,1.5-0.9
		c0.7-0.4,0.8-0.7,0.8-1.5V161.8z M19.3,196.9l78.2-17.6v12.2l-78.2,17.6L19.3,196.9z M60.4,138.1c0.6,4.4,3.5,6.6,6,8.4
		c1.2,0.9,2.3,1.7,3,2.7c1.1,1.6,1.7,3.8,1.3,5.7c-0.3,1.6-1.1,2.9-2.5,3.9c-1.8,1.2-6,2.5-10,2.5c-2.4,0-5.7-0.5-7.4-2.7
		C46.9,153.7,55.1,143.5,60.4,138.1z M47.3,153.4c0.1,0,0.2,0,0.3,0c-0.5,2.6-0.1,4.9,1.3,6.7c1.8,2.3,5.1,3.6,9.3,3.6c0,0,0,0,0,0
		c4.6,0,9.3-1.5,11.3-2.9c1.4-1,2.4-2.2,3-3.7c1,0.2,1.9,0.4,2.9,0.6c1.1,0.2,2.2,0.5,3.2,0.7c2.1,0.5,4.3,1,6.4,1.6
		c0.8,0.2,1.6,0.5,2.5,0.7L25.2,175L47.3,153.4z M19.9,180.3L19.9,180.3l77.7-15.7v11.6l-78.2,17.5l0-13.6
		C19.5,180.2,19.7,180.3,19.9,180.3z M19.3,224.3l0-10.4c0,0,0.1,0,0.1,0l78.1-17.6v10.6L19.3,224.3z"/>
</g>
<g class="st0">
	<g class="st1">
		<path d="M96.8,169c1.3-8.8-0.4-16.9-10.1-18.2c-2.3-11.4-14.3-15.3-23.7-9.7c-9.2-8.3-21.5-3.2-28.3,5.4
			c-14,1.8-22.7,16.1-17.7,29.1c-3.5,3.6-5,9-4.6,13.9l0.1,0.1v0.1l-0.1,0c0.6,5.2,3.8,9,8.3,11.6c-0.6,11.8,10.1,20.6,21.6,19.5
			c5.8,8.6,16.7,12.2,26.4,6.9c10,3.6,21.5-5.7,24.1-15c8.7-3.5,16.6-13.8,10.8-23.4c0.7-1.2,2.9-7,1.7-11.8
			C104.3,173.8,100.7,170.9,96.8,169z M101.5,200.3c-1.8,4.5-4.3,5.9-8.2,7.6c0-5.7-2.6-11.5-6-16c-1.1-0.8-1.7-0.4-1.8,1
			c6.3,11.9,3.5,29.3-12.3,31.1c4.2-4.5,6.3-12.6,5.9-15.6c-0.2-1.6-1.5-1.6-2.7-0.3c-1.7,5.6-2.4,11.1-7,14.3
			c-5.8,3.9-16,4.1-22.4-2.6C58.6,214,67,204,70.5,191.7c-0.2-1.1-0.7-1.3-1.6-0.5c-7.7,15.9-20.6,28.4-38,21.6c0,0,0,0,0,0
			c-4-2.8-5.7-6.6-5.9-11.3L54.9,185c0.8-1.1,0.5-1.7-0.9-1.7l-31,14.6c-15.2-10-0.1-24.2,11.3-27.4c0,0-0.1,0-0.1,0
			c7.2-0.9,12.5,0,13.1-0.1c0.5-0.1,5.2-1.3,0.2-2c-5.7-0.8-20.8-0.9-26.9,4c-3.1-18.4,18.4-25.2,32.2-18.5c0.9,0.2,1.2-0.2,0.9-1.1
			c-3.6-4.1-8.3-5.9-13.8-6.3c5.6-6.2,14.1-8.1,21.5-3.1c3,2,4.5,6,5.8,8.2c1.5,2.5,1.8-0.4,1.6-1.5c-0.5-2.6-1.4-3.8-3-5.8
			c12.5-6.7,17.4,5.5,14.9,15.6c0.1,1.5,0.8,1.7,2.1,0.8l3.1-5.7c1.8,0.2,5.4,0.3,7.4,3.3c2.5,3.7,1.2,10.8,1.9,11.8
			c0.7,1,6.1,3.9,7.1,8.3c0.9,3.7-2,11-2,11S103.5,195.3,101.5,200.3z"/>
		<path d="M73.9,169.7c-7.5,15.1,4.5,15.6,16.1,0.9c2.1-2.8,1.8-5.2-0.7-7.3C88.3,163.5,78.7,167,73.9,169.7z M89.6,169.6
			c-2.1-0.4-2.9-1.7-2.2-3.9c1.1-2,2.1-1.9,2.7,0.5C90.6,168.1,90,169.5,89.6,169.6C89.3,169.8,90,169.5,89.6,169.6z"/>
	</g>
</g>
<g class="st0">
	<path class="st1" d="M100.5,176.9c0-2.9-1.9-5.6-4.8-5.6H70.4c2.1-1,3.8-2.2,5-3.5c3.2-3.6,4.2-8.3,3.2-12.8c0.5,0.8,1,1.6,1.3,2.4
		c0.1,0.6,0.1,1.1,0.1,1.1c0.1,1.1,0.9,1.9,2,2c0,0,0.1,0,0.1,0c1,0,1.9-0.8,2.1-1.8c0.1-0.6,0-1.4-0.2-2.1c-0.6-3.8-2-8.6-5.5-9.9
		c0,0,0,0,0,0c0-0.6,0.7-1.8,1.9-3.5c0.7-1,1.1-1.5,1-2.4c-0.1-1.1-1-2-2.1-2c-0.9,0-1.3,0-4.9,4c-1.6-1.8-4.2-4-7.8-4.5
		c-0.9-0.1-1.8,0.3-2.2,1.1c-0.4,0.8-0.2,1.8,0.4,2.4c0.4,0.4,0.9,0.9,1.3,1.4c-0.9-0.2-1.8-0.3-2.7-0.3c-4.1,0-8,1.7-10.6,4.7
		c-3.6,4-8.5,12.6-8.2,19.3c0.1,1.8,0.6,3.4,1.4,4.4h-22c-2.9,0-5.3,2.7-5.3,5.6v12.3c0,0.4,0.1,1.1,0.1,1.1h-0.1v23h0.1
		c0,0-0.1,0.2-0.1,0.4v12.3c0,2.9,2.4,5.3,5.3,5.3h72c2.9,0,4.8-2.4,4.8-5.3C100.5,226.1,100.5,176.9,100.5,176.9z M50,170.1
		c-0.8-0.8-1.3-1.8-1.4-3.3c-0.3-5.3,3.9-13,7.1-16.5c1.4-1.5,3.1-2.5,5.1-3c-0.5,0.6-0.4,3-0.4,3s2,1,11.2,2.4
		c-0.2,0.7-2.6,4.4-2,5.2c0.6,0.9,4-0.1,5-0.7c0.4,2.9-0.4,5.6-2.4,7.8c-2.6,2.9-6.8,6.3-16.5,6.3h-1.3C52.5,171.3,51,171,50,170.1z
		 M22.5,176.9c0-0.6,0.7-0.6,1.3-0.6h72c0.6,0,0.8,0,0.8,0.6v13.4h-74C22.5,190.3,22.5,176.9,22.5,176.9z M22.5,194.3h74v15h-74
		V194.3z M96.5,213.8v12.3c0,0.6-0.2,1.3-0.8,1.3h-72c-0.6,0-1.3-0.7-1.3-1.3c0,0,0-12.7,0-12.7h74c0,0,0,0,0,0.1V213.8z"/>
</g>
</svg>
