<?xml version="1.0" encoding="utf-8"?>
<!-- Generator: Adobe Illustrator 19.2.1, SVG Export Plug-In . SVG Version: 6.00 Build 0)  -->
<svg version="1.1" id="Layer_1" xmlns="http://www.w3.org/2000/svg" xmlns:xlink="http://www.w3.org/1999/xlink" x="0px" y="0px"
	 viewBox="0 0 202 87" style="enable-background:new 0 0 202 87;" xml:space="preserve">
<style type="text/css">
	.st0{fill:#FFFFFF;}
	.st1{fill:#989898;}
</style>
<g>
	<path class="st0" d="M117.8,40.2c5,0,9,4,9,9s-4,9-9,9c-5,0-9-4-9-9S112.8,40.2,117.8,40.2L117.8,40.2z M117.8,45
		c-2.3,0-4.2,1.9-4.2,4.2c0,2.3,1.9,4.2,4.2,4.2c2.3,0,4.2-1.9,4.2-4.2C122,46.9,120.1,45,117.8,45z"/>
	<path class="st0" d="M184,40.2c5,0,9,4,9,9s-4,9-9,9c-5,0-9-4-9-9S179,40.2,184,40.2L184,40.2z M184,45c-2.3,0-4.2,1.9-4.2,4.2
		c0,2.3,1.9,4.2,4.2,4.2c2.3,0,4.2-1.9,4.2-4.2C188.2,46.9,186.3,45,184,45z"/>
	<path class="st0" d="M138.9,13.1c14.9,0,14.9,0,36.1,0l27.1,18l0,18l-7.9,6c1.1-1.8,1.7-3.8,1.7-6c0-6.5-5.3-11.8-11.8-11.8
		s-11.8,5.3-11.8,11.8c0,2.2,0.6,4.3,1.7,6h-45.7c1-1.8,1.6-3.8,1.6-6c0-6.6-5.4-12-12-12c-6.6,0-12,5.4-12,12c0,2.2,0.6,4.3,1.6,6
		l-5.4-4.2l0.1-18.2l2.3-4.7l3.8,5.1l2.6-6.7l5,5.5l3.1-5.5l5,1.6L138.9,13.1z M141.9,16.2l-12,12h27.1v-12L141.9,16.2z M159.9,16.2
		v12H184l-12-12L159.9,16.2z"/>
</g>
<g>
	<path class="st0" d="M84.2,41.7c5,0,9,4,9,9s-4,9-9,9c-5,0-9-4-9-9S79.2,41.7,84.2,41.7L84.2,41.7z M80,50.7c0,2.3,1.9,4.2,4.2,4.2
		c2.3,0,4.2-1.9,4.2-4.2c0-2.3-1.9-4.2-4.2-4.2C81.9,46.5,80,48.4,80,50.7z"/>
	<path class="st0" d="M18,41.7c5,0,9,4,9,9s-4,9-9,9c-5,0-9-4-9-9S13.1,41.7,18,41.7L18,41.7z M13.8,50.7c0,2.3,1.9,4.2,4.2,4.2
		c2.3,0,4.2-1.9,4.2-4.2c0-2.3-1.9-4.2-4.2-4.2C15.7,46.5,13.8,48.4,13.8,50.7z"/>
	<path class="st0" d="M78.2,29.7l5-1.6l3.1,5.5l5-5.5l2.6,6.7l3.8-5.1l2.3,4.7l0.1,18.2l-5.4,4.2c1-1.8,1.6-3.8,1.6-6
		c0-6.6-5.4-12-12-12c-6.6,0-12,5.4-12,12c0,2.2,0.6,4.3,1.6,6H28.1c1.1-1.8,1.7-3.8,1.7-6c0-6.5-5.3-11.8-11.8-11.8
		S6.3,44.2,6.3,50.7c0,2.2,0.6,4.3,1.7,6l-7.9-6l0-18l27.1-18c21.1,0,21.1,0,36.1,0L78.2,29.7z M45.1,17.6v12h27.1l-12-12L45.1,17.6
		z M30,17.6l-12,12h24.1v-12L30,17.6z"/>
</g>
<g>
	<path class="st1" d="M100,16.1c-1,0-1.8-0.8-1.8-1.8V1.8c0-1,0.8-1.8,1.8-1.8c1,0,1.8,0.8,1.8,1.8v12.6
		C101.8,15.3,101,16.1,100,16.1z"/>
	<path class="st1" d="M107.4,17.9c-0.4,0-0.8-0.1-1.2-0.4c-0.7-0.6-0.8-1.8-0.2-2.5l8.3-9.4c0.6-0.7,1.8-0.8,2.5-0.2
		c0.7,0.6,0.8,1.8,0.2,2.5l-8.3,9.4C108.4,17.7,107.9,17.9,107.4,17.9z"/>
	<path class="st1" d="M92.6,17.9c-0.5,0-1-0.2-1.3-0.6l-8.3-9.4c-0.6-0.7-0.6-1.9,0.2-2.5c0.7-0.6,1.9-0.6,2.5,0.2l8.3,9.4
		c0.6,0.7,0.6,1.9-0.2,2.5C93.4,17.7,93,17.9,92.6,17.9z"/>
</g>
<g>
	<path class="st1" d="M100,87c-1,0-1.8-0.8-1.8-1.8V72.7c0-1,0.8-1.8,1.8-1.8c1,0,1.8,0.8,1.8,1.8v12.6C101.8,86.2,101,87,100,87z"
		/>
	<path class="st1" d="M84.2,82.1c-0.4,0-0.8-0.1-1.2-0.4c-0.7-0.6-0.8-1.8-0.2-2.5l8.3-9.4c0.6-0.7,1.8-0.8,2.5-0.2
		c0.7,0.6,0.8,1.8,0.2,2.5l-8.3,9.4C85.2,81.9,84.7,82.1,84.2,82.1z"/>
	<path class="st1" d="M115.8,82.1c-0.5,0-1-0.2-1.3-0.6l-8.3-9.4c-0.6-0.7-0.6-1.9,0.2-2.5c0.7-0.6,1.9-0.6,2.5,0.2l8.3,9.4
		c0.6,0.7,0.6,1.9-0.2,2.5C116.6,81.9,116.2,82.1,115.8,82.1z"/>
</g>
</svg>
