<?xml version="1.0" encoding="utf-8"?>
<!-- Generator: Adobe Illustrator 19.2.1, SVG Export Plug-In . SVG Version: 6.00 Build 0)  -->
<svg version="1.1"
	 id="Layer_1" xmlns:cc="http://creativecommons.org/ns#" xmlns:dc="http://purl.org/dc/elements/1.1/" xmlns:inkscape="http://www.inkscape.org/namespaces/inkscape" xmlns:rdf="http://www.w3.org/1999/02/22-rdf-syntax-ns#" xmlns:sodipodi="http://sodipodi.sourceforge.net/DTD/sodipodi-0.dtd" xmlns:svg="http://www.w3.org/2000/svg"
	 xmlns="http://www.w3.org/2000/svg" xmlns:xlink="http://www.w3.org/1999/xlink" x="0px" y="0px" viewBox="0 0 639 232.9"
	 style="enable-background:new 0 0 639 232.9;" xml:space="preserve">
<style type="text/css">
	.st0{fill:#F24806;}
	.st1{fill:#DBB412;}
	.st2{fill:#FFFFFF;}
	.st3{fill:#979797;}
</style>
<g>
	<polygon class="st0" points="443.5,106.7 401.8,87.3 400.1,90.9 444.8,111 	"/>
	<polygon class="st0" points="439.9,119.4 445.1,117.5 408.6,109.4 407.9,112.6 	"/>
	<polygon class="st0" points="533.4,165.8 566,190.7 568.4,187.6 532.1,160.7 	"/>
	<polygon class="st0" points="562,134.5 565.2,136.8 598.2,140 598.5,136.7 560.3,133.3 	"/>
	<polygon class="st0" points="537.8,116.9 538.7,117.6 606.5,102.7 605.6,98.9 539.3,114.2 	"/>
	<polygon class="st0" points="467.6,79.9 455,48.7 452.6,49.7 464.4,78.7 	"/>
	<polygon class="st0" points="523.5,50.7 520.6,49.3 510.3,71.6 511.8,75.6 	"/>
	<polygon class="st0" points="515.1,84.3 549.6,30.2 546.2,28.1 513.7,80.5 	"/>
	<polygon class="st0" points="439.4,158.7 386.6,195.7 388.8,198.9 437.6,163.9 	"/>
	<polygon class="st0" points="462.8,179.2 452.6,203.6 455,204.7 466.2,177.9 	"/>
	<polygon class="st0" points="474.5,174.8 466,215.3 469.2,215.9 476.9,177.9 475.1,174.5 	"/>
	<polygon class="st0" points="501.5,187.4 506.1,203.3 508.6,202.6 503.1,183.7 	"/>
	<ellipse transform="matrix(0.9895 -0.1446 0.1446 0.9895 -8.2474 83.6956)" class="st0" cx="571.5" cy="98.6" rx="2.6" ry="2.6"/>
	
		<ellipse transform="matrix(0.9895 -0.1446 0.1446 0.9895 -16.7479 80.2157)" class="st0" cx="543.3" cy="155.3" rx="2.6" ry="2.6"/>
	<ellipse transform="matrix(0.9895 -0.1446 0.1446 0.9895 -18.4661 62.0935)" class="st0" cx="417.8" cy="158" rx="2.6" ry="2.6"/>
	<ellipse transform="matrix(0.9895 -0.1446 0.1446 0.9895 -8.7061 63.0115)" class="st0" cx="429" cy="91.4" rx="2.6" ry="2.6"/>
	<ellipse transform="matrix(0.9895 -0.1446 0.1446 0.9895 -3.1624 67.8404)" class="st0" cx="465" cy="55.7" rx="2.6" ry="2.6"/>
	<ellipse transform="matrix(0.9895 -0.1446 0.1446 0.9895 -7.0937 61.3701)" class="st0" cx="418.5" cy="79.5" rx="2.6" ry="2.6"/>
	<ellipse transform="matrix(0.9895 -0.1446 0.1446 0.9895 -10.1937 88.567)" class="st0" cx="604" cy="114.4" rx="5.3" ry="5.3"/>
	<ellipse transform="matrix(0.9895 -0.1446 0.1446 0.9895 -1.1475 67.3946)" class="st0" cx="462.9" cy="41.6" rx="5.3" ry="5.3"/>
	
		<ellipse transform="matrix(0.9895 -0.1446 0.1446 0.9895 -26.3763 72.9762)" class="st0" cx="488.7" cy="217.9" rx="5.3" ry="5.3"/>
	
		<ellipse transform="matrix(0.9895 -0.1446 0.1446 0.9895 -23.5533 62.2266)" class="st0" cx="416.2" cy="193.1" rx="5.3" ry="5.3"/>
	<ellipse transform="matrix(0.9895 -0.1446 0.1446 0.9895 -1.5556 80.4303)" class="st0" cx="552.4" cy="50.9" rx="5.3" ry="5.3"/>
	
		<ellipse transform="matrix(0.9895 -0.1446 0.1446 0.9895 -11.8398 58.0632)" class="st0" cx="393.4" cy="110.5" rx="5.3" ry="5.3"/>
	<ellipse transform="matrix(0.9895 -0.1446 0.1446 0.9895 -22.5605 85.6778)" class="st0" cx="577.9" cy="198" rx="5.3" ry="5.3"/>
</g>
<path class="st1" d="M446.5,90.8l25,18.2l9.6,7l2-11.7l3-17.7l4.7,19.9l2.5,10.7l8.9-6.5l14.3-10.4l-9.7,13.2l-9.6,13.1l16.2-1.4
	l20-1.8l-19,8.7l-12.5,5.7l11.8,7.2l7.3,4.4l-9.2-1.2l-11.7-1.5l3.8,11.2l4.7,13.9l-11.8-9.7l-9.8-8.1l-2.1,12.5l-1.4,8.1l-2.1-9.2
	l-3.5-15.2l-5.9,7.8l3.6-10.2l-15.3,6.5l-17.3,7.4l14-13.1l10-9.4l-13.3-3.1l-16.5-3.9l17.7-2.7l9.9-1.5l-4.4-9L446.5,90.8
	 M484.9,49.4l-9,53.6l-49.1-35.8l27.1,54.8l-55.1,8.4l53.3,12.6l-44.4,41.4l55.5-23.6l-13.5,38.6l24.6-32.5l10.4,44.8l7.5-44.1
	l31.7,26.2l-13-38.4l43.5,5.7l-36.8-22.4l57.8-26.4l-62.5,5.6l37.5-51.1l-52.4,38.1L484.9,49.4L484.9,49.4z"/>
<path d="M485,3"/>
<g>
	<path class="st2" d="M498.3,133.3c4.9-0.9,9.6,2.2,10.6,7.1s-2.2,9.6-7.1,10.6c-4.9,0.9-9.6-2.2-10.6-7.1S493.4,134.3,498.3,133.3
		L498.3,133.3z M499.2,138.1c-2.3,0.4-3.8,2.6-3.3,4.9c0.4,2.3,2.6,3.8,4.9,3.3c2.3-0.4,3.8-2.6,3.3-4.9
		C503.7,139.1,501.5,137.6,499.2,138.1z"/>
	<path class="st2" d="M563.2,120.8c4.9-0.9,9.6,2.2,10.6,7.1c0.9,4.9-2.2,9.6-7.1,10.6c-4.9,0.9-9.6-2.2-10.6-7.1
		C555.2,126.4,558.4,121.7,563.2,120.8L563.2,120.8z M564.2,125.5c-2.3,0.4-3.8,2.6-3.3,4.9c0.4,2.3,2.6,3.8,4.9,3.3
		c2.3-0.4,3.8-2.6,3.3-4.9C568.6,126.5,566.4,125,564.2,125.5z"/>
	<path class="st2" d="M513.8,102.8c14.7-2.8,14.7-2.8,35.4-6.9l30,12.6l3.4,17.7l-6.6,7.4c0.7-1.9,0.9-4.1,0.5-6.3
		c-1.2-6.4-7.4-10.6-13.8-9.3s-10.6,7.4-9.3,13.8c0.4,2.2,1.4,4.1,2.8,5.6l-44.9,8.7c0.7-1.9,0.9-4.1,0.5-6.2
		c-1.3-6.5-7.5-10.7-14-9.5c-6.5,1.3-10.7,7.5-9.5,14c0.4,2.2,1.4,4.1,2.8,5.6l-6.1-3.1l-3.4-17.9l1.3-5.1l4.7,4.3l1.2-7.1l6,4.5
		l2-5.9l5.2,0.6L513.8,102.8z M517.3,105.2l-9.5,14.1l26.6-5.1l-2.3-11.8L517.3,105.2z M535,101.7l2.3,11.8L561,109l-14.1-9.5
		L535,101.7z"/>
</g>
<g>
	<path class="st2" d="M467.1,133.3c4.9,0.9,8.1,5.7,7.1,10.6s-5.7,8.1-10.6,7.1c-4.9-0.9-8.1-5.7-7.1-10.6S462.2,132.4,467.1,133.3
		L467.1,133.3z M461.3,141.4c-0.4,2.3,1,4.5,3.3,4.9c2.3,0.4,4.5-1,4.9-3.3c0.4-2.3-1-4.5-3.3-4.9
		C463.9,137.6,461.7,139.1,461.3,141.4z"/>
	<path class="st2" d="M402.1,120.8c4.9,0.9,8.1,5.7,7.1,10.6c-0.9,4.9-5.7,8.1-10.6,7.1c-4.9-0.9-8.1-5.7-7.1-10.6
		C392.5,123,397.3,119.8,402.1,120.8L402.1,120.8z M396.3,128.8c-0.4,2.3,1,4.5,3.3,4.9c2.3,0.4,4.5-1,4.9-3.3
		c0.4-2.3-1-4.5-3.3-4.9C398.9,125,396.7,126.5,396.3,128.8z"/>
	<path class="st2" d="M463.5,120.4l5.2-0.6l2,5.9l6-4.5l1.2,7.1l4.7-4.3l1.3,5.1l-3.4,17.9l-6.1,3.1c1.4-1.5,2.3-3.5,2.8-5.6
		c1.3-6.5-3-12.8-9.5-14c-6.5-1.3-12.8,3-14,9.5c-0.4,2.2-0.2,4.3,0.5,6.2l-44.9-8.7c1.4-1.5,2.4-3.4,2.8-5.6
		c1.2-6.4-2.9-12.6-9.3-13.8c-6.4-1.2-12.6,2.9-13.8,9.3c-0.4,2.2-0.2,4.3,0.5,6.3l-6.6-7.4l3.4-17.7l30-12.6
		c20.8,4,20.7,4,35.4,6.9L463.5,120.4z M433.3,102.3l-2.3,11.8l26.6,5.1l-9.5-14.1L433.3,102.3z M418.5,99.4l-14.1,9.5l23.7,4.6
		l2.3-11.8L418.5,99.4z"/>
</g>
<path d="M485,169"/>
<g>
	<path class="st2" d="M156.8,127.1c5,0,9,4,9,9c0,5-4,9-9,9c-5,0-9-4-9-9C147.8,131.1,151.8,127.1,156.8,127.1L156.8,127.1z
		 M156.8,131.9c-2.3,0-4.2,1.9-4.2,4.2c0,2.3,1.9,4.2,4.2,4.2c2.3,0,4.2-1.9,4.2-4.2C161,133.8,159.1,131.9,156.8,131.9z"/>
	<path class="st2" d="M223,127.1c5,0,9,4,9,9c0,5-4,9-9,9c-5,0-9-4-9-9C214,131.1,218,127.1,223,127.1L223,127.1z M223,131.9
		c-2.3,0-4.2,1.9-4.2,4.2c0,2.3,1.9,4.2,4.2,4.2c2.3,0,4.2-1.9,4.2-4.2C227.2,133.8,225.3,131.9,223,131.9z"/>
	<path class="st2" d="M177.9,100.1c14.9,0,14.9,0,36.1,0l27.1,18l0,18l-7.9,6c1.1-1.8,1.7-3.8,1.7-6c0-6.5-5.3-11.8-11.8-11.8
		s-11.8,5.3-11.8,11.8c0,2.2,0.6,4.3,1.7,6h-45.7c1-1.8,1.6-3.8,1.6-6c0-6.6-5.4-12-12-12c-6.6,0-12,5.4-12,12c0,2.2,0.6,4.3,1.6,6
		L141,138l0.1-18.2l2.3-4.7l3.8,5.1l2.6-6.7l5,5.5l3.1-5.5l5,1.6L177.9,100.1z M180.9,103.1l-12,12h27.1v-12L180.9,103.1z
		 M198.9,103.1v12H223l-12-12L198.9,103.1z"/>
</g>
<g>
	<path class="st2" d="M123.2,128.6c5,0,9,4,9,9c0,5-4,9-9,9c-5,0-9-4-9-9C114.2,132.6,118.2,128.6,123.2,128.6L123.2,128.6z
		 M119,137.6c0,2.3,1.9,4.2,4.2,4.2c2.3,0,4.2-1.9,4.2-4.2s-1.9-4.2-4.2-4.2C120.9,133.4,119,135.3,119,137.6z"/>
	<path class="st2" d="M57,128.6c5,0,9,4,9,9c0,5-4,9-9,9c-5,0-9-4-9-9C48,132.6,52.1,128.6,57,128.6L57,128.6z M52.8,137.6
		c0,2.3,1.9,4.2,4.2,4.2c2.3,0,4.2-1.9,4.2-4.2s-1.9-4.2-4.2-4.2C54.7,133.4,52.8,135.3,52.8,137.6z"/>
	<path class="st2" d="M117.2,116.6l5-1.6l3.1,5.5l5-5.5l2.6,6.7l3.8-5.1l2.3,4.7l0.1,18.2l-5.4,4.2c1-1.8,1.6-3.8,1.6-6
		c0-6.6-5.4-12-12-12c-6.6,0-12,5.4-12,12c0,2.2,0.6,4.3,1.6,6H67.1c1.1-1.8,1.7-3.8,1.7-6c0-6.5-5.3-11.8-11.8-11.8
		s-11.8,5.3-11.8,11.8c0,2.2,0.6,4.3,1.7,6l-7.9-6l0-18l27.1-18c21.1,0,21.1,0,36.1,0L117.2,116.6z M84.1,104.6v12h27.1l-12-12
		L84.1,104.6z M69,104.6l-12,12h24.1v-12L69,104.6z"/>
</g>
<g>
	<path class="st3" d="M139,103c-1,0-1.8-0.8-1.8-1.8V88.7c0-1,0.8-1.8,1.8-1.8c1,0,1.8,0.8,1.8,1.8v12.6
		C140.8,102.2,140,103,139,103z"/>
	<path class="st3" d="M146.4,104.8c-0.4,0-0.8-0.1-1.2-0.4c-0.7-0.6-0.8-1.8-0.2-2.5l8.3-9.4c0.6-0.7,1.8-0.8,2.5-0.2
		c0.7,0.6,0.8,1.8,0.2,2.5l-8.3,9.4C147.4,104.6,146.9,104.8,146.4,104.8z"/>
	<path class="st3" d="M131.6,104.8c-0.5,0-1-0.2-1.3-0.6l-8.3-9.4c-0.6-0.7-0.6-1.9,0.2-2.5c0.7-0.6,1.9-0.6,2.5,0.2l8.3,9.4
		c0.6,0.7,0.6,1.9-0.2,2.5C132.4,104.7,132,104.8,131.6,104.8z"/>
</g>
<g>
	<path class="st3" d="M139,173.9c-1,0-1.8-0.8-1.8-1.8v-12.6c0-1,0.8-1.8,1.8-1.8c1,0,1.8,0.8,1.8,1.8v12.6
		C140.8,173.1,140,173.9,139,173.9z"/>
	<path class="st3" d="M123.2,169c-0.4,0-0.8-0.1-1.2-0.4c-0.7-0.6-0.8-1.8-0.2-2.5l8.3-9.4c0.6-0.7,1.8-0.8,2.5-0.2
		c0.7,0.6,0.8,1.8,0.2,2.5l-8.3,9.4C124.2,168.8,123.7,169,123.2,169z"/>
	<path class="st3" d="M154.8,169c-0.5,0-1-0.2-1.3-0.6l-8.3-9.4c-0.6-0.7-0.6-1.9,0.2-2.5c0.7-0.6,1.9-0.6,2.5,0.2l8.3,9.4
		c0.6,0.7,0.6,1.9-0.2,2.5C155.6,168.9,155.2,169,154.8,169z"/>
</g>
</svg>
