<?xml version="1.0" encoding="utf-8"?>
<!-- Generator: Adobe Illustrator 19.2.1, SVG Export Plug-In . SVG Version: 6.00 Build 0)  -->
<svg version="1.1"
	 id="Layer_1" xmlns:cc="http://creativecommons.org/ns#" xmlns:dc="http://purl.org/dc/elements/1.1/" xmlns:inkscape="http://www.inkscape.org/namespaces/inkscape" xmlns:rdf="http://www.w3.org/1999/02/22-rdf-syntax-ns#" xmlns:sodipodi="http://sodipodi.sourceforge.net/DTD/sodipodi-0.dtd" xmlns:svg="http://www.w3.org/2000/svg"
	 xmlns="http://www.w3.org/2000/svg" xmlns:xlink="http://www.w3.org/1999/xlink" x="0px" y="0px" viewBox="0 0 253 232.9"
	 style="enable-background:new 0 0 253 232.9;" xml:space="preserve">
<style type="text/css">
	.st0{fill:#F24806;}
	.st1{fill:#DBB412;}
	.st2{fill:#FFFFFF;}
</style>
<g>
	<polygon class="st0" points="80.5,99.7 38.8,80.3 37.1,83.9 81.8,104 	"/>
	<polygon class="st0" points="76.9,112.4 82.1,110.5 45.6,102.4 44.9,105.6 	"/>
	<polygon class="st0" points="170.4,158.8 203,183.7 205.4,180.6 169.1,153.7 	"/>
	<polygon class="st0" points="199,127.5 202.2,129.8 235.2,133 235.5,129.7 197.3,126.3 	"/>
	<polygon class="st0" points="174.8,109.9 175.7,110.6 243.5,95.7 242.6,91.9 176.3,107.2 	"/>
	<polygon class="st0" points="104.6,72.9 92,41.7 89.6,42.7 101.4,71.7 	"/>
	<polygon class="st0" points="160.5,43.7 157.6,42.3 147.3,64.6 148.8,68.6 	"/>
	<polygon class="st0" points="152.1,77.3 186.6,23.2 183.2,21.1 150.7,73.5 	"/>
	<polygon class="st0" points="76.4,151.7 23.6,188.7 25.8,191.9 74.6,156.9 	"/>
	<polygon class="st0" points="99.8,172.2 89.6,196.6 92,197.7 103.2,170.9 	"/>
	<polygon class="st0" points="111.5,167.8 103,208.3 106.2,208.9 113.9,170.9 112.1,167.5 	"/>
	<polygon class="st0" points="138.5,180.4 143.1,196.3 145.6,195.6 140.1,176.7 	"/>
	<ellipse transform="matrix(0.9895 -0.1446 0.1446 0.9895 -11.0524 31.1157)" class="st0" cx="208.5" cy="91.6" rx="2.6" ry="2.6"/>
	
		<ellipse transform="matrix(0.9895 -0.1446 0.1446 0.9895 -19.5529 27.6358)" class="st0" cx="180.3" cy="148.3" rx="2.6" ry="2.6"/>
	<ellipse transform="matrix(0.9895 -0.1446 0.1446 0.9895 -21.2711 9.5136)" class="st0" cx="54.8" cy="151" rx="2.6" ry="2.6"/>
	<ellipse transform="matrix(0.9895 -0.1446 0.1446 0.9895 -11.5111 10.4316)" class="st0" cx="66" cy="84.4" rx="2.6" ry="2.6"/>
	<ellipse transform="matrix(0.9895 -0.1446 0.1446 0.9895 -5.9673 15.2605)" class="st0" cx="102" cy="48.7" rx="2.6" ry="2.6"/>
	<ellipse transform="matrix(0.9895 -0.1446 0.1446 0.9895 -9.8986 8.7901)" class="st0" cx="55.5" cy="72.5" rx="2.6" ry="2.6"/>
	<ellipse transform="matrix(0.9895 -0.1446 0.1446 0.9895 -12.9987 35.9871)" class="st0" cx="241" cy="107.4" rx="5.3" ry="5.3"/>
	<ellipse transform="matrix(0.9895 -0.1446 0.1446 0.9895 -3.9524 14.8147)" class="st0" cx="99.9" cy="34.6" rx="5.3" ry="5.3"/>
	
		<ellipse transform="matrix(0.9895 -0.1446 0.1446 0.9895 -29.1813 20.3963)" class="st0" cx="125.7" cy="210.9" rx="5.3" ry="5.3"/>
	<ellipse transform="matrix(0.9895 -0.1446 0.1446 0.9895 -26.3582 9.6466)" class="st0" cx="53.2" cy="186.1" rx="5.3" ry="5.3"/>
	<ellipse transform="matrix(0.9895 -0.1446 0.1446 0.9895 -4.3605 27.8504)" class="st0" cx="189.4" cy="43.9" rx="5.3" ry="5.3"/>
	<ellipse transform="matrix(0.9895 -0.1446 0.1446 0.9895 -14.6447 5.4833)" class="st0" cx="30.4" cy="103.5" rx="5.3" ry="5.3"/>
	<ellipse transform="matrix(0.9895 -0.1446 0.1446 0.9895 -25.3655 33.0979)" class="st0" cx="214.9" cy="191" rx="5.3" ry="5.3"/>
</g>
<path class="st1" d="M83.5,83.8l25,18.2l9.6,7l2-11.7l3-17.7l4.7,19.9l2.5,10.7l8.9-6.5l14.3-10.4l-9.7,13.2l-9.6,13.1l16.2-1.4
	l20-1.8l-19,8.7l-12.5,5.7l11.8,7.2l7.3,4.4l-9.2-1.2l-11.7-1.5l3.8,11.2l4.7,13.9l-11.8-9.7l-9.8-8.1l-2.1,12.5l-1.4,8.1l-2.1-9.2
	l-3.5-15.2l-5.9,7.8l3.6-10.2l-15.3,6.5L80,154.5l14-13.1l10-9.4l-13.3-3.1L74.2,125l17.7-2.7l9.9-1.5l-4.4-9L83.5,83.8 M121.9,42.4
	l-9,53.6L63.7,60.3l27.1,54.8l-55.1,8.4L89,136.1l-44.4,41.4l55.5-23.6l-13.5,38.6l24.6-32.5l10.4,44.8l7.5-44.1l31.7,26.2l-13-38.4
	l43.5,5.7l-36.8-22.4l57.8-26.4l-62.5,5.6l37.5-51.1l-52.4,38.1L121.9,42.4L121.9,42.4z"/>
<path d="M122,0"/>
<g>
	<path class="st2" d="M139.8,119.9c5,0,9,4,9,9c0,5-4,9-9,9c-5,0-9-4-9-9C130.8,124,134.8,119.9,139.8,119.9L139.8,119.9z
		 M139.8,124.7c-2.3,0-4.2,1.9-4.2,4.2c0,2.3,1.9,4.2,4.2,4.2c2.3,0,4.2-1.9,4.2-4.2C144,126.6,142.1,124.7,139.8,124.7z"/>
	<path class="st2" d="M206,119.9c5,0,9,4,9,9c0,5-4,9-9,9c-5,0-9-4-9-9C197,124,201,119.9,206,119.9L206,119.9z M206,124.7
		c-2.3,0-4.2,1.9-4.2,4.2c0,2.3,1.9,4.2,4.2,4.2c2.3,0,4.2-1.9,4.2-4.2C210.2,126.6,208.3,124.7,206,124.7z"/>
	<path class="st2" d="M160.9,92.9c14.9,0,14.9,0,36.1,0l27.1,18l0,18l-7.9,6c1.1-1.8,1.7-3.8,1.7-6c0-6.5-5.3-11.8-11.8-11.8
		c-6.5,0-11.8,5.3-11.8,11.8c0,2.2,0.6,4.3,1.7,6h-45.7c1-1.8,1.6-3.8,1.6-6c0-6.6-5.4-12-12-12c-6.6,0-12,5.4-12,12
		c0,2.2,0.6,4.3,1.6,6l-5.4-4.2l0.1-18.2l2.3-4.7l3.8,5.1l2.6-6.7l5,5.5l3.1-5.5l5,1.6L160.9,92.9z M163.9,95.9l-12,12h27.1v-12
		L163.9,95.9z M181.9,95.9v12H206l-12-12L181.9,95.9z"/>
</g>
<g>
	<path class="st2" d="M106.2,121.4c5,0,9,4,9,9c0,5-4,9-9,9c-5,0-9-4-9-9C97.2,125.4,101.2,121.4,106.2,121.4L106.2,121.4z
		 M102,130.4c0,2.3,1.9,4.2,4.2,4.2c2.3,0,4.2-1.9,4.2-4.2c0-2.3-1.9-4.2-4.2-4.2C103.9,126.2,102,128.1,102,130.4z"/>
	<path class="st2" d="M40,121.4c5,0,9,4,9,9c0,5-4,9-9,9c-5,0-9-4-9-9C31,125.4,35.1,121.4,40,121.4L40,121.4z M35.8,130.4
		c0,2.3,1.9,4.2,4.2,4.2c2.3,0,4.2-1.9,4.2-4.2c0-2.3-1.9-4.2-4.2-4.2C37.7,126.2,35.8,128.1,35.8,130.4z"/>
	<path class="st2" d="M100.2,109.4l5-1.6l3.1,5.5l5-5.5l2.6,6.7l3.8-5.1l2.3,4.7l0.1,18.2l-5.4,4.2c1-1.8,1.6-3.8,1.6-6
		c0-6.6-5.4-12-12-12c-6.6,0-12,5.4-12,12c0,2.2,0.6,4.3,1.6,6H50.1c1.1-1.8,1.7-3.8,1.7-6c0-6.5-5.3-11.8-11.8-11.8
		s-11.8,5.3-11.8,11.8c0,2.2,0.6,4.3,1.7,6l-7.9-6l0-18l27.1-18c21.1,0,21.1,0,36.1,0L100.2,109.4z M67.1,97.4v12h27.1l-12-12
		L67.1,97.4z M52,97.4l-12,12h24.1v-12L52,97.4z"/>
</g>
<path d="M122,165"/>
</svg>
