<?xml version="1.0" encoding="utf-8"?>
<!-- Generator: Adobe Illustrator 19.2.1, SVG Export Plug-In . SVG Version: 6.00 Build 0)  -->
<svg version="1.1" id="Layer_1" xmlns="http://www.w3.org/2000/svg" xmlns:xlink="http://www.w3.org/1999/xlink" x="0px" y="0px"
	 viewBox="0 0 89 80" style="enable-background:new 0 0 89 80;" xml:space="preserve">
<style type="text/css">
	.st0{fill:#FFFFFF;}
</style>
<path class="st0" d="M65,7.5h-2.5c-0.7,0-1.2,0.6-1.2,1.2s0.6,1.2,1.2,1.2H65c2.1,0,3.8,1.7,3.8,3.8v60c0,2.1-1.7,3.8-3.8,3.8H25
	c-2.1,0-3.8-1.7-3.8-3.8v-60c0-2.1,1.7-3.8,3.8-3.8h2.5c0.7,0,1.2-0.6,1.2-1.2s-0.6-1.2-1.2-1.2H25c-3.4,0-6.2,2.8-6.2,6.2v60
	c0,3.4,2.8,6.2,6.2,6.2h40c3.4,0,6.2-2.8,6.2-6.2v-60C71.2,10.3,68.4,7.5,65,7.5z M25,15c-0.7,0-1.2,0.6-1.2,1.2v55
	c0,0.7,0.6,1.2,1.2,1.2h40c0.7,0,1.2-0.6,1.2-1.2v-55c0-0.7-0.6-1.2-1.2-1.2s-1.2,0.6-1.2,1.2V70H26.2V16.2C26.2,15.6,25.7,15,25,15
	z M32.5,15h25c0.4,0,0.8-0.2,1-0.5c0.2-0.3,0.3-0.7,0.2-1.1l-2.5-7.5C56,5.3,55.5,5,55,5h-3.9C50.5,2.1,48,0,45,0
	c-3,0-5.5,2.1-6.1,5H35c-0.5,0-1,0.3-1.2,0.9l-2.5,7.5c-0.1,0.4-0.1,0.8,0.2,1.1C31.7,14.8,32.1,15,32.5,15z M35.9,7.5H40
	c0.7,0,1.2-0.6,1.2-1.2c0-2.1,1.7-3.8,3.8-3.8s3.8,1.7,3.8,3.8c0,0.7,0.6,1.2,1.2,1.2h4.1l1.7,5H34.2L35.9,7.5z M44.1,5.4
	c-0.2,0.2-0.4,0.6-0.4,0.9s0.1,0.6,0.4,0.9c0.2,0.2,0.5,0.4,0.9,0.4s0.7-0.1,0.9-0.4c0.2-0.2,0.4-0.6,0.4-0.9s-0.1-0.6-0.4-0.9
	C45.4,4.9,44.6,4.9,44.1,5.4z M32.5,25h20c0.7,0,1.2-0.6,1.2-1.2s-0.6-1.2-1.2-1.2h-20c-0.7,0-1.2,0.6-1.2,1.2
	C31.2,24.4,31.8,25,32.5,25z M32.5,32.5H40c0.7,0,1.2-0.6,1.2-1.2S40.7,30,40,30h-7.5c-0.7,0-1.2,0.6-1.2,1.2S31.8,32.5,32.5,32.5z
	 M32.5,40h15c0.7,0,1.2-0.6,1.2-1.2s-0.6-1.2-1.2-1.2h-15c-0.7,0-1.2,0.6-1.2,1.2S31.8,40,32.5,40z M32.5,47.5h20
	c0.7,0,1.2-0.6,1.2-1.2S53.2,45,52.5,45h-20c-0.7,0-1.2,0.6-1.2,1.2S31.8,47.5,32.5,47.5z M32.5,55H40c0.7,0,1.2-0.6,1.2-1.2
	s-0.6-1.2-1.2-1.2h-7.5c-0.7,0-1.2,0.6-1.2,1.2S31.8,55,32.5,55z M32.5,62.5h15c0.7,0,1.2-0.6,1.2-1.2S48.2,60,47.5,60h-15
	c-0.7,0-1.2,0.6-1.2,1.2S31.8,62.5,32.5,62.5z"/>
</svg>
