<?xml version="1.0" encoding="utf-8"?>
<!-- Generator: Adobe Illustrator 19.2.1, SVG Export Plug-In . SVG Version: 6.00 Build 0)  -->
<svg version="1.1" id="Layer_1" xmlns="http://www.w3.org/2000/svg" xmlns:xlink="http://www.w3.org/1999/xlink" x="0px" y="0px"
	 viewBox="0 0 96 82" style="enable-background:new 0 0 96 82;" xml:space="preserve">
<style type="text/css">
	.st0{fill:#FFFFFF;}
</style>
<g>
	<path class="st0" d="M78.4,35.4c-2.3-2.4-5.6-2.6-9.4-2.5H17.4c-0.8,0-1.5,0.7-1.5,1.5c0,11.3,5.7,20.4,14.7,24.9h-4.5
		c-2.6,0-4.7,2.1-4.7,4.7c0,2.6,2.1,4.7,4.7,4.7h35.2c2.6,0,4.7-2.1,4.7-4.7c0-2.6-2.1-4.7-4.7-4.7h-4.9c3.3-1.6,6.1-3.9,8.5-6.6
		c7.1-0.1,12.4-4.5,14.3-8.7C80.7,40.7,80.4,37.5,78.4,35.4z M63,63.9c0,0.9-0.8,1.7-1.7,1.7H26.1c-0.9,0-1.7-0.8-1.7-1.7
		c0-0.9,0.8-1.7,1.7-1.7h35.2C62.2,62.2,63,63,63,63.9z M18.9,35.8h49.6c-0.1,0.9-0.2,1.8-0.3,2.7H49.9c-0.8,0-1.5,0.7-1.5,1.5
		s0.7,1.5,1.5,1.5h17.6c-0.3,0.9-0.5,1.7-0.9,2.5c-0.1,0-0.1,0-0.2,0H49.9c-0.8,0-1.5,0.7-1.5,1.5s0.7,1.5,1.5,1.5h15.2
		c-0.5,0.9-1.1,1.7-1.7,2.5H49.9c-0.8,0-1.5,0.7-1.5,1.5s0.7,1.5,1.5,1.5h10.8c-4.4,4.1-10.4,6.6-17.1,6.6
		C29.6,59.2,19.6,49.6,18.9,35.8z M76.5,42.6c-1.4,3-4.8,5.8-9.2,6.7c2.5-3.9,4-8.5,4.2-13.5c2.2,0.1,3.7,0.5,4.7,1.6
		C77.8,39.2,76.9,41.6,76.5,42.6z"/>
	<path class="st0" d="M47,24.9c0.3,1.6,1.3,2.9,2.7,3.8c0.2,0.1,0.5,0.2,0.8,0.2c0.5,0,1-0.3,1.3-0.7c0.4-0.7,0.2-1.6-0.5-2.1
		c-0.7-0.4-1.2-1-1.3-1.7c-0.2-1,0.4-2,1-2.6c2.7-3.2,0.8-6.6-0.7-8c-0.6-0.6-1.5-0.6-2.1,0c-0.6,0.6-0.6,1.5,0,2.1
		c0.2,0.2,2,2,0.5,3.8C46.9,21.9,46.8,23.7,47,24.9z"/>
	<path class="st0" d="M35.2,24.9c0.3,1.6,1.3,2.9,2.7,3.8c0.2,0.1,0.5,0.2,0.8,0.2c0.5,0,1-0.3,1.3-0.7c0.4-0.7,0.2-1.6-0.5-2.1
		c-0.7-0.4-1.2-1-1.3-1.7c-0.2-1,0.4-2,1-2.6c2.7-3.2,0.8-6.6-0.7-8c-0.6-0.6-1.5-0.6-2.1,0c-0.6,0.6-0.6,1.5,0,2.1
		c0.2,0.2,2,2,0.5,3.8C35.2,21.9,35,23.7,35.2,24.9z"/>
</g>
</svg>
