<?xml version="1.0" encoding="utf-8"?>
<!-- Generator: Adobe Illustrator 19.2.1, SVG Export Plug-In . SVG Version: 6.00 Build 0)  -->
<svg version="1.1" id="Layer_1" xmlns="http://www.w3.org/2000/svg" xmlns:xlink="http://www.w3.org/1999/xlink" x="0px" y="0px"
	 viewBox="0 0 100 95" style="enable-background:new 0 0 100 95;" xml:space="preserve">
<style type="text/css">
	.st0{fill:#FFFFFF;}
</style>
<g>
	<path class="st0" d="M80.9,25H54.2h-8.5H19.1c-0.5,0-1,0.4-1,1v48c0,0.5,0.4,1,1,1h26.1h9.6h26.1c0.5,0,1-0.4,1-1V26
		C81.8,25.4,81.4,25,80.9,25z M79.1,27l-1.8,1.8c0,0-0.1,0-0.1,0H23.4L21.6,27H79.1z M76.1,30.7v38.4h-3.6H60.7H24.2V30.7H76.1z
		 M20.1,28.3l2.2,2.2v39.2l-2.2,2.2V28.3z M21.7,73l1.8-1.8h38.1h9.9h5.6c0,0,0,0,0,0l1.8,1.8H21.7z M79.9,71.2l-1.8-1.8V30.7
		l1.8-1.8V71.2z"/>
	<path class="st0" d="M46.3,23.8l4.9-4.9l4.9,4.9c0.4,0.4,1,0.4,1.4,0c0.4-0.4,0.4-1,0-1.4l-5.6-5.6c-0.4-0.4-1-0.4-1.4,0l-5.6,5.6
		c-0.4,0.4-0.4,1,0,1.4C45.3,24.2,45.9,24.2,46.3,23.8z"/>
</g>
</svg>
