<?xml version="1.0" encoding="utf-8"?>
<!-- Generator: Adobe Illustrator 19.2.1, SVG Export Plug-In . SVG Version: 6.00 Build 0)  -->
<svg version="1.1" id="Layer_1" xmlns="http://www.w3.org/2000/svg" xmlns:xlink="http://www.w3.org/1999/xlink" x="0px" y="0px"
	 viewBox="0 0 570.6 231.3" style="enable-background:new 0 0 570.6 231.3;" xml:space="preserve">
<style type="text/css">
	.st0{fill:#FFFFFF;}
</style>
<path class="st0" d="M569.5,112.6c-8.8,0-17.4,0.1-26-0.1c-3-0.1-3.8,1-3.8,3.8c0.1,11.2-0.1,22.3,0.1,33.5c0,1.5,1.5,3.2,2.7,4.4
	c8,8,16,16.1,24.2,23.9c2.7,2.6,3.9,5.3,3.8,9c-0.2,12.4-0.1,24.8-0.1,37.1c0,3.2-1.7,5-5.2,5.3c-2.6,0.2-5.3,0.1-7.9,0.1
	c-164.5,0-328.9,0-493.4,0c-4,0-8-0.7-11.9,1.3c-0.9,0.5-3.2-0.6-4.2-1.6c-4.8-4.8-9.1-9.9-13.9-14.6c-6.4-6.3-13.1-12.2-19.4-18.4
	c-4.5-4.4-8.9-9.1-13.2-13.8c-0.8-0.9-1.3-2.4-1.3-3.6C0,133.1,0,87,0,40.9c0-3.4,0.1-6.9,0.1-10.3c0-3.7,0.9-4.6,4.6-4.7
	c4.1,0,8.1,0,12.2,0c112.3,0,224.6,0,336.9,0c2.3,0,5.2,0.8,6.8-0.3c1.4-1,1.5-4,2.2-6.1c3-9.7,9.1-16.6,19.2-18.7
	c15.8-3.3,29.6,4.3,33.2,20.7c1.2,5.1,0.1,4.5,5.9,4.5c30.5,0,60.9,0.3,91.4-0.2c6.9-0.1,9.5,4.7,13.5,8.2c4.4,4,8.4,8.3,12.6,12.5
	c5.1,5.2,10.2,10.5,15.4,15.7c4.4,4.4,8.9,8.7,13.2,13.3c1.1,1.2,1.9,3.3,1.9,5c0.2,9.1,0,18.3,0.1,27.4
	C569.2,109.4,569.4,110.8,569.5,112.6z M7.2,29.9c0.3,1.1,0.3,1.4,0.5,1.6c11,11,22.1,21.9,33.1,32.9c3,3,5.8,6.2,8.8,9.2
	c2.7,2.7,5.5,4.4,9.8,4.4c56-0.2,112.1-0.1,168.1-0.1c110.9,0,221.7,0,332.6,0c0.8,0,1.7-0.2,3.4-0.3c-16.3-16.5-32-32.4-47.5-48.1
	c-2.1,0.2-4,0.5-5.9,0.5c-21.1,0-42.2,0-63.4-0.1c-9.4,0-18.9,0-28.3,0c-1.7,0-2.9,0.2-3.2,2.3c-1.3,8.4-6.7,13.9-13.5,18
	c-7.1,4.3-15,4.4-22.6,1.5c-7.4-2.8-12.8-8.1-15.7-15.6c-2.3-6.1-2.2-6.2-8.1-6.2c-111.6,0-223.2,0-334.8,0
	C16.2,29.9,11.9,29.9,7.2,29.9z M55.2,150.7c-2.7,3.3-1.8,6.6-1.8,9.6c-0.1,20.8,0,41.6-0.1,62.4c0,2.2,0.6,3.2,3,3.1
	c3-0.1,6.1,0,9.1,0c163.1,0,326.1,0,489.2,0c2.6,0,5.3,0.1,7.9,0c2.8,0,4.1-1.3,4.1-4.1c0-10.7-0.1-21.3-0.1-32
	c0-1.8-0.7-2.7-2.5-2.6c-2.1,0-4.3,0-6.4,0c-152.8,0-305.6,0.1-458.4,0.1c-1.1,0-2.5-0.3-3.2,0.2c-2.3,1.6-3.5,0.2-4.9-1.2
	c-9-8.9-17.9-17.9-26.9-26.8C61.2,156.7,58.3,153.8,55.2,150.7z M58.4,112.6c-0.1,0.3-0.2,0.5-0.3,0.8c4.1,4.3,8,8.7,12.2,12.9
	c7.7,7.7,15.5,15.4,23.4,22.9c1.1,1,2.9,1.9,4.4,1.9c67.8,0.1,135.6,0.1,203.4,0.2c9.4,0,18.9,0,28.3,0.1c2,0,2.6-0.7,2.9-2.6
	c1.1-6.6,4.3-12.5,9.5-16.4c7.5-5.7,16.1-7.5,25.4-4.6c9.9,3.2,15.8,10.1,18.1,20c0.6,2.5,1.6,3.6,4.2,3.6
	c6.6-0.2,13.2-0.2,19.8-0.1c2,0,2.5-0.6,2.8-2.5c0.9-7,3.8-13.2,9.4-17.5c15.6-12.1,40.1-5.6,44.1,16.4c0.5,2.8,1.5,3.7,4.3,3.6
	c20.9-0.1,41.8-0.1,62.7,0c2.1,0,2.7-0.7,2.7-2.6c0-11-0.1-21.9,0-32.9c0-2.5-0.9-3.3-3.3-3.1c-2.2,0.1-4.5,0-6.7,0
	c-97.8,0-195.5,0-293.3,0c-1.9,0-3.9,0-5.8-0.1c-2.1-0.1-3.1,0.8-3.4,2.9c-0.3,1.9-0.7,3.8-1.5,5.5c-7,14.3-21.6,20.4-36.3,13.9
	c-8.4-3.8-13.7-10.5-15.3-19.7c-0.4-2-1.2-2.7-3.2-2.7c-6.1,0.1-12.2,0.2-18.3,0.1c-2.6-0.1-3.4,0.9-4,3.4c-0.7,3.1-1.6,6.3-3.1,9.1
	c-5.2,10-18.7,16.2-29.2,13.4c-11.3-3-19.9-11.4-21.1-23.5c-0.2-1.9-1-2.4-2.7-2.3c-6.4,0.1-12.8,0.1-19.2,0.1
	C65.9,112.6,62.2,112.6,58.4,112.6z M310.1,81.9c-52.3,0-104.5,0-156.8,0c-22.1,0-44.3,0-66.4,0c-9.7,0-19.5,0.1-29.2,0.1
	c-2.3,0-3,0.8-3,3c0.1,6.9,0.1,13.8,0,20.7c0,2,0.5,2.9,2.8,2.9c9.3-0.1,18.7,0,28,0c5.7,0,5.7,0,7.4-5.6c0.2-0.6,0.4-1.1,0.7-1.7
	c5.8-12.8,16.6-17.3,29.6-15.6c11.1,1.5,18,8.7,21.2,18.9c1.1,3.6,2.4,4.1,5.6,4c5.9-0.2,11.8-0.2,17.7,0c2,0.1,2.4-0.6,2.7-2.3
	c2-11.8,11.7-22.2,26.3-22.3c14.1-0.1,22.7,8.1,26.6,19.5c1.7,5.1,1.3,5.2,6.5,5.1c0.5,0,1,0,1.5,0c98.8,0,197.6,0,296.4,0
	c11.6,0,23.1-0.1,34.7,0c2.4,0,3-0.8,2.9-3c-0.1-5.2,0-10.4-0.1-15.5c-0.2-9.3,1.6-8.1-8-8.1C474.8,81.8,392.4,81.9,310.1,81.9z
	 M565.3,182.4c-3.9-4-7.2-7.6-10.7-11c-2.3-2.2-4.9-4.1-7.2-6.3c-2.8-2.6-5.2-5.5-8.1-8c-1.1-1-2.9-1.7-4.4-1.8
	c-5.7-0.2-11.4-0.1-17-0.1c-16.1,0-32.3,0-48.4,0c-1.8,0-3,0.2-3.5,2.4c-2.1,9.7-8.3,16.4-17.3,19.5c-13.7,4.7-25.8-0.7-32.9-12.4
	c-1.4-2.3-1.8-5.1-2.9-7.6c-0.3-0.8-1.3-1.7-2-1.8c-7.4-0.1-14.8-0.1-22.2,0c-0.8,0-2.2,1.3-2.3,2.1c-0.9,6.6-4.5,11.4-9.1,15.9
	c-6.7,6.6-15.1,7.9-23.3,6c-11.4-2.6-18.8-10.2-21.1-22.2c-0.2-0.8-1.4-1.6-2.3-2c-0.9-0.4-2-0.1-3-0.1c-73.4,0-146.8,0-220.2,0
	c-2.6,0-5.3,0-7.9-0.1c-2.2-0.1-3.3,0.6-3.2,3.1c0.2,5.1-0.1,10.1,0,15.2c0,3-0.9,7.3,0.7,8.7c1.8,1.6,5.9,1,9,1
	c107.2,0,214.4,0,321.6-0.1c44.9,0,89.7,0,134.6,0C562.8,183.2,563.8,182.8,565.3,182.4z M91.6,181.2c0.3-1.6,0.5-2.2,0.5-2.8
	c0-7.4,0.1-14.8,0-22.2c0-1.1-0.6-2.4-1.3-3.2c-1.9-2.3-4-4.3-6-6.5c-3.7-4-7.4-8-11.1-12c-2.7-2.8-5.4-5.6-8.3-8.3
	c-3.5-3.2-6.1-7.2-10.7-9.2c-2.2-1-4.1-3.1-4-6.4c0.2-9.3,0.1-18.7,0-28c0-1.2-0.4-2.8-1.3-3.6c-5.8-5.8-11.7-11.5-17.5-17.3
	C26,55.9,20.3,50,14.5,44.2c-3-3-6.2-5.9-9.7-9.2C4.5,36.7,4,38.3,4,40c0,15.1,0,30.2,0,45.4c0,30.3,0,60.7,0.1,91
	c0,1.7,0.8,3.8,1.9,5c4.9,5.3,10.1,10.3,15.1,15.4c2.1,2.1,3.9,4.5,6,6.7c5.5,5.6,10.9,11.2,16.5,16.7c1.4,1.4,3.3,2.5,5.7,4.3
	c0-2.9,0-4.8,0-6.6c0-22.6-0.1-45.3-0.1-67.9c0-1.6-0.2-3.3,0.1-4.8c0.1-0.9,0.7-1.9,1.4-2.6c0.2-0.2,1.4,0,1.9,0.4
	c2.4,2.2,4.8,4.6,7.1,6.9c9.1,9.1,18.2,18.2,27.3,27.3C88.3,178.4,89.7,179.5,91.6,181.2z M388.9,49.1c10.9,0.8,23.3-9.6,22.7-22.9
	c-0.6-12.6-9.9-21.9-22.7-22c-14.2-0.1-22.6,11.5-22.8,22C365.9,39.5,377.1,49.7,388.9,49.1z M343.3,138.5c-4,4.6-5,8.9-4.6,15.7
	c0.4,5.9,2.3,10.7,6,14.5c2.2,2.3,18.9,14.4,33.2-4c5.5-9.1,4.7-18.5-2.3-26.3c-6.1-6.9-16.6-9.6-25.8-5.6
	C346.3,135,344.9,136.7,343.3,138.5z M440.1,130.8c-12.1,0.4-22,8.9-21.9,20.4c0.2,13.3,9.3,21.4,21.2,21.5
	c12.6,0.1,22.3-8.2,22.3-20.8C461.7,140,452.1,131.5,440.1,130.8z"/>
</svg>
