<?xml version="1.0" encoding="utf-8"?>
<!-- Generator: Adobe Illustrator 19.2.1, SVG Export Plug-In . SVG Version: 6.00 Build 0)  -->
<svg version="1.1" id="Layer_1" xmlns="http://www.w3.org/2000/svg" xmlns:xlink="http://www.w3.org/1999/xlink" x="0px" y="0px"
	 viewBox="0 0 1282 522.4" style="enable-background:new 0 0 1282 522.4;" xml:space="preserve">
<style type="text/css">
	.st0{display:none;fill:#666161;}
	.st1{fill:#FFFFFF;}
	.st2{fill:#ED1C24;}
	.st3{fill:none;}
	.st4{font-family:'FranklinGothic-Book';}
	.st5{font-size:25px;}
	.st6{fill:none;stroke:#FFFFFF;stroke-miterlimit:10;}
</style>
<rect x="-62" y="-74" class="st0" width="1485" height="750"/>
<path class="st1" d="M38.7,0.1c3.9,0,7.4,0.1,10.9,0c4-0.2,5.3,1.5,5.3,5.5c-0.1,16.7,0.2,33.3,0.2,50C55,127,54.9,198.4,54.8,269.8
	c0,14.7-0.3,14.9-16.1,12.2C38.7,188.4,38.7,94.8,38.7,0.1z"/>
<path class="st1" d="M82.8,282.3c-5.5,0-10.1,0-15.4,0c0-92.6,0-184.7,0-277.3c5.3,0,10,0,15.4,0C82.8,97.4,82.8,189.5,82.8,282.3z"
	/>
<path class="st1" d="M110.9,282.2c-5.4,0-10,0-15.2,0c0-82.4,0-164.4,0-246.9c5,0,9.6,0,15.2,0C110.9,117.3,110.9,199.4,110.9,282.2
	z"/>
<path class="st1" d="M124.2,282.7c0-81.3,0-161.2,0-241.7c5.3,0,10.1,0,15.8,0c0,7,0,13.8,0,20.6c0.2,43.3,0.4,86.6,0.4,129.9
	c0,28.3-0.4,56.6-0.4,84.9c0,4.5-1.2,6.7-6,6.3C131.1,282.5,128,282.7,124.2,282.7z"/>
<path class="st1" d="M168.1,282.2c-5.2,0-9.8,0-15.1,0c0-80.3,0-160.2,0-240.6c5,0,9.6,0,15.1,0
	C168.1,121.8,168.1,201.8,168.1,282.2z"/>
<path class="st1" d="M181.5,55.1c5.6,0,10.5,0,15.7,0c0,18.7,0,36.9,0,55.2c0,53.3,0,106.6,0,159.9c0,14.3-0.5,14.7-15.7,11.4
	C181.5,206.4,181.5,131.1,181.5,55.1z"/>
<path class="st1" d="M254.1,282.2c-5.6,0-10.3,0-15.5,0c0-73.7,0-146.8,0-220.5c5.2,0,10,0,15.5,0
	C254.1,135.3,254.1,208.4,254.1,282.2z"/>
<path class="st1" d="M225.2,282.2c-5.2,0-9.8,0-15,0c0-73.8,0-147.2,0-221c4.9,0,9.6,0,15,0C225.2,134.7,225.2,208.2,225.2,282.2z"
	/>
<path class="st1" d="M295.7,62.6c5.6,0,10,0,15.3,0c0,73.1,0,146,0,219.5c-5.1,0-9.9,0-15.3,0C295.7,209.1,295.7,136.2,295.7,62.6z"
	/>
<path class="st1" d="M267.3,62.1c5.3,0,9.8,0,15.4,0c0,3,0,5.8,0,8.5c0,66.6,0,133.3,0,199.9c0,13.6-0.6,14-15.4,11.1
	C267.3,208.9,267.3,135.9,267.3,62.1z"/>
<path class="st1" d="M324.4,282.3c0-72.5,0-144.4,0-216.7c5.3,0,9.9,0,15.1,0c0,72.3,0,144.3,0,216.7
	C334.7,282.3,330.1,282.3,324.4,282.3z"/>
<path class="st1" d="M368.1,282.3c-5,0-9.6,0-15,0c0-69.8,0-139.5,0-209.6c4.9,0,9.6,0,15,0C368.1,142.4,368.1,212.2,368.1,282.3z"
	/>
<path class="st1" d="M381.7,73.9c5.2,0,9.7,0,14.9,0c0,69.4,0,138.8,0,208.5c-4.8,0-9.5,0-14.9,0
	C381.7,212.9,381.7,143.8,381.7,73.9z"/>
<path class="st1" d="M410.1,82.8c5.3,0,10,0,15.3,0c0,66.4,0,132.5,0,199.2c-5,0-9.8,0-15.3,0C410.1,215.7,410.1,149.4,410.1,82.8z"
	/>
<path class="st1" d="M511.2,282.3c-5.6,0-10.4,0-16,0c0-60.8,0-121,0-182c5,0,10.3,0,16,0C511.2,160.8,511.2,221.1,511.2,282.3z"/>
<path class="st1" d="M438.9,89.9c5.1,0,9.7,0,15,0c0,64.1,0,128,0,192.3c-4.8,0-9.5,0-15,0C438.9,218.2,438.9,154.2,438.9,89.9z"/>
<path class="st1" d="M482.7,281.9c-15.7,2.4-15.7,2.4-15.7-12c0-53.5,0-107.1,0-160.6c0-6.1,0-12.2,0-18.8c5.6,0,10.5,0,15.7,0
	C482.7,154.4,482.7,217.9,482.7,281.9z"/>
<path class="st1" d="M552.8,111.2c5.1,0,10,0,16,0c0,11.9,0,23.5,0,35.1c-0.1,41.9-0.2,83.7-0.3,125.6c0,11.1,0,11.1-11.3,10.7
	c-1.2,0-2.3-0.2-4.4-0.4C552.8,225.2,552.8,168.4,552.8,111.2z"/>
<path class="st1" d="M625.4,282.4c-5.3,0-10.2,0-16,0c0-2.9,0-5.5,0-8c0-49.9,0-99.8,0-149.8c0-10.4,0-10.4,10.4-10.2
	c1.6,0,3.3,0.2,5.6,0.3C625.4,170.6,625.4,226.3,625.4,282.4z"/>
<path class="st1" d="M638.3,115.5c5.7,0,10.4,0,15.6,0c0,55.7,0,111,0,166.7c-5.2,0-10.1,0-15.6,0
	C638.3,226.6,638.3,171.4,638.3,115.5z"/>
<path class="st1" d="M524.3,106.1c5.5,0,10.2,0,15.3,0c0,59,0,117.4,0,176.2c-5.2,0-9.9,0-15.3,0C524.3,224,524.3,165.4,524.3,106.1
	z"/>
<path class="st1" d="M682.5,282.7c-3.8,0-6.9,0.1-9.9,0c-1.8,0-3.7-0.3-5.9-0.4c0-53.3,0-106.3,0-159.7c5.4,0,10.3,0,15.8,0
	C682.5,175.6,682.5,228.5,682.5,282.7z"/>
<path class="st1" d="M711,124.9c0,52.9,0,105.1,0,157.4c-5.4,0-10.1,0-15.7,0c0-3.2,0-5.9,0-8.7c0-46.1,0-92.2,0-138.3
	c0-13.2-1.2-10.7,11.7-11C708,124.2,709.2,124.6,711,124.9z"/>
<path class="st1" d="M596.6,282.3c-5,0-9.7,0-14.9,0c-0.1-3-0.4-5.5-0.4-8.1c0-37.5,0-75.1,0-112.6c0-15,0.2-29.9-0.1-44.9
	c-0.2-7.5,4.9-5.3,8.8-5.6c4.1-0.3,7.2-0.3,7.2,5.7c-0.2,54.2-0.1,108.4-0.1,162.7C597,280.1,596.8,280.8,596.6,282.3z"/>
<path class="st1" d="M739.7,282.3c-5.3,0-10.1,0-15.7,0c0-51.4,0-102.4,0-153.9c5.2,0,10.1,0,15.7,0
	C739.7,179.6,739.7,230.8,739.7,282.3z"/>
<path class="st1" d="M768.3,282.4c-5.5,0-10.3,0-15.7,0c0-49.1,0-97.7,0-146.9c5.4,0,10.2,0,15.7,0
	C768.3,184.4,768.3,233.2,768.3,282.4z"/>
<path class="st1" d="M781,139.6c5.5,0,10.3,0,15.7,0c0,47.6,0,94.9,0,142.7c-5.4,0-10.3,0-15.7,0C781,234.7,781,187.5,781,139.6z"/>
<path class="st1" d="M854.1,281.9c-16,2.6-16.1,2.5-16.1-12.3c0-41.1,0-82.3,0-124c5.3,0,10.4,0,16.1,0
	C854.1,190.8,854.1,236.1,854.1,281.9z"/>
<path class="st1" d="M867,281.7c0-45,0-90.1,0-135.9c4.8,0,9.9,0,15.6,0c0,5,0,10.4,0,15.7c0,36.4,0.1,72.8,0,109.1
	C882.7,284.1,881.7,284.7,867,281.7z"/>
<path class="st1" d="M809.5,282.7c0-46.6,0-92.2,0-138.9c4.4,0,8.6-0.3,12.7,0.2c1.3,0.2,3.3,2.5,3.3,3.9c0.1,42.8-0.1,85.6,0,128.3
	c0,5.1-1.7,6.9-6.6,6.5C816.1,282.5,813.2,282.7,809.5,282.7z"/>
<path class="st1" d="M895.5,148.3c15.1-2.6,15.4-2.3,15.4,11.4c0,38.1,0,76.1,0,114.2c0,2.6,0,5.1,0,8.2c-5.4,0-10.1,0-15.3,0
	C895.5,237.6,895.5,193.2,895.5,148.3z"/>
<path class="st1" d="M923.7,282.1c0-43.8,0-86.8,0-130.5c5.2,0,10,0,15.5,0c0.1,3.2,0.4,6.2,0.4,9.2c0,37.1,0,74.2,0,111.3
	c0,10.9,0,10.9-11,10.5C927.3,282.7,925.9,282.4,923.7,282.1z"/>
<path class="st1" d="M967.8,154.3c0,42.6,0,84.8,0,127.8c-5.2,0-10,0-15.3,0c0-42.6,0-84.9,0-127.8
	C957.3,154.3,962,154.3,967.8,154.3z"/>
<path class="st1" d="M981.2,159.1c5.3,0,9.9,0,16.1,0c0,11.4,0.1,22.5,0,33.6c-0.1,25.7-0.4,51.4-0.5,77.1
	c-0.1,14.4-0.4,14.7-15.6,12.1C981.2,241.2,981.2,200.4,981.2,159.1z"/>
<path class="st1" d="M1024.7,282.4c-2.9,0.1-5,0.3-7.1,0.3c-2.4,0-4.7,0-7.8,0c0-40.7,0-80.8,0-121.3c4.8,0,9.4,0,14.9,0
	C1024.7,201.4,1024.7,241.5,1024.7,282.4z"/>
<path class="st1" d="M1038.2,282.1c0-39.9,0-79.4,0-119.6c5.1,0,9.9,0,16.1,0c0,10.2,0,20.1,0,30c-0.1,26.6-0.3,53.2-0.5,79.8
	c-0.1,10.8,0,10.8-10.9,10.3C1041.5,282.6,1040.1,282.3,1038.2,282.1z"/>
<path class="st1" d="M1081.9,282.2c-5.3,0-9.9,0-15,0c0-39.2,0-77.9,0-117.1c5.1,0,9.7,0,15,0C1081.9,204,1081.9,242.7,1081.9,282.2
	z"/>
<path class="st1" d="M1095.5,187c5.3,0,10,0,15.3,0c0,31.7,0,63.2,0,95.2c-5.2,0-9.8,0-15.3,0C1095.5,250.5,1095.5,218.9,1095.5,187
	z"/>
<path class="st1" d="M1124.1,212.7c5.3,0,9.8,0,15,0c0,23.2,0,46.1,0,69.5c-5.1,0-9.7,0-15,0
	C1124.1,259.1,1124.1,236.2,1124.1,212.7z"/>
<path class="st1" d="M1167.8,282.3c-5.3,0-10,0-15.3,0c0-22.8,0-45.2,0-67.9c5.4,0,10,0,15.3,0
	C1167.8,237,1167.8,259.2,1167.8,282.3z"/>
<path class="st2" d="M1180.9,282.6c0-19.1,0-37.7,0-56.8c5.4,0,10,0,15.5,0c0,19,0,37.8,0,56.8
	C1191.1,282.6,1186.2,282.6,1180.9,282.6z"/>
<path class="st1" d="M1224.9,282.3c-5.2,0-9.8,0-15.2,0c0-18,0-35.7,0-53.7c5.3,0,9.9,0,15.2,0
	C1224.9,246.6,1224.9,264.2,1224.9,282.3z"/>
<path class="st1" d="M1238.5,229.9c5.4,0,9.8,0,14.9,0c0,17.5,0,34.6,0,52.3c-5,0-9.7,0-14.9,0
	C1238.5,264.8,1238.5,247.6,1238.5,229.9z"/>
<path class="st1" d="M1282,282.4c-5.3,0-9.8,0-14.8,0c0-9,0-17.6,0-27c4.8,0,9.6,0,14.8,0C1282,264.4,1282,273,1282,282.4z"/>
<rect x="338.2" y="331.3" class="st3" width="103" height="29"/>
<text transform="matrix(1 0 0 1 338.2 347.9748)" class="st1 st4 st5">S&amp;P 500</text>
<rect x="1099.3" y="331.3" class="st3" width="236" height="57"/>
<text transform="matrix(1 0 0 1 1099.3 347.9748)" class="st1 st4 st5">Average Investor</text>
<g>
	<g>
		<line class="st6" x1="389.7" y1="320.5" x2="389.7" y2="300.3"/>
		<g>
			<polygon class="st1" points="389.7,293.2 393.8,303.1 389.7,300.8 385.6,303.1 			"/>
		</g>
	</g>
</g>
<g>
	<g>
		<line class="st6" x1="1188.7" y1="320.5" x2="1188.7" y2="300.3"/>
		<g>
			<polygon class="st1" points="1188.7,293.2 1192.7,303.1 1188.7,300.8 1184.6,303.1 			"/>
		</g>
	</g>
</g>
</svg>
