<?xml version="1.0" encoding="utf-8"?>
<!-- Generator: Adobe Illustrator 19.2.1, SVG Export Plug-In . SVG Version: 6.00 Build 0)  -->
<svg version="1.1" id="Layer_1" xmlns="http://www.w3.org/2000/svg" xmlns:xlink="http://www.w3.org/1999/xlink" x="0px" y="0px"
	 viewBox="0 0 1400.3 540.3" style="enable-background:new 0 0 1400.3 540.3;" xml:space="preserve">
<style type="text/css">
	.st0{fill:#0B1A31;stroke:#000000;stroke-miterlimit:10;}
	.st1{display:none;fill:#666161;}
	.st2{fill:#FFFFFF;}
	.st3{fill:#ED1C24;}
	.st4{fill:none;}
	.st5{font-family:'FranklinGothic-Book';}
	.st6{font-size:25px;}
	.st7{fill:#C6C6C6;}
	.st8{enable-background:new    ;}
	.st9{font-family:'FranklinGothic-Medium';}
	.st10{font-size:34px;}
	.st11{fill:none;stroke:#FFFFFF;stroke-miterlimit:10;}
</style>
<rect x="-1.9" class="st0" width="1402.2" height="540.3"/>
<rect x="3" y="78" class="st1" width="1485" height="750"/>
<path class="st2" d="M103.7,152.1c3.9,0,7.4,0.1,10.9,0c4-0.2,5.3,1.5,5.3,5.5c-0.1,16.7,0.2,33.3,0.2,50
	c-0.1,71.4-0.2,142.8-0.3,214.2c0,14.7-0.3,14.9-16.1,12.2C103.7,340.4,103.7,246.8,103.7,152.1z"/>
<path class="st2" d="M147.8,434.3c-5.5,0-10.1,0-15.4,0c0-92.6,0-184.7,0-277.3c5.3,0,10,0,15.4,0
	C147.8,249.4,147.8,341.5,147.8,434.3z"/>
<path class="st2" d="M175.9,434.2c-5.4,0-10,0-15.2,0c0-82.4,0-164.4,0-246.9c5,0,9.6,0,15.2,0C175.9,269.3,175.9,351.4,175.9,434.2
	z"/>
<path class="st2" d="M189.2,434.7c0-81.3,0-161.2,0-241.7c5.3,0,10.1,0,15.8,0c0,7,0,13.8,0,20.6c0.2,43.3,0.4,86.6,0.4,129.9
	c0,28.3-0.4,56.6-0.4,84.9c0,4.5-1.2,6.7-6,6.3C196.1,434.5,193,434.7,189.2,434.7z"/>
<path class="st2" d="M233.1,434.2c-5.2,0-9.8,0-15.1,0c0-80.3,0-160.2,0-240.6c5,0,9.6,0,15.1,0
	C233.1,273.8,233.1,353.8,233.1,434.2z"/>
<path class="st2" d="M246.5,207.1c5.6,0,10.5,0,15.7,0c0,18.7,0,36.9,0,55.2c0,53.3,0,106.6,0,159.9c0,14.3-0.5,14.7-15.7,11.4
	C246.5,358.4,246.5,283.1,246.5,207.1z"/>
<path class="st2" d="M319.1,434.2c-5.6,0-10.3,0-15.5,0c0-73.7,0-146.8,0-220.5c5.2,0,10,0,15.5,0
	C319.1,287.3,319.1,360.4,319.1,434.2z"/>
<path class="st2" d="M290.2,434.2c-5.2,0-9.8,0-15,0c0-73.8,0-147.2,0-221c4.9,0,9.6,0,15,0C290.2,286.7,290.2,360.2,290.2,434.2z"
	/>
<path class="st2" d="M360.7,214.6c5.6,0,10,0,15.3,0c0,73.1,0,146,0,219.5c-5.1,0-9.9,0-15.3,0C360.7,361.1,360.7,288.2,360.7,214.6
	z"/>
<path class="st2" d="M332.3,214.1c5.3,0,9.8,0,15.4,0c0,3,0,5.8,0,8.5c0,66.6,0,133.3,0,199.9c0,13.6-0.6,14-15.4,11.1
	C332.3,360.9,332.3,287.9,332.3,214.1z"/>
<path class="st2" d="M389.4,434.3c0-72.5,0-144.4,0-216.7c5.3,0,9.9,0,15.1,0c0,72.3,0,144.3,0,216.7
	C399.7,434.3,395.1,434.3,389.4,434.3z"/>
<path class="st2" d="M433.1,434.3c-5,0-9.6,0-15,0c0-69.8,0-139.5,0-209.6c4.9,0,9.6,0,15,0C433.1,294.4,433.1,364.2,433.1,434.3z"
	/>
<path class="st2" d="M446.7,225.9c5.2,0,9.7,0,14.9,0c0,69.4,0,138.8,0,208.5c-4.8,0-9.5,0-14.9,0
	C446.7,364.9,446.7,295.8,446.7,225.9z"/>
<path class="st2" d="M475.1,234.8c5.3,0,10,0,15.3,0c0,66.4,0,132.5,0,199.2c-5,0-9.8,0-15.3,0C475.1,367.7,475.1,301.4,475.1,234.8
	z"/>
<path class="st2" d="M576.2,434.3c-5.6,0-10.4,0-16,0c0-60.8,0-121,0-182c5,0,10.3,0,16,0C576.2,312.8,576.2,373.1,576.2,434.3z"/>
<path class="st2" d="M503.9,241.9c5.1,0,9.7,0,15,0c0,64.1,0,128,0,192.3c-4.8,0-9.5,0-15,0C503.9,370.2,503.9,306.2,503.9,241.9z"
	/>
<path class="st2" d="M547.7,433.9c-15.7,2.4-15.7,2.4-15.7-12c0-53.5,0-107.1,0-160.6c0-6.1,0-12.2,0-18.8c5.6,0,10.5,0,15.7,0
	C547.7,306.4,547.7,369.9,547.7,433.9z"/>
<path class="st2" d="M617.8,263.2c5.1,0,10,0,16,0c0,11.9,0,23.5,0,35.1c-0.1,41.9-0.2,83.7-0.3,125.6c0,11.1,0,11.1-11.3,10.7
	c-1.2,0-2.3-0.2-4.4-0.4C617.8,377.2,617.8,320.4,617.8,263.2z"/>
<path class="st2" d="M690.4,434.4c-5.3,0-10.2,0-16,0c0-2.9,0-5.5,0-8c0-49.9,0-99.8,0-149.8c0-10.4,0-10.4,10.4-10.2
	c1.6,0,3.3,0.2,5.6,0.3C690.4,322.6,690.4,378.3,690.4,434.4z"/>
<path class="st2" d="M703.3,267.5c5.7,0,10.4,0,15.6,0c0,55.7,0,111,0,166.7c-5.2,0-10.1,0-15.6,0
	C703.3,378.6,703.3,323.4,703.3,267.5z"/>
<path class="st2" d="M589.3,258.1c5.5,0,10.2,0,15.3,0c0,59,0,117.4,0,176.2c-5.2,0-9.9,0-15.3,0C589.3,376,589.3,317.4,589.3,258.1
	z"/>
<path class="st2" d="M747.5,434.7c-3.8,0-6.9,0.1-9.9,0c-1.8,0-3.7-0.3-5.9-0.4c0-53.3,0-106.3,0-159.7c5.4,0,10.3,0,15.8,0
	C747.5,327.6,747.5,380.5,747.5,434.7z"/>
<path class="st2" d="M776,276.9c0,52.9,0,105.1,0,157.4c-5.4,0-10.1,0-15.7,0c0-3.2,0-5.9,0-8.7c0-46.1,0-92.2,0-138.3
	c0-13.2-1.2-10.7,11.7-11C773,276.2,774.2,276.6,776,276.9z"/>
<path class="st2" d="M661.6,434.3c-5,0-9.7,0-14.9,0c-0.1-3-0.4-5.5-0.4-8.1c0-37.5,0-75.1,0-112.6c0-15,0.2-29.9-0.1-44.9
	c-0.2-7.5,4.9-5.3,8.8-5.6c4.1-0.3,7.2-0.3,7.2,5.7c-0.2,54.2-0.1,108.4-0.1,162.7C662,432.1,661.8,432.8,661.6,434.3z"/>
<path class="st2" d="M804.7,434.3c-5.3,0-10.1,0-15.7,0c0-51.4,0-102.4,0-153.9c5.2,0,10.1,0,15.7,0
	C804.7,331.6,804.7,382.8,804.7,434.3z"/>
<path class="st2" d="M833.3,434.4c-5.5,0-10.3,0-15.7,0c0-49.1,0-97.7,0-146.9c5.4,0,10.2,0,15.7,0
	C833.3,336.4,833.3,385.2,833.3,434.4z"/>
<path class="st2" d="M846,291.6c5.5,0,10.3,0,15.7,0c0,47.6,0,94.9,0,142.7c-5.4,0-10.3,0-15.7,0C846,386.7,846,339.5,846,291.6z"/>
<path class="st2" d="M919.1,433.9c-16,2.6-16.1,2.5-16.1-12.3c0-41.1,0-82.3,0-124c5.3,0,10.4,0,16.1,0
	C919.1,342.8,919.1,388.1,919.1,433.9z"/>
<path class="st2" d="M932,433.7c0-45,0-90.1,0-135.9c4.8,0,9.9,0,15.6,0c0,5,0,10.4,0,15.7c0,36.4,0.1,72.8,0,109.1
	C947.7,436.1,946.7,436.7,932,433.7z"/>
<path class="st2" d="M874.5,434.7c0-46.6,0-92.2,0-138.9c4.4,0,8.6-0.3,12.7,0.2c1.3,0.2,3.3,2.5,3.3,3.9c0.1,42.8-0.1,85.6,0,128.3
	c0,5.1-1.7,6.9-6.6,6.5C881.1,434.5,878.2,434.7,874.5,434.7z"/>
<path class="st2" d="M960.5,300.3c15.1-2.6,15.4-2.3,15.4,11.4c0,38.1,0,76.1,0,114.2c0,2.6,0,5.1,0,8.2c-5.4,0-10.1,0-15.3,0
	C960.5,389.6,960.5,345.2,960.5,300.3z"/>
<path class="st2" d="M988.7,434.1c0-43.8,0-86.8,0-130.5c5.2,0,10,0,15.5,0c0.1,3.2,0.4,6.2,0.4,9.2c0,37.1,0,74.2,0,111.3
	c0,10.9,0,10.9-11,10.5C992.3,434.7,990.9,434.4,988.7,434.1z"/>
<path class="st2" d="M1032.8,306.3c0,42.6,0,84.8,0,127.8c-5.2,0-10,0-15.3,0c0-42.6,0-84.9,0-127.8
	C1022.3,306.3,1027,306.3,1032.8,306.3z"/>
<path class="st2" d="M1046.2,311.1c5.3,0,9.9,0,16.1,0c0,11.4,0.1,22.5,0,33.6c-0.1,25.7-0.4,51.4-0.5,77.1
	c-0.1,14.4-0.4,14.7-15.6,12.1C1046.2,393.2,1046.2,352.4,1046.2,311.1z"/>
<path class="st2" d="M1089.7,434.4c-2.9,0.1-5,0.3-7.1,0.3c-2.4,0-4.7,0-7.8,0c0-40.7,0-80.8,0-121.3c4.8,0,9.4,0,14.9,0
	C1089.7,353.4,1089.7,393.5,1089.7,434.4z"/>
<path class="st2" d="M1103.2,434.1c0-39.9,0-79.4,0-119.6c5.1,0,9.9,0,16.1,0c0,10.2,0,20.1,0,30c-0.1,26.6-0.3,53.2-0.5,79.8
	c-0.1,10.8,0,10.8-10.9,10.3C1106.5,434.6,1105.1,434.3,1103.2,434.1z"/>
<path class="st2" d="M1146.9,434.2c-5.3,0-9.9,0-15,0c0-39.2,0-77.9,0-117.1c5.1,0,9.7,0,15,0C1146.9,356,1146.9,394.7,1146.9,434.2
	z"/>
<path class="st2" d="M1160.5,339c5.3,0,10,0,15.3,0c0,31.7,0,63.2,0,95.2c-5.2,0-9.8,0-15.3,0C1160.5,402.5,1160.5,370.9,1160.5,339
	z"/>
<path class="st2" d="M1189.1,364.7c5.3,0,9.8,0,15,0c0,23.2,0,46.1,0,69.5c-5.1,0-9.7,0-15,0
	C1189.1,411.1,1189.1,388.2,1189.1,364.7z"/>
<path class="st2" d="M1232.8,434.3c-5.3,0-10,0-15.3,0c0-22.8,0-45.2,0-67.9c5.4,0,10,0,15.3,0
	C1232.8,389,1232.8,411.2,1232.8,434.3z"/>
<path class="st3" d="M1245.9,434.6c0-19.1,0-37.7,0-56.8c5.4,0,10,0,15.5,0c0,19,0,37.8,0,56.8
	C1256.1,434.6,1251.2,434.6,1245.9,434.6z"/>
<path class="st2" d="M1289.9,434.3c-5.2,0-9.8,0-15.2,0c0-18,0-35.7,0-53.7c5.3,0,9.9,0,15.2,0
	C1289.9,398.6,1289.9,416.2,1289.9,434.3z"/>
<path class="st2" d="M1303.5,381.9c5.4,0,9.8,0,14.9,0c0,17.5,0,34.6,0,52.3c-5,0-9.7,0-14.9,0
	C1303.5,416.8,1303.5,399.6,1303.5,381.9z"/>
<path class="st2" d="M1347,434.4c-5.3,0-9.8,0-14.8,0c0-9,0-17.6,0-27c4.8,0,9.6,0,14.8,0C1347,416.4,1347,425,1347,434.4z"/>
<rect x="403.2" y="483.3" class="st4" width="103" height="29"/>
<text transform="matrix(1 0 0 1 403.2 499.9748)" class="st2 st5 st6">S&amp;P 500</text>
<text transform="matrix(1 0 0 1 51.2 329.5)" class="st7 st5 st6">5%</text>
<text transform="matrix(1 0 0 1 37.2 213.5997)" class="st7 st5 st6">10%</text>
<text transform="matrix(1 0 0 1 103.6999 50.0845)" class="st8"><tspan x="0" y="0" class="st2 st9 st10">Asset Class Returns vs. The Average Investor</tspan><tspan x="0" y="34" class="st7 st5 st6">1993-2013</tspan></text>
<rect x="1164.3" y="483.3" class="st4" width="236" height="57"/>
<text transform="matrix(1 0 0 1 1164.3 499.9748)" class="st2 st5 st6">Average Investor</text>
<g>
	<g>
		<line class="st11" x1="454.7" y1="472.5" x2="454.7" y2="452.3"/>
		<g>
			<polygon class="st2" points="454.7,445.2 458.8,455.1 454.7,452.8 450.6,455.1 			"/>
		</g>
	</g>
</g>
<g>
	<g>
		<line class="st11" x1="1253.7" y1="472.5" x2="1253.7" y2="452.3"/>
		<g>
			<polygon class="st2" points="1253.7,445.2 1257.7,455.1 1253.7,452.8 1249.6,455.1 			"/>
		</g>
	</g>
</g>
</svg>
