<?xml version="1.0" encoding="utf-8"?>
<!-- Generator: Adobe Illustrator 19.2.1, SVG Export Plug-In . SVG Version: 6.00 Build 0)  -->
<svg version="1.1" id="Layer_1" xmlns="http://www.w3.org/2000/svg" xmlns:xlink="http://www.w3.org/1999/xlink" x="0px" y="0px"
	 viewBox="0 0 573.5 197" style="enable-background:new 0 0 573.5 197;" xml:space="preserve">
<style type="text/css">
	.st0{fill:#FFFFFF;}
</style>
<path class="st0" d="M558.6,45.8c8.5,19.7,18.2,40.5,13.9,64.7c-5.8-1.5-6.2,2.5-7.8,7.2c-4.9,14.8-2.5,30-4.2,45
	c-0.8,7.1-0.9,14.3-1.4,21.4c-0.5,6.3,1.1,8.5,7.5,9.5c1,0.2,2,0.8,2.7,2.4c-11.7,0-23.3,0-35.2,0c1-16.9,2.1-33.7,3-50.6
	c0.3-5.8-0.7-11.7,0.3-17.3c0.9-5.1,1.1-9.6-1.2-14.3c-3.3-6.8-1.7-14-1-21.1c0.6-5.7,0.2-11.5-0.2-17.3c-0.9-13.1,0-25.5,8.9-36.2
	c1.3-1.5,1.2-4.4,1.2-6.6c0-2.8-0.9-5.6-0.8-8.4c0.4-5.9,3.8-9.3,9.2-10c4.8-0.6,10.3,2.5,11.7,7.4c1.3,4.4,4.1,8.8,0.6,13.6
	C563.5,38.3,561.4,41.6,558.6,45.8z"/>
<path class="st0" d="M19.4,184.5c4.7,1.7,9.9,3.6,14.9,5.5c2.2,0.9,3,2.4,0.7,4c-1.3,0.9-2.9,2.1-4.4,2.1
	c-9.9,0.2-19.9,0.1-30.6,0.1c0.5-4.6,1-8.7,1.2-12.7c0.7-11.1,1.1-22.2,2.1-33.3c0.7-7.6,2.2-15.1,3.2-22.6
	c0.8-6.1,0.8-12.3-2.9-17.5c-2.8-3.9-3.4-7.6-1.8-12C3.1,94.5,4,90.9,5,87.2c0.3-1.2,0.3-2.4,0.2-3.6c-0.1-1.1-0.9-2.3-0.7-3.3
	c1.8-8.8,0.1-17.5,0.1-26.2c0-8.3,2.5-16.1,8.7-22.2c2.5-2.4,3.7-4.8,1.7-8.3c-1-1.6-0.9-3.8-1.4-5.8c-1.4-5.5,0.2-10.2,4.1-12.2
	C22.8,3,28.6,3.8,31.8,8.4C35,13,37.7,18,36,24c-0.6,2.1-0.9,3.9-3.9,4.9c-2.4,0.7-4.1,3.9-6.2,6c7.8,8.5,10.6,18.1,10.4,28.8
	c-0.1,9.6-0.1,19.3,0.2,28.9c0.1,4.1,0.9,8.1,1.8,12.1c1,4,0.3,7.6-3,9.7c-3.1,2-3.6,4.8-4.2,7.9c-1.8,9.3-2.6,19-6,27.7
	c-3.5,9.3-4,18.6-4.1,28.2C21.1,179.8,20.2,181.4,19.4,184.5z"/>
<path class="st0" d="M400.8,196.4c-3.8,0-7.7,0.2-11.5-0.1c-1.3-0.1-3.5-1.9-3.4-2.8c0.9-15.9,1-32,3.7-47.6
	c1.8-10.4,1.4-20.8,2.1-31.1c0.5-7.2-3.1-14.5-3.6-21.9c-1-15.3-1.7-30.7-1.3-46.1c0.1-4.6,3.5-9.8,6.9-13.3c4.2-4.4,5.5-8.4,3-13.9
	c-0.7-1.6-1.1-3.4-1.7-5.1c-3-8.6,0.5-12.1,9.7-13.5c2.2-0.3,4.6-0.4,6.8,0.1c1.3,0.3,3.2,1.6,3.3,2.7c0.7,5.7,1.1,11.4,1,17.1
	c0,2.2,0.1,5-3.6,6.2c-2.9,0.9-2.7,7.8-0.5,10.3c1.1,1.3,1.9,3.1,2.1,4.7c1.6,12.8,3.5,25.7,4.3,38.6c0.5,7.1-0.9,14.4-1.5,21.6
	c-0.2,2.8-0.7,5.6-0.5,8.4c1.4,16.6-0.6,32.8-4.4,48.9c-1.3,5.5-1.6,11.2-2.7,16.7c-0.4,1.9-1.3,3.8-2.4,5.3
	c-2.4,3.2-1.9,6.2,1.7,7.8c2.1,0.9,4.5,1.1,6.7,2c1.1,0.4,1.9,1.5,2.8,2.3c-0.9,0.8-1.8,2.2-2.8,2.3c-4.8,0.2-9.6,0.1-14.5,0.1
	C400.8,196.1,400.8,196.2,400.8,196.4z"/>
<path class="st0" d="M511.1,99.5c1.4,3.5,3.5,8-1.7,11.7c-0.3,0.2-0.4,0.9-0.4,1.4c-1.3,10.2-2.5,20.4-3.8,30.6
	c-0.2,1.9-0.8,3.8-1,5.8c-0.8,11.1-2.2,22.3-2,33.4c0.2,7.5,8.1,8,13.4,10.4c1.3,0.6,2.6,1.3,3.6,3.1c-11.3,0-22.7,0-34.9,0
	c-0.6-16.8-2.8-33.8-1.3-50.5c1.5-16.8,0.7-32.7-3-49c-1.9-8.5-0.3-17.8-0.3-26.7c0-6-0.3-12,0-18c0.2-5.8,0.8-11.4,4.6-16.4
	c2.4-3.2,3.7-7.4,4.7-11.4c0.4-1.7-1.2-3.9-1.8-5.9c-0.9-3.1-2.6-6.3-2.5-9.3c0.3-5.5,3.7-8.2,9.2-8.6c7.8-0.6,10.7,0.8,12.5,6.8
	c1,3.4,1.5,7,2,10.5c0.5,3.6-0.5,6.1-4.8,7.1c-1.2,0.3-3.1,5.1-2.4,5.9c8.2,9.7,8.2,21.8,10,33.2c1.5,10,1.7,20.2,2.2,30.3
	C513.3,95.5,512.1,97,511.1,99.5z"/>
<path class="st0" d="M49.3,195.9c-0.1-1.2-0.7-2.6-0.4-3.8c2.6-9.4-1.5-18.4-1.3-27.6c0.1-7.5,1.6-15,2.5-22.9
	c-0.8-0.1-2.5-0.4-5.2-0.9c1.5-8.1,3.1-16.2,4.5-24.3c0.4-2.4,1.2-5.2,0.3-7.3c-3.2-7.8-1.5-14.8,2.8-21.3c4.4-6.7,3.6-13.9,2-20.7
	c-1.7-6.9-2.6-13.5-1.6-20.6c1.1-7.9,1.6-15.8,2.3-23.7c0.8-9.2,3.7-13.5,10-14.7c6.8-1.3,10.2,0.8,11.8,7.4c0.1,0.5,0,1.2,0.3,1.4
	c4.3,4.4,1.5,9,0.6,13.7c-1.5,0.4-3.1,0.8-4.7,1.2c-1.7,5.6-1.1,10.4,2.8,15c4.6,5.5,6.3,11.4,5,19.2c-1.8,9.9-3.8,20.3,0.1,30.5
	c1.4,3.6,1.7,7.8,2,11.7c0.4,4.5-1.7,7.7-6.9,8.6c1,5.8,2.1,11.3,2.9,16.8c0.9,6.1,0.4,6.3-5.7,6.7c-1.7,0.1-4.2,1.5-4.8,3
	c-4.6,11.1-5.7,22.8-6.1,34.6c-0.3,7.5,6,10.4,14.3,12.6c1.5,0.4,3,0.6,4.9,0.9C77.3,196.9,66.9,198.2,49.3,195.9z"/>
<path class="st0" d="M106,31.5c-5.5-4.3-2.2-11-1.2-17.1c0.5-2.8,2.5-5.8,4.7-7.8c5.6-5.2,10.5-0.2,15.3,2.1c4.1,2,3.3,5.6,3.6,9.6
	c0.5,7,0.9,12.7-6.8,15.9c-0.7,0.3-0.7,3.9,0,5.4c1.9,4,4.7,7.6,6.6,11.6c1.1,2.2,1.7,4.9,1.6,7.3c-0.3,5.2-1.4,10.4-1.7,15.6
	c-0.4,7.1-0.7,14.2-0.4,21.3c0.2,4,1.4,8.1,2.8,11.9c3,8.2,2.3,10.1-6,13.4c-0.8,0.3-1.5,1.3-1.8,2.2c-3.4,8.1-7.3,16.1-9.8,24.5
	c-1.5,5.1-0.9,10.9-0.8,16.4c0.1,6.5,0.6,13,1.2,19.5c0.3,3,8.5,7.9,12.7,8.2c1.5,0.1,2.8,1.3,4.3,1.9c-1.3,0.8-2.6,2.2-3.9,2.3
	c-8.3,0.3-16.6,0.5-25,0.3c-1,0-3-2.3-2.8-3.3c1.6-12.2-2.2-24-2.1-36c0.1-6.4,2.4-12.7,3.1-19.1c1-9.7,1.4-19.5,2.1-29.3
	c0-0.3-0.1-0.7-0.2-1c-4.8-9.2-4.3-17.8,2.4-26c0.6-0.8-0.3-2.8-0.5-4.2c-1.2-9.8-3.1-19.7-3.1-29.5C100.3,42.7,103.8,37.6,106,31.5
	z"/>
<path class="st0" d="M157.6,195.3c-0.7-9.8-1.9-19.8-2.1-29.8c-0.1-4.8,1-9.9,2.4-14.5c3.7-12.2,3.7-24.2-0.9-36
	c-2.9-7.6-0.7-14.2,3.6-20.1c3.5-4.8,4.6-9.4,2.7-15.2c-1.7-5.5-4.1-11.6-3.2-17c1.4-7.8,0.3-15.3,0.8-22.9
	c0.3-4.8,2.2-9.6,4.1-14.1c1.8-4.1,5.5-5.3,10-4.3c4.1,1,7.6,1.6,8.5,7.2c1,6.3,1.4,12-4,16.7c2.9,2.5,6,4.7,8.5,7.5
	c5.2,5.9,4.8,13.6,1.8,19.5c-4,8.1-4.7,16.2-4,24.6c0.4,5.2,2,10.3,3.4,15.3c1.1,3.9,2.8,7.7-1.9,10.5c-0.6,0.4-0.8,1.7-1.1,2.5
	c-2.9,8.8-6.4,17.5-8.5,26.5c-2.3,10-4.3,20.4-1.2,30.4c1.6,5.2,6.5,8.4,12.3,9.4c1.2,0.2,2.3,1.2,3.4,1.9c-1,0.7-2,2-3,2
	C178.4,195.3,167.6,195.3,157.6,195.3z"/>
<path class="st0" d="M286.4,196.4c0.9-3.9,1.8-7,2.2-10.2c0.3-2.6,0.4-5.3-0.2-7.8c-2.6-10.1-4.5-20-2-30.5c1-4.1,0.1-8.6,0.2-12.9
	c0-3.8,0.3-7.6,0.2-11.5c0-3.8-0.3-7.6-6.1-8.6c0.6-4.2,1.4-8.6,1.7-13c0.1-1.5-1.4-3.1-1.3-4.6c0.6-12.4,1-24.9,2.2-37.2
	c0.6-6.3,3.6-12.5,3.5-18.6c-0.1-5.2,0.5-10,1.8-14.9c1.2-4.6,4.7-6.7,9.3-6.1c8.4,1.1,8.8,1.6,10.4,9.9c0.4,2.4,1.1,4.7,1.4,7
	c0.5,4.6-1.6,6.8-7.3,5.8c0.9,3.9,1.6,7.2,2.5,10.5c3.7,12.7,7.6,25.3,11.5,37.9c0.3,1.1,1.2,2,1.8,3.1c0.6,1,1.4,2.2,1.3,3.2
	c-0.1,0.6-1.6,1.4-2.6,1.7c-9.7,2.3-9.7,2.3-6.5,11.7c0.9,2.7,1.5,5.4,2.1,8.2c0.2,1.1,0.5,2.8-0.1,3.3c-5.8,5.6-2,12.5-2.9,18.8
	c-0.3,2-0.2,4-0.6,5.9c-1.7,9.1-3.9,18.2-5,27.4c-0.3,2.7,1.3,6.5,3.3,8.6c3.1,3.5,4.8,8.9,10.8,9.3c0.5,0,0.8,1.6,1.3,2.4
	c-1,0.4-2,1.2-3,1.2C306.7,196.4,297.3,196.4,286.4,196.4z"/>
<path class="st0" d="M469.1,195.6c-10.3,0-20.6,0-31.2,0c0-7.6-0.3-15.5,0.1-23.4c0.6-13,1.1-25.9,2.4-38.8
	c0.9-9.2,1.3-18.2-1.8-27.1c-0.4-1.2-0.5-2.9,0-3.9c3.1-6.1,1.7-12-0.1-18.1c-0.9-3-0.3-6.5-0.4-9.8c-0.2-4.9-1.3-9.9-0.5-14.6
	c1.8-10.6,4.5-21.1,7-31.6c1.1-4.4,3.8-7.2,8.5-7.9c4.2-0.7,6.8,1.7,8.6,4.7c3.6,6.1,1.8,17.1-3.9,22c-3.3,2.9-2.9,5-0.5,7.9
	c2,2.4,4,4.9,5.8,7.5c2.5,3.5,3.6,7,1.7,11.6c-1.2,3-0.4,6.8-0.4,10.3c-0.1,5.1-0.1,10.2-0.1,15.3c-0.1,11.4,0.4,22.9-0.4,34.2
	c-1,16.4-2.9,32.7-4.4,49.1c-0.4,4.6,2,7,5.7,8.7c1.5,0.7,2.8,1.5,4.3,2.3C469.4,194.6,469.3,195.1,469.1,195.6z"/>
<path class="st0" d="M234.7,56.1c1.2,1.4,3.5,3.5,5.1,6.2c1,1.7,1.3,4.1,1.3,6.1c0,6.6,0.5,13.4-0.8,19.8c-2,10.6,0.3,20.1,3.8,29.8
	c2.5,6.8,0.1,9.4-7.3,8.7c-2.3-0.2-4.2-0.3-5.2,2.7c-4.9,14-9.7,28.1-11.1,43c-1.2,12.9,2.3,17.4,15.3,20.1c0.4,0.1,0.8,0.5,2.4,1.7
	c-3.3,0.9-5.6,1.9-7.9,2c-7.2,0.2-14.3,0.1-21.5,0.1c-2.3,0-3.6-0.2-3.4-3.3c1.1-13.1,1.2-26.2,2.9-39.2c1.6-12.3,4.8-24.3,7.4-36.4
	c0.7-3.5,0.6-6.4-0.6-10c-1.4-4.3-0.7-9.3-0.8-14c-0.1-4.9-0.4-9.9-0.1-14.8c0.4-8.6,1.3-17.2-1.1-25.7c-0.6-2,0.5-4.5,0.2-6.7
	c-0.3-1.8-2.6-3.6-2.2-5.1c2.1-9,1-19.4,9.6-25.7c2.8-2.1,6.8-3,10.4-3.4c2.9-0.3,5.4,1.4,6.4,5c1.4,5.1,4,10,2.8,15.5
	c-0.3,1.4-1.4,3.3-2.6,3.6c-4.6,1.4-6.3,4.6-4.6,9.2c0.7,1.9,1.4,3.9,1.8,6C235.3,52.5,234.9,53.7,234.7,56.1z"/>
<path class="st0" d="M274.1,194.7c-1.5,0.5-3.1,1.5-4.8,1.5c-6,0.2-12,0-18,0.1c-3.7,0.1-5.3-1.5-5.5-5.2
	c-0.8-15.3-0.5-30.3,2.2-45.6c1.7-9.5,2.3-20.2-2.2-29.7c-3.4-7.2-1-13.6,2.1-19.9c3.2-6.6,4.5-13,2.7-20.5
	c-1.8-7.7-3-15.7,0.5-23.5c2.5-5.7,2.4-12.7,0.3-18.9c-2.4-7.3-1-10.1,6.5-11.9c3-0.7,6.3-0.9,9.3-0.6c4,0.4,6.8,2,6.3,7.1
	c-0.2,2.2,1.4,4.6,1.7,6.9c0.6,5.2-1.1,7.1-6.6,8.3c-0.5,0.1-0.9,0.5-2,1.2c6.6,2.2,4.5,7.5,5.5,11.6c0.7,3,1.4,6,2,9.1
	c0.5,2.7,1.4,5.5,1.2,8.3c-0.4,7.9-1.9,15.9-1.8,23.8c0.1,6.1,1.7,12.1,3,18.1c1,4.8,0.4,8.5-4.8,10.3c-1,0.3-1.8,1.7-2.2,2.8
	c-1.7,5-2.6,10.4-5,15.1c-4.5,9.1-5.8,18.8-5.9,28.7c-0.1,5.5-0.7,11.6,3.9,15.7C265.6,190.4,269.6,192.1,274.1,194.7z"/>
<path class="st0" d="M367.5,194.6c-10.5,3.7-21.2,0.8-32.1,2c0-2.1,0-3.4,0-4.7c0.2-7.1,0.4-14.2,0.8-21.3c0.3-5.7,0-11.6,1.6-16.9
	c3.3-10.9,4.1-21.9,3.3-33c-0.3-4.9-2.9-9.7-4.3-14.6c-0.4-1.3-0.8-3.1-0.3-4.2c2.4-5.2,1.5-10.2,0.8-15.7
	c-1.6-12.1-3.1-24.3,1.2-36.3c0.1-0.3,0.3-0.8,0.2-0.9c-4.5-3.2-1.5-7.6-2-11.4c-0.9-7.7,2.4-13.1,8.6-13.9
	c9.5-1.2,13.1,1.3,13.8,10.7c0.4,5.2-0.4,10.5-0.6,15.7c-0.4,0-0.9,0.1-1.3,0.1c-0.8-1.4-1.5-2.7-2.3-4.1c-0.3,0-0.6,0-0.9,0
	c0.1,1.8-0.1,3.7,0.4,5.4c0.5,1.7,1.6,3.3,2.7,4.7c6.9,8.3,6.7,18.6,6.9,28.4c0.3,16.9-2,33.5-7.2,49.7c-4.5,14.1-5.4,28.8-5.6,43.4
	c-0.1,7.8,3,11.6,12.4,13.4c1.5,0.3,2.9,1.1,4.3,1.7C367.9,193.4,367.7,194,367.5,194.6z"/>
</svg>
