<?xml version="1.0" encoding="utf-8"?>
<!-- Generator: Adobe Illustrator 19.2.1, SVG Export Plug-In . SVG Version: 6.00 Build 0)  -->
<svg version="1.1" id="Layer_1" xmlns="http://www.w3.org/2000/svg" xmlns:xlink="http://www.w3.org/1999/xlink" x="0px" y="0px"
	 viewBox="0 0 133.6 132.7" style="enable-background:new 0 0 133.6 132.7;" xml:space="preserve">
<style type="text/css">
	.st0{fill:#FFFFFF;}
	.st1{fill:#FFFFFF;stroke:#FFFFFF;stroke-width:4;stroke-linecap:round;stroke-miterlimit:10;}
</style>
<path class="st0" d="M57,0H4.6C2.1,0,0,2.1,0,4.6v52.4c0,2.5,2.1,4.6,4.6,4.6H57c2.6,0,4.6-2.1,4.6-4.6V4.6C61.7,2.1,59.6,0,57,0z
	 M30.8,35.4c-5,0-9-4-9-9c0-5,4-9,9-9c5,0,9,4,9,9C39.8,31.3,35.8,35.4,30.8,35.4z M33.3,41.5c6.4,0,11.5,5.2,11.5,11.5v3.2h-28V53
	c0-6.4,5.2-11.5,11.5-11.5H33.3z M56.2,56.2h-5.8V53c0-6.9-4.2-12.9-10.2-15.6c3.1-2.7,5.1-6.6,5.1-11.1c0-8-6.5-14.5-14.5-14.5
	c-8,0-14.5,6.5-14.5,14.5c0,4.4,2,8.4,5.1,11.1c-6,2.6-10.2,8.6-10.2,15.6v3.2H5.5V5.5h50.7V56.2z"/>
<path class="st0" d="M129,0H76.6C74,0,72,2.1,72,4.6v52.4c0,2.5,2.1,4.6,4.6,4.6H129c2.5,0,4.6-2.1,4.6-4.6V4.6
	C133.6,2.1,131.6,0,129,0z M102.8,35.4c-5,0-9-4-9-9c0-5,4-9,9-9s9,4,9,9C111.8,31.3,107.8,35.4,102.8,35.4z M105.3,41.5
	c6.4,0,11.5,5.2,11.5,11.5v3.2h-28V53c0-6.4,5.2-11.5,11.5-11.5H105.3z M128.1,56.2h-5.8V53c0-6.9-4.2-12.9-10.2-15.6
	c3.1-2.7,5.1-6.6,5.1-11.1c0-8-6.5-14.5-14.5-14.5s-14.5,6.5-14.5,14.5c0,4.4,2,8.4,5.1,11.1c-6,2.6-10.2,8.6-10.2,15.6v3.2h-5.8
	V5.5h50.7L128.1,56.2L128.1,56.2z"/>
<path class="st0" d="M129,71H76.6C74,71,72,73.1,72,75.7v52.4c0,2.6,2.1,4.6,4.6,4.6H129c2.5,0,4.6-2.1,4.6-4.6V75.7
	C133.6,73.1,131.6,71,129,71z M102.8,106.2c-5,0-9-4-9-9s4-9,9-9s9,4,9,9S107.8,106.2,102.8,106.2z M105.3,112.3
	c6.4,0,11.5,5.2,11.5,11.5v3.4h-28v-3.4c0-6.4,5.2-11.5,11.5-11.5H105.3z M128.1,127.2h-5.8v-3.4c0-6.9-4.2-12.9-10.2-15.6
	c3.1-2.7,5.1-6.6,5.1-11.1c0-8-6.5-14.5-14.5-14.5c-8,0-14.5,6.5-14.5,14.5c0,4.4,2,8.4,5.1,11.1c-6,2.6-10.2,8.6-10.2,15.6v3.4
	h-5.8V76.5h50.7V127.2z"/>
<path class="st0" d="M57,71H4.6C2.1,71,0,73.1,0,75.7v52.4c0,2.6,2.1,4.6,4.6,4.6H57c2.5,0,4.6-2.1,4.6-4.6V75.7
	C61.7,73.1,59.6,71,57,71z M30.8,106.2c-5,0-9-4-9-9s4-9,9-9c5,0,9,4,9,9S35.8,106.2,30.8,106.2z M33.3,112.3
	c6.4,0,11.5,5.2,11.5,11.5v3.4h-28v-3.4c0-6.4,5.2-11.5,11.5-11.5H33.3z M56.2,127.2h-5.8v-3.4c0-6.9-4.2-12.9-10.2-15.6
	c3.1-2.7,5.1-6.6,5.1-11.1c0-8-6.5-14.5-14.5-14.5s-14.5,6.5-14.5,14.5c0,4.4,2,8.4,5.1,11.1c-6,2.6-10.2,8.6-10.2,15.6v3.4H5.5
	V76.5h50.7L56.2,127.2L56.2,127.2z"/>
<path class="st1" d="M106.7,16.4c-5.3,2.8-10.6,5.8-15.7,8.9"/>
<path class="st1" d="M94.1,93.5c6,0,12,0,18,0"/>
<path class="st1" d="M26.4,88.2c0.7-0.1-3.5,3.6-2.8,3.7c1.6,0.2,3.1,1,4.2,2.1c0.3,0.3,0.8,0.7,1.2,0.5c0.2-0.1,0.4-0.4,0.5-0.6
	c0.3-0.7,0.5-1.3,0.8-2c1.5-0.1,3,0.3,4.3,1.2c0.4,0.3,0.9,0.7,1.4,0.4c0.2-0.1,3.9-2.7,4-2.9c0.7-1.4-15.1-1-14.3-2.4"/>
</svg>
