<?xml version="1.0" encoding="utf-8"?>
<!-- Generator: Adobe Illustrator 19.2.1, SVG Export Plug-In . SVG Version: 6.00 Build 0)  -->
<svg version="1.1" id="Layer_1" xmlns="http://www.w3.org/2000/svg" xmlns:xlink="http://www.w3.org/1999/xlink" x="0px" y="0px"
	 viewBox="0 0 628.4 400" style="enable-background:new 0 0 628.4 400;" xml:space="preserve">
<style type="text/css">
	.st0{fill:none;stroke:#FFFFFF;stroke-width:9;stroke-linecap:round;stroke-miterlimit:10;}
	.st1{fill:#FFFFFF;}
</style>
<line class="st0" x1="-456.8" y1="-200.4" x2="-391" y2="-134.6"/>
<line class="st0" x1="-453.7" y1="-73" x2="-391.6" y2="-135.2"/>
<line class="st0" x1="-80.5" y1="-197.8" x2="-146.3" y2="-132"/>
<line class="st0" x1="-83.7" y1="-70.4" x2="-145.8" y2="-132.5"/>
<line class="st0" x1="-326.2" y1="-47" x2="-392" y2="18.8"/>
<line class="st0" x1="-329.4" y1="80.4" x2="-391.5" y2="18.3"/>
<line class="st0" x1="-207.8" y1="-44.4" x2="-142" y2="21.4"/>
<line class="st0" x1="-204.6" y1="83" x2="-142.5" y2="20.9"/>
<line class="st0" x1="-146.3" y1="-133" x2="-391.6" y2="-135.2"/>
<line class="st0" x1="-146.3" y1="20" x2="-391.6" y2="17.9"/>
<path class="st1" d="M436.2,111c45.7,0,91.3,0,137,0c2,0,4.2-0.3,5.9,0.5c1.6,0.7,3.5,2.4,4,4c7.3,24.8,14.3,49.7,21.5,74.6
	c4.8,16.6,9.6,33.2,14.3,49.8c0.4,1.4,0.1,3-0.1,4.4c-0.5,3.7-1.4,7.5-1.5,11.2c-0.3,6.7-1.2,8.3-7.6,8.2c-5.3-0.1-6.5,2-6.4,6.8
	c0.2,20.7,0,41.3,0.2,62c0,4.1-1.1,5.7-5.4,5.4c-4.3-0.3-8.7-0.2-13,0c-4,0.1-5.7-1.7-6.9-5.5c-6.1-19.4-5.8-39.3-5.8-59.2
	c0-8.4,0-8.5-8.2-8.2c-17.9,0.6-35.9,1.3-53.8,2c-8.8,0.3-17.6,0.7-26.4,1c-20.4,0.7-40.9,1.4-61.3,2.1c-16.1,0.6-32.2,1.3-48.3,1.9
	c-4.6,0.2-9.3,0.4-13.9,0.6c-4.1,0.1-5.2,2.4-5.1,6.2c0.1,20.8,0.1,41.7,0.1,62.5c0,6-0.6,6.7-6.6,6.6c-20-0.3-14.8,2.8-20.2-15.2
	c-4.3-14.2-3.7-28.7-3-43.1c0.6-13-4.8-24.5-6.7-36.9c-1.2-7.8-1.7-7.7-9.8-7.7c-8.2,0-7.4-0.1-8.9-8.2c-3.9-21.1-2.5-42.4-2.8-63.7
	c-0.1-9.6,0.5-19.3-0.4-28.8c-0.8-8.7-3.3-17.3-4.9-25.9c-1.3-6.8-0.8-7.4,6.3-7.4C344.2,111,390.2,111,436.2,111z M437.4,114.9
	c-45,0-90,0-135,0c-7.5,0-7.4,0-5.9,7.1c4.3,20.3,8.5,40.7,12.7,61c4.1,19.5,8.2,39,12.1,58.6c0.9,4.7,3,7,8.1,6.4
	c4.9-0.6,10-0.8,14.9-1c32.9-1.1,65.9-2.1,98.8-3.1c20.5-0.6,40.9-1.3,61.4-1.9c34.4-1,68.9-2.1,103.3-3c6.1-0.2,6.5-0.6,4.9-6.2
	c-10.6-37.1-21.3-74.3-31.7-111.4c-1.4-4.9-3.7-6.5-8.8-6.5C527.3,115,482.4,114.9,437.4,114.9z M585.1,260.8c0,0.2,0,0.3,0,0.5
	c7.1-0.4,14.3-1.1,21.4-1.2c4.5,0,6.6-1.2,6.8-6.2c0.1-5.3-2.4-6.3-6.7-6c-1.3,0.1-2.7,0-4,0.1c-33.6,1.3-67.2,2.6-100.8,3.8
	c-44.8,1.5-89.5,2.8-134.3,4.2c-11.3,0.4-22.6,0.7-33.9,1.2c-2.9,0.1-6.2-0.3-5.7,4.7c0.8,8.3,0.6,8.4,6.5,8.1
	c26.6-1,53.2-2.1,79.8-3c23.6-0.8,47.2-1.4,70.8-2.1c9.8-0.3,19.6-0.7,29.4-1.1C537.9,262.9,561.5,261.8,585.1,260.8z M352.2,309.5
	c0-8.3,0-16.6,0-25c0-10.8,0-10.6-11-10.7c-4.5,0-6.1,1.5-6.1,6.1c0.2,17.6,0.1,35.3,0.1,52.9c0,13-0.2,10.9,11.4,11.2
	c4.2,0.1,5.6-1.6,5.6-5.6C352.1,328.8,352.1,319.1,352.2,309.5z M600.2,299.3c0-8.3-0.1-16.6,0-25c0.1-10.7,0.2-10.4-10.5-9.7
	c-4.9,0.3-6.2,2.1-6.2,6.7c0.2,17.5,0.1,35,0.1,52.4c0,10.6,0,10.5,10.8,10.4c4.3,0,5.9-1.5,5.9-5.9
	C600,318.6,600.2,309,600.2,299.3z M503.9,247.7c0-0.5,0-1,0-1.5c-59.5,1.8-118.9,3.7-178.4,5.5c0,0.6,0,1.3,0.1,1.9
	C385,251.7,444.4,249.7,503.9,247.7z M307.4,198.7c-0.8,0-1.6,0-2.4,0c0,12.4-0.1,24.8,0.1,37.2c0,1.9,0.7,4.9,1.9,5.4
	c2.1,0.8,5.1,0.7,7-0.3c1-0.6,0.8-3.8,0.8-5.9c0-1.1-0.5-2.2-0.7-3.4C311.9,220.8,309.6,209.8,307.4,198.7z M576.8,266.1
	c-0.4,1-0.7,1.4-0.7,1.9c0,13.8,0,27.6,0.2,41.4c0,1.3,0.9,2.6,1.4,3.9C580,298.7,579.1,269,576.8,266.1z M329.7,323.3
	c0.3,0,0.7,0,1,0c0-15.7,0-31.4,0-47.1c-0.3,0-0.7,0-1,0C329.7,291.9,329.7,307.6,329.7,323.3z M301.3,209.8c0.3,0,0.7,0,1,0.1
	c0-11.8,0-23.5,0-35.3c-0.3,0-0.7,0-1,0C301.3,186.3,301.3,198,301.3,209.8z M509.6,245.9c0,0.3,0,0.6,0,0.9c7.7,0,15.5,0,23.2,0
	c0-0.3,0-0.6,0-0.9C525,245.9,517.3,245.9,509.6,245.9z M541.9,245c0,0.2,0,0.4,0,0.6c7.3,0,14.6,0,21.9,0c0-0.2,0-0.4,0-0.6
	C556.5,245,549.2,245,541.9,245z"/>
<path class="st1" d="M37.2,345.3c0-1,0-2,0-3c-0.1-13.1,1.1-26.3-3.5-39c-1.4-3.8-2.1-8-2.4-12c-0.3-3.5-0.5-7.3,0.5-10.6
	C47.3,230.3,63,180,78.6,129.7c11-35.2,22-70.5,32.8-105.7c1.3-4.1,3.3-5.5,7.5-5.1c18.6,1.8,37.3,3.4,55.9,5
	c12.6,1.1,25.1,2.1,37.7,3.1c9.1,0.7,18.2,1.3,27.3,2.2c5.5,0.6,6,1.5,4.3,6.7c-4.3,13-6.8,26.2-6.2,40.1c0.7,15.3,0.6,30.7,0,46
	c-0.3,7.2-2.4,14.3-3.8,21.5c-0.6,3.2-2.9,4.7-6.2,4.6c-3-0.1-6,0.2-9-0.1c-4.3-0.4-6.3,1.7-7.4,5.7c-5.4,20.2-11,40.3-16.5,60.5
	c-8.4,30.7-16.8,61.5-25.2,92.2c-0.4,1.6-0.8,3.2-0.8,4.9c-0.4,18.5-0.3,36.9-1.3,55.4c-0.4,7.3-3,14.5-5.1,21.7
	c-0.4,1.3-3,2.5-4.7,2.6c-4,0.4-8,0-12,0.2c-3,0.1-4.2-1-4.3-4c-0.1-4-0.8-7.9-0.7-11.9c0.1-17.1,0.4-34.3,0.5-51.4
	c0-4.3-2.7-5.4-6.6-5.6c-9.1-0.5-18.2-1.3-27.3-1.9c-12.3-0.8-24.5-1.3-36.8-2.2c-4.6-0.3-6.1,1.5-6,6.1c0.2,12.2,0.8,24.4-0.2,36.5
	c-0.6,7.6-3.8,15-6.1,22.3c-0.3,1-2.6,2-4,2.1c-3.6,0.3-7.3,0.1-11,0.1c-5.7,0-6.5-0.7-6.6-6.6C37.1,364.6,37.2,355,37.2,345.3z
	 M123.8,22.7c-4.3-0.6-7.8-1.3-9.6,4.6c-25.9,84.1-52,168.1-78.2,252.1c-1.3,4.2,0.1,5.3,4,5.5c10.6,0.6,21.2,1.4,31.8,2.1
	c17.4,1.2,34.8,2.5,52.2,3.8c11.6,0.8,23.2,1.4,34.8,2.6c7.4,0.8,8.1,0.7,10.2-6.5c10.3-36,20.5-72,30.7-108
	c13.2-46.6,26.5-93.1,39.7-139.7c1.6-5.5,1.3-6-4.3-6.5c-15.2-1.4-30.5-2.7-45.7-4.1C167.5,26.7,145.7,24.7,123.8,22.7z M47.7,295.8
	c-2.1,0-3.1-0.1-4.1,0c-2.4,0.2-5.9-2.3-6.6,2.6c-0.9,6.7,0.2,9.1,5.7,9.7c9.2,0.9,18.5,1.3,27.8,2c16.5,1.2,33.1,2.6,49.6,3.8
	c11.9,0.8,23.9,1.3,35.8,2.2c6.6,0.5,7,0.2,7.3-6.3c0.2-4.3-1.3-6.1-5.6-6.1c-3.3,0-6.6-0.6-9.9-0.8c-16.1-1.1-32.2-2.1-48.3-3.3
	C81.8,298.4,64.3,297.1,47.7,295.8z M145.1,352.9c0,9.1,0.2,18.3-0.1,27.4c-0.1,4.6,0.7,7.2,6.2,6.9c7.6-0.4,7.9-0.3,7.9-6.7
	c0-17.1,0-34.3,0-51.4c0-9.2,0-9.1-9-9.3c-4-0.1-5.2,1.3-5.1,5.2C145.3,334.3,145.1,343.6,145.1,352.9z M41.1,312.6
	c0,20.8-0.1,41.1,0.1,61.4c0.1,5,4.5,3.9,7.7,4c3.2,0.1,6.2-0.3,6.2-4.5c0-18.7,0.1-37.3-0.1-56c0-1.5-1.8-3.9-3.1-4.2
	C48.6,312.5,45.1,312.7,41.1,312.6z M230.2,93.7c-0.5,0-0.9-0.1-1.4-0.1c-3.7,13.6-7.5,27.2-11.2,40.8c-2.7,9.9-2.6,9.9,7.6,9.7
	c3.7-0.1,5-1.7,5-5.2c-0.1-7.3,0-14.7,0-22C230.2,109.1,230.2,101.4,230.2,93.7z M36.1,288.5c-0.1,0.9-0.1,1.7-0.2,2.6
	c42.7,3.2,85.4,5.9,128.1,8.8c0.1-0.8,0.1-1.6,0.2-2.4C121.4,294.5,78.7,291.5,36.1,288.5z M60.4,314.1c-0.3,0.1-0.6,0.3-0.9,0.4
	c0,16.9,0,33.8,0,51.9c0.9-1.6,1.5-2.1,1.5-2.6c0.4-15.4,0.8-30.9,1.1-46.3C62.1,316.3,61,315.2,60.4,314.1z M163.6,348.7
	c0.3,0,0.7,0,1,0c0-8.8,0-17.6,0-26.4c-0.3,0-0.7,0-1,0C163.6,331.1,163.6,339.9,163.6,348.7z"/>
</svg>
